<svg width="35" height="30" viewBox="0 0 35 30" fill="none" xmlns="http://www.w3.org/2000/svg">
<path d="M34.3856 1.844L32.6526 4.56307L29.1927 1.844L32.6526 0.482056L34.3856 1.844Z" fill="#FFDE55"/>
<path d="M34.3856 1.844L32.6526 4.56307L31.6299 3.75938L32.5485 2.32525L31.0176 1.12212L32.6526 0.482056L34.3856 1.844Z" fill="#FFCD00"/>
<path d="M27.456 3.20837L29.1886 1.84671L32.6478 4.56527L30.9152 5.92693L27.456 3.20837Z" fill="#009698"/>
<path d="M30.9195 5.92488L29.1927 7.28682L25.7267 4.56294L27.4597 3.20581L30.9195 5.92488Z" fill="#00B6BD"/>
<path d="M29.1927 7.28687L27.4597 8.64881V8.65363L23.9938 5.92974V5.92493L25.7268 4.56299L29.1927 7.28687Z" fill="#E0E0E2"/>
<path d="M27.8884 8.99043C28.3654 9.36532 28.3654 9.97266 27.8884 10.3476C27.4113 10.7224 26.6385 10.7224 26.1615 10.3476L21.8321 6.94511C21.3551 6.57791 21.3477 5.97635 21.815 5.60145C21.8205 5.59664 21.8266 5.59231 21.8321 5.58798C22.3024 5.21308 23.0697 5.20875 23.5467 5.57835C23.551 5.58172 23.5547 5.58461 23.559 5.58798L23.9938 5.92967L27.4597 8.65355L27.8884 8.99043Z" fill="#E0E0E2"/>
<path d="M27.8884 10.3476C27.7831 10.4294 27.6612 10.4958 27.5271 10.5449C27.7402 10.1815 27.6398 9.75177 27.276 9.47168L26.8474 9.1348L23.3814 6.41092L22.9466 6.06923C22.5896 5.78385 22.0434 5.70492 21.5811 5.87192C21.6435 5.76652 21.7281 5.67075 21.8322 5.58798C22.3024 5.21308 23.0697 5.20875 23.5468 5.57835C23.551 5.58172 23.5547 5.58461 23.559 5.58798L23.9938 5.92967L27.4597 8.65355L27.8884 8.99043C28.3654 9.35762 28.3728 9.95919 27.9055 10.3341C27.9 10.3384 27.8945 10.3432 27.8884 10.3476Z" fill="#C6C5CA"/>
<path d="M26.1615 10.3477C26.6386 10.7245 26.6361 11.3343 26.1566 11.7087C25.927 11.8882 25.6159 11.9888 25.292 11.9888C24.968 11.9898 24.6576 11.8897 24.4285 11.7097L20.0992 8.30722C19.6209 7.93136 19.6203 7.3221 20.0979 6.94624L20.0992 6.94528C20.3282 6.76529 20.6386 6.66519 20.9626 6.66615C21.2877 6.66471 21.6007 6.76529 21.8321 6.94528L26.1615 10.3477Z" fill="#E0E0E2"/>
<path d="M26.1616 11.7097C26.0563 11.7915 25.9344 11.8579 25.8003 11.907C26.0067 11.5412 25.9068 11.1134 25.5492 10.829L21.2198 7.42653C20.9884 7.24654 20.6754 7.14596 20.3503 7.1474C20.1776 7.14789 20.0067 7.1758 19.8481 7.22922C19.9106 7.12382 19.9951 7.02805 20.0992 6.94528C20.3282 6.76529 20.6387 6.66519 20.9626 6.66615C21.2878 6.66471 21.6007 6.76529 21.8322 6.94528L26.1616 10.3477C26.6398 10.7236 26.6405 11.3328 26.1628 11.7087C26.1622 11.7092 26.1622 11.7092 26.1616 11.7097Z" fill="#C6C5CA"/>
<path d="M24.4285 11.7096C24.9068 12.0855 24.9068 12.6957 24.4285 13.0716C23.9503 13.4474 23.1738 13.4474 22.6956 13.0716L18.3662 9.6691C17.8879 9.29325 17.8879 8.68302 18.3662 8.30716C18.8444 7.9313 19.6209 7.9313 20.0991 8.30716L24.4285 11.7096Z" fill="#E0E0E2"/>
<path d="M24.4286 13.0715C24.3233 13.1533 24.2014 13.2197 24.0673 13.2688C24.2749 12.903 24.1751 12.4747 23.8163 12.1908L19.4869 8.78834C19.2566 8.60642 18.9437 8.5044 18.6173 8.5044C18.444 8.5044 18.2726 8.53375 18.1152 8.59102C18.1776 8.48563 18.2621 8.38986 18.3662 8.30708C18.8402 7.93123 19.613 7.92834 20.0913 8.30083C20.0937 8.30275 20.0968 8.30516 20.0992 8.30708L24.4286 11.7095C24.9069 12.0854 24.9075 12.6947 24.4298 13.0705C24.4292 13.071 24.4292 13.071 24.4286 13.0715Z" fill="#C6C5CA"/>
<path d="M23.9938 14.0917C24.7127 14.6552 24.7139 15.5696 23.9968 16.1346C23.2798 16.6996 22.1163 16.7005 21.3974 16.137L19.6644 14.7751H19.6583C19.6828 14.662 19.695 14.5479 19.695 14.4334C19.695 13.1046 18.3239 12.0271 16.6332 12.0271C16.4875 12.0271 16.3423 12.0367 16.1984 12.056V12.0512L14.4654 10.6892C13.749 10.1257 13.749 9.21227 14.4654 8.64872C15.1844 8.08421 16.3491 8.08421 17.068 8.64872L18.3662 9.66898L22.6956 13.0714L23.9938 14.0917Z" fill="#57A4FF"/>
<path d="M21.3974 16.1371C22.1144 16.6973 22.1175 17.6088 21.4047 18.1718C21.0593 18.4447 20.589 18.5977 20.0992 18.5963C19.6123 18.6001 19.1439 18.449 18.8009 18.1776L17.068 16.8157V16.8108C18.4133 16.6631 19.4703 15.8325 19.6582 14.7751H19.6644L21.3974 16.1371Z" fill="#E0E0E2"/>
<path d="M16.1985 12.0513V12.0561C14.8531 12.2039 13.7962 13.0345 13.6082 14.0918H13.6021L11.8691 12.7299C11.152 12.1697 11.1489 11.2582 11.8617 10.6952C12.2071 10.4223 12.6774 10.2693 13.1673 10.2707C13.6541 10.2669 14.1226 10.418 14.4655 10.6894L16.1985 12.0513Z" fill="#E0E0E2"/>
<path d="M21.3974 18.1776C21.1837 18.3456 20.921 18.4697 20.6319 18.5385C20.8291 18.0289 20.6528 17.4754 20.1727 17.0996L18.8683 16.0745C19.297 15.7165 19.5732 15.2622 19.6583 14.7751H19.6644L21.3974 16.1371C22.1139 16.7006 22.1139 17.614 21.3974 18.1776Z" fill="#C6C5CA"/>
<path d="M18.801 20.2181C18.0821 20.7826 16.9174 20.7826 16.1985 20.2181L9.27269 14.7752C8.55378 14.2116 8.55256 13.2973 9.26963 12.7323C9.98671 12.1673 11.1502 12.1663 11.8691 12.7299L18.801 18.1776C19.5175 18.7412 19.5175 19.6546 18.801 20.2181Z" fill="#57A4FF"/>
<path d="M18.801 20.2181C18.455 20.49 17.9859 20.6426 17.4967 20.6416C17.046 20.6426 16.6106 20.5102 16.2781 20.2711C16.3038 20.2547 16.3289 20.2369 16.3515 20.2181C17.068 19.6546 17.068 18.7412 16.3515 18.1776L9.41961 12.7299C9.39696 12.7125 9.37185 12.6962 9.34613 12.6817C9.68109 12.4421 10.1183 12.3102 10.5709 12.3112C11.0565 12.3116 11.5231 12.4618 11.8691 12.7299L18.801 18.1776C19.5174 18.7412 19.5174 19.6546 18.801 20.2181Z" fill="#2488FF"/>
<path d="M16.1984 12.0512V12.056C15.5787 12.1229 15.0006 12.3399 14.545 12.6768L13.2407 11.6518C12.8978 11.3803 12.4293 11.2292 11.9425 11.2331C11.7637 11.2321 11.5861 11.2533 11.4159 11.2956C11.711 10.5328 12.7373 10.1026 13.7079 10.3346C13.9933 10.4029 14.2535 10.5247 14.4654 10.6892L16.1984 12.0512Z" fill="#C6C5CA"/>
<path d="M16.1985 20.2181L13.6204 23.0575C11.8544 24.9993 8.46252 25.5133 5.90469 24.2269C5.20721 23.878 4.61567 23.4131 4.1717 22.865C2.53486 20.8548 3.18887 18.1891 5.65974 16.8012L9.27267 14.7751L16.1985 20.2181Z" fill="#E0E0E2"/>
<path d="M23.9938 16.137C23.6497 16.4079 23.1825 16.56 22.6956 16.5605C22.2419 16.5614 21.804 16.4272 21.4709 16.1851C21.4966 16.1707 21.5217 16.1543 21.5444 16.137C22.2609 15.5715 22.2609 14.6571 21.5444 14.0917L14.6186 8.6487C14.5941 8.62945 14.5696 8.61501 14.5451 8.59576C15.2695 8.08178 16.3797 8.10537 17.068 8.6487L23.9938 14.0917C24.7103 14.6571 24.7103 15.5715 23.9938 16.137Z" fill="#2488FF"/>
<path d="M16.1985 20.2181L13.6204 23.0575C12.2898 24.5205 9.97565 25.2173 7.74176 24.8285C9.12815 24.5989 10.3529 23.9661 11.171 23.0575L13.749 20.2181L7.84586 15.5788L9.27266 14.7751L16.1985 20.2181Z" fill="#C6C5CA"/>
<path d="M5.80674 27.023C6.285 27.3989 6.285 28.0091 5.80674 28.3849C5.32849 28.7608 4.55202 28.7608 4.07376 28.3849L0.613922 25.6611L4.17174 22.865C4.6157 23.4131 5.20724 23.878 5.90472 24.2269L4.07376 25.6611L5.80674 27.023Z" fill="#00B6BD"/>
<path d="M16.6333 16.8397C18.3243 16.8397 19.6951 15.7624 19.6951 14.4335C19.6951 13.1045 18.3243 12.0272 16.6333 12.0272C14.9423 12.0272 13.5715 13.1045 13.5715 14.4335C13.5715 15.7624 14.9423 16.8397 16.6333 16.8397Z" fill="#FFDE55"/>
<path d="M19.695 14.4335C19.6938 15.7622 18.3221 16.8393 16.6314 16.8383C15.5114 16.8378 14.4814 16.3566 13.945 15.5837C14.3932 15.7771 14.8972 15.8782 15.4085 15.8772C17.0992 15.8772 18.4703 14.7997 18.4703 13.471C18.4715 13.0691 18.343 12.6731 18.0968 12.3208C19.0821 12.7414 19.6957 13.5523 19.695 14.4335Z" fill="#FFCD00"/>
<path d="M34.8203 1.50223L33.0874 0.140284C32.9012 -0.00457268 32.6189 -0.0411478 32.3831 0.0488462L28.9172 1.41079C28.8602 1.43629 28.758 1.50223 28.758 1.50223L23.9938 5.24636C23.2786 4.68282 22.1181 4.68185 21.4011 5.24347C21.079 5.49565 20.8879 5.83301 20.8646 6.18961C20.4121 6.20646 19.9841 6.35613 19.6644 6.6083C19.3423 6.85855 19.1543 7.19591 19.1378 7.55156C18.4642 7.57417 17.8622 7.88988 17.5763 8.36968L17.4967 8.30712C16.5285 7.58043 15.005 7.58043 14.0368 8.30712C13.5751 8.6671 13.3173 9.15797 13.3204 9.66906C13.3204 9.71719 13.3326 9.76531 13.3387 9.81825C12.6363 9.77061 11.9419 9.96359 11.4343 10.3476C10.9352 10.7485 10.6811 11.2995 10.7362 11.8588C9.41349 11.7664 8.24572 12.534 8.12814 13.5739C8.08528 13.9508 8.18754 14.329 8.42146 14.6596L5.30455 16.4114C2.71793 17.8556 1.90472 20.5867 3.40623 22.7832L0.179085 25.3194C-0.0597357 25.5085 -0.0597357 25.8136 0.179085 26.0027L3.63892 28.7266C4.35784 29.2911 5.52255 29.2911 6.24146 28.7266C6.95792 28.1611 6.95792 27.2468 6.24146 26.6813L4.94325 25.661L6.00264 24.8333C6.91689 25.2159 7.93709 25.4156 8.97259 25.4156C9.15017 25.4156 9.32163 25.4108 9.49922 25.4012C11.3504 25.2813 13.0399 24.5263 14.1164 23.3366L16.3454 20.887C16.6981 21.0401 17.0937 21.1214 17.4967 21.1228C18.8426 21.1257 19.9363 20.271 19.9406 19.2137C19.9406 19.1651 19.9387 19.1165 19.9338 19.0679C19.989 19.0679 20.0441 19.0823 20.0992 19.0823C21.4396 19.0872 22.5315 18.2368 22.5376 17.1833C22.5376 17.1313 22.5358 17.0794 22.5303 17.0274C22.5854 17.0274 22.6405 17.037 22.6956 17.037C24.0483 17.0351 25.1432 16.1717 25.1408 15.1086C25.1395 14.6014 24.8836 14.1149 24.4286 13.7549L24.349 13.6923C24.9595 13.4676 25.3612 12.9945 25.39 12.4651C25.8425 12.4521 26.2718 12.3044 26.5902 12.0513C26.9111 11.8 27.1015 11.4636 27.123 11.108C28.134 11.0671 28.9117 10.3895 28.8596 9.59495C28.8364 9.23834 28.6453 8.90098 28.3232 8.64881L33.0874 4.90467C33.0874 4.90467 33.1713 4.8243 33.2037 4.77955L34.9367 2.05566C35.053 1.87086 35.0059 1.64804 34.8203 1.50223ZM12.3038 11.031C12.7888 10.6677 13.5518 10.6677 14.0368 11.031L15.0533 11.8299C14.294 12.1138 13.6816 12.5951 13.3204 13.1918L12.3038 12.3929C11.8256 12.0171 11.825 11.4078 12.3026 11.032L12.3038 11.031ZM16.6332 12.5084C17.9859 12.5084 19.0827 13.3704 19.0827 14.4335C19.0827 15.4965 17.9859 16.3585 16.6332 16.3585C15.2805 16.3585 14.1838 15.4965 14.1838 14.4335C14.1838 13.3704 15.2805 12.5084 16.6332 12.5084ZM3.63892 25.3194C3.52625 25.4113 3.46256 25.5335 3.46134 25.661C3.46379 25.7886 3.52686 25.9103 3.63892 26.0027L5.37191 27.3647C5.62848 27.5374 5.65849 27.8416 5.43865 28.0432C5.21882 28.2449 4.8318 28.2685 4.57522 28.0957C4.55134 28.0793 4.52868 28.062 4.50848 28.0432L1.47729 25.661L4.0982 23.6013C4.22679 23.7274 4.36396 23.8477 4.50848 23.9622C4.65544 24.0777 4.80853 24.1836 4.96162 24.2847L3.63892 25.3194ZM13.1244 22.7784C11.4863 24.5768 8.30328 24.9907 6.01488 23.7033C5.78831 23.5758 5.57521 23.4338 5.37803 23.2789C4.31436 22.4511 3.77303 21.2942 3.90224 20.1218C4.02471 18.9486 4.79751 17.8768 6.01488 17.191L9.20529 15.4008L15.4024 20.271L13.1244 22.7784ZM18.3662 19.8764C17.8824 20.2422 17.117 20.2422 16.6332 19.8764L9.70742 14.4335C9.22917 14.0576 9.22855 13.4483 9.7062 13.0725C9.70681 13.072 9.70681 13.072 9.70742 13.0715C10.1912 12.7106 10.9505 12.7106 11.4343 13.0715L12.9713 14.2746C12.9652 14.3276 12.9591 14.3805 12.9591 14.4335C12.9591 16.0283 14.6039 17.321 16.6332 17.321C16.7006 17.321 16.7679 17.3161 16.8353 17.3113L18.3662 18.5193C18.8432 18.8932 18.8438 19.5001 18.368 19.875C18.3674 19.8754 18.3668 19.8759 18.3662 19.8764ZM20.9626 17.8359C20.4788 18.2016 19.7134 18.2016 19.2296 17.8359L18.2131 17.037C18.9724 16.7531 19.5848 16.2718 19.9461 15.6751L20.9626 16.474C21.4488 16.8436 21.4752 17.4418 21.0049 17.8239C20.9957 17.8316 20.9859 17.8393 20.9626 17.8359ZM23.559 15.7954C23.0753 16.1563 22.3159 16.1563 21.8322 15.7954L20.2951 14.5923C20.3013 14.5393 20.3074 14.4864 20.3074 14.4335C20.3074 12.8386 18.6626 11.5459 16.6332 11.5459C16.5659 11.5459 16.4985 11.5508 16.4311 11.5556L14.9002 10.3476C14.4257 9.97225 14.4257 9.36587 14.9002 8.9905C15.384 8.62475 16.1495 8.62475 16.6332 8.9905L22.2608 13.4132H22.2669L23.559 14.4335C24.0373 14.8059 24.041 15.4133 23.567 15.7891C23.5645 15.7911 23.5615 15.7935 23.559 15.7954ZM23.9938 12.7298C23.7605 12.917 23.3778 12.9204 23.1389 12.7366C23.1359 12.7342 23.1328 12.7322 23.1304 12.7298L18.801 9.32737C18.5811 9.12573 18.6111 8.82158 18.8677 8.64881C19.0968 8.49433 19.4354 8.49433 19.6644 8.64881L23.9938 12.0513C24.2338 12.2385 24.2394 12.5402 24.0018 12.7293C23.9999 12.7303 23.9987 12.7313 23.9938 12.7298ZM25.7268 11.3727C25.4861 11.5604 25.0979 11.5604 24.8572 11.3727L20.5278 7.97024C20.289 7.78111 20.289 7.476 20.5278 7.28687C20.6448 7.1988 20.8003 7.14875 20.9626 7.1473C21.1249 7.14779 21.281 7.19784 21.3974 7.28687L25.7268 10.6893C25.9656 10.8784 25.9656 11.1836 25.7268 11.3727ZM27.4598 10.0108C27.2167 10.1936 26.8333 10.1936 26.5902 10.0108L22.2608 6.6083C22.0238 6.41869 22.0238 6.11454 22.2608 5.92493C22.5021 5.73868 22.8891 5.73868 23.1304 5.92493L27.4598 9.32737C27.6986 9.51651 27.6986 9.82162 27.4598 10.0108ZM27.4598 7.97024L24.8572 5.92493L25.7268 5.24636L28.3232 7.28687L27.4598 7.97024ZM29.1927 6.6083L26.5902 4.56298L27.4598 3.88442L30.0562 5.92493L29.1927 6.6083ZM30.9196 5.24636L28.3232 3.20586L29.1927 2.52248L31.7892 4.56298L30.9196 5.24636ZM32.4872 3.75448L30.2215 1.97385L32.5362 1.0691L33.6385 1.93535L32.4872 3.75448Z" fill="black"/>
</svg>
