<svg width="37" height="31" viewBox="0 0 37 31" fill="none" xmlns="http://www.w3.org/2000/svg">
<g clip-path="url(#clip0)">
<path d="M33.9081 7.53992H30.5173V12.7203H33.9081V7.53992Z" fill="#A0B2BA"/>
<path d="M22.0402 18.8425L20.3448 16.4878H15.8237L14.1283 18.8425L5.63839 21.0536C5.2914 21.144 5.01787 21.3677 4.90315 21.655L1.69537 29.6743H34.4732L31.2655 21.6545C31.1508 21.3673 30.8772 21.1436 30.5302 21.0531L22.0402 18.8425Z" fill="#2EA6DB"/>
<g opacity="0.5">
<path opacity="0.5" d="M7.89893 21.0536L16.3889 18.8425L18.0844 16.4878H15.8238L14.1284 18.8425L5.63839 21.0536C5.2914 21.144 5.01787 21.3677 4.90315 21.6545L1.69537 29.6743H3.95591L7.16362 21.6545C7.27898 21.3673 7.5525 21.1436 7.89893 21.0536Z" fill="#237DA4"/>
</g>
<path d="M23.7356 5.65613V13.0919C23.7356 13.4639 23.6034 13.8275 23.3558 14.1369L21.8108 16.0687C21.6011 16.3306 21.2479 16.4879 20.8704 16.4879H15.2982C14.9201 16.4879 14.5674 16.3306 14.3578 16.0683L12.8127 14.1365C12.5652 13.8275 12.4329 13.4639 12.4329 13.0919V5.65613H23.7356Z" fill="#FEA684"/>
<g opacity="0.5">
<path opacity="0.5" d="M16.6184 16.0683L15.0734 14.1365C14.8258 13.8275 14.6936 13.4639 14.6936 13.0919V5.65613H12.433V13.0919C12.433 13.4639 12.5653 13.8275 12.8128 14.1369L14.3579 16.0687C14.5676 16.3306 14.9208 16.4879 15.2983 16.4879H17.5588C17.1813 16.4879 16.8281 16.3306 16.6184 16.0683Z" fill="#BF7D63"/>
</g>
<path d="M22.1601 18.8736L22.0402 18.8425L20.3448 16.4878H15.8238L14.1284 18.8425L14.0086 18.8736L18.0843 21.6682L22.1601 18.8736Z" fill="#FEA684"/>
<g opacity="0.5">
<path opacity="0.5" d="M16.2691 18.8736L16.389 18.8425L18.0843 16.4878H15.8238L14.1284 18.8425L14.0086 18.8736L18.0843 21.6682L19.2146 20.8935L16.2691 18.8736Z" fill="#BF7D63"/>
</g>
<path d="M18.0843 22.1391C17.9565 22.1391 17.8294 22.1033 17.7254 22.0318L13.6497 19.2372C13.4892 19.1274 13.414 18.9527 13.4541 18.7832C13.4875 18.641 13.5965 18.5209 13.748 18.4554L15.3394 16.2448C15.4411 16.1035 15.6254 16.0168 15.8237 16.0168H20.3448C20.5432 16.0168 20.7274 16.1035 20.8291 16.2453L22.4205 18.4559C22.572 18.5213 22.6811 18.6414 22.7144 18.7837C22.754 18.9532 22.6794 19.1274 22.5189 19.2376L18.4431 22.0322C18.3391 22.1033 18.2121 22.1391 18.0843 22.1391ZM14.8088 18.8129L18.0843 21.0583L21.3598 18.8129L20.0249 16.9587H16.1442L14.8088 18.8129Z" fill="black"/>
<path d="M12.4331 12.2494H11.3028C10.6783 12.2494 10.1725 11.8279 10.1725 11.3075V10.3656C10.1725 9.8452 10.6783 9.42371 11.3028 9.42371H12.4331V12.2494Z" fill="#FEA684"/>
<g opacity="0.5">
<path opacity="0.5" d="M12.4331 12.2494H11.3028C10.6783 12.2494 10.1725 11.8279 10.1725 11.3075V10.3656C10.1725 9.8452 10.6783 9.42371 11.3028 9.42371H12.4331V12.2494Z" fill="#BF7D63"/>
</g>
<path d="M24.8659 12.2494H23.7356V9.42371H24.8659C25.4904 9.42371 25.9962 9.8452 25.9962 10.3656V11.3075C25.9962 11.8279 25.4904 12.2494 24.8659 12.2494Z" fill="#FEA684"/>
<path d="M13.0666 13.1913H12.433V5.65613H14.6936L14.1946 12.3082C14.1573 12.8046 13.6633 13.1913 13.0666 13.1913Z" fill="#BD8931"/>
<g opacity="0.5">
<path opacity="0.5" d="M13.0666 13.1913H12.433V5.65613H14.6936L14.1946 12.3082C14.1573 12.8046 13.6633 13.1913 13.0666 13.1913Z" fill="#7E5B21"/>
</g>
<path d="M23.1022 13.1913H23.7356V5.65613H21.4751L21.9741 12.3082C22.0114 12.8046 22.5054 13.1913 23.1022 13.1913Z" fill="#BD8931"/>
<path d="M14.1285 18.8425L12.9982 22.1391H15.2587L18.0843 24.4939V21.6682L14.1285 18.8425Z" fill="#FD3238"/>
<path d="M22.0402 18.8425L23.1705 22.1391H20.91L18.0843 24.4939V21.6682L22.0402 18.8425Z" fill="#FD3238"/>
<path d="M28.8219 27.7905H24.8659C24.554 27.7905 24.3008 27.5795 24.3008 27.3196V26.3777C24.3008 26.1177 24.554 25.9067 24.8659 25.9067H28.8219C29.1338 25.9067 29.387 26.1177 29.387 26.3777V27.3196C29.387 27.5795 29.1338 27.7905 28.8219 27.7905Z" fill="#FD3238"/>
<path d="M28.8218 28.2615H24.8659C24.2426 28.2615 23.7356 27.839 23.7356 27.3196V26.3777C23.7356 25.8582 24.2426 25.4358 24.8659 25.4358H28.8218C29.4452 25.4358 29.9521 25.8582 29.9521 26.3777V27.3196C29.9521 27.839 29.4452 28.2615 28.8218 28.2615ZM24.8659 26.3777V27.3196H28.8224L28.8218 26.3777H24.8659Z" fill="black"/>
<path d="M23.7356 5.65599H12.4329L12.9048 1.33224C12.9574 0.847162 13.4456 0.475586 14.03 0.475586H22.138C22.7223 0.475586 23.2106 0.847162 23.2637 1.33224L23.7356 5.65599Z" fill="#FCB641"/>
<g opacity="0.5">
<path opacity="0.5" d="M16.2907 0.475586H14.0301C13.4458 0.475586 12.9575 0.847162 12.9044 1.33224L12.433 5.65599H14.6936L15.1655 1.33224C15.218 0.847162 15.7063 0.475586 16.2907 0.475586Z" fill="#BD8931"/>
</g>
<path d="M35.6035 15.546C35.6035 16.6673 34.4788 17.9153 33.3429 18.3717V15.546H31.0824V18.3717C29.9465 17.9153 28.8218 16.6673 28.8218 15.546C28.8218 13.9853 30.3398 12.7203 32.2126 12.7203C34.0855 12.7203 35.6035 13.9853 35.6035 15.546Z" fill="#C6D1D6"/>
<path d="M32.2126 8.01072C34.0853 8.01072 35.6035 6.74563 35.6035 5.18505C35.6035 3.62447 34.0853 2.35938 32.2126 2.35938C30.34 2.35938 28.8218 3.62447 28.8218 5.18505C28.8218 6.74563 30.34 8.01072 32.2126 8.01072Z" fill="#D5EDF8"/>
<path d="M32.2126 8.01072C34.0853 8.01072 35.6035 6.74563 35.6035 5.18505C35.6035 3.62447 34.0853 2.35938 32.2126 2.35938C30.34 2.35938 28.8218 3.62447 28.8218 5.18505C28.8218 6.74563 30.34 8.01072 32.2126 8.01072Z" fill="#C6D1D6"/>
<path d="M32.2126 6.12707C32.8369 6.12707 33.3429 5.70537 33.3429 5.18518C33.3429 4.66499 32.8369 4.24329 32.2126 4.24329C31.5884 4.24329 31.0824 4.66499 31.0824 5.18518C31.0824 5.70537 31.5884 6.12707 32.2126 6.12707Z" fill="#F7FBFE"/>
<path d="M32.2126 6.60791C31.2711 6.60791 30.5053 5.96978 30.5053 5.18518C30.5053 4.40058 31.2711 3.76245 32.2126 3.76245C33.1541 3.76245 33.9199 4.40058 33.9199 5.18518C33.9199 5.96978 33.1541 6.60791 32.2126 6.60791ZM32.2126 4.72412C31.9074 4.72412 31.6593 4.93087 31.6593 5.18518C31.6593 5.43949 31.9074 5.64624 32.2126 5.64624C32.5178 5.64624 32.7659 5.43949 32.7659 5.18518C32.7659 4.93087 32.5178 4.72412 32.2126 4.72412Z" fill="black"/>
<path d="M5.65143 17.9007H1.13028L0.565216 13.1913L1.13028 10.3656H5.65143L6.21656 13.1913L5.65143 17.9007Z" fill="#FD3238"/>
<g opacity="0.5">
<path opacity="0.5" d="M2.26055 10.3656H1.13028L0.565216 13.1913L1.13028 17.9007H2.26055L1.69541 13.1913L2.26055 10.3656Z" fill="#BE262A"/>
</g>
<path d="M4.52111 10.3655H2.2605V3.30127L3.39077 2.35938L4.52111 3.30127V10.3655Z" fill="#C6D1D6"/>
<g opacity="0.5">
<path opacity="0.5" d="M3.9559 2.83032L3.39077 2.35938L2.2605 3.30127V10.3655H3.39077V3.30127L3.9559 2.83032Z" fill="#A0B2BA"/>
</g>
<path d="M31.8021 21.5057C31.6303 21.0757 31.2178 20.739 30.6996 20.6038L22.4147 18.4464L21.3076 16.9088C21.7015 16.8212 22.049 16.6191 22.2813 16.3295L23.8264 14.3977C24.1016 14.0529 24.2548 13.6578 24.287 13.2476C24.2909 13.2283 24.3017 13.2114 24.3017 13.1911V13.0917V12.7202H24.8668C25.8015 12.7202 26.5622 12.0863 26.5622 11.3073V10.3654C26.5622 9.5865 25.8015 8.95261 24.8668 8.95261H24.3017V5.65599C24.3017 5.64845 24.2972 5.64186 24.2966 5.63432C24.296 5.62726 24.3005 5.62067 24.2994 5.61313L23.8281 1.28891C23.7478 0.557058 23.0216 0.00463867 22.1389 0.00463867H14.0316C13.1488 0.00463867 12.4226 0.557058 12.3429 1.28985L11.8716 5.6136C11.8711 5.62067 11.875 5.62773 11.8744 5.63479C11.8733 5.64186 11.8688 5.64845 11.8688 5.65599V8.95261H11.3037C10.3689 8.95261 9.60826 9.5865 9.60826 10.3654V11.3073C9.60826 12.0863 10.3689 12.7202 11.3037 12.7202H11.8688V13.0917V13.1911C11.8688 13.2114 11.8795 13.2283 11.8824 13.2476C11.9151 13.6578 12.0677 14.0529 12.3429 14.3977L13.888 16.3295C14.1203 16.6196 14.4678 16.8216 14.8617 16.9088L13.7546 18.4464L5.47091 20.6038C4.95212 20.739 4.53957 21.0757 4.36777 21.5057L1.28892 29.2033H0.000976562V30.1452H1.69638H34.4742H36.1696V29.2033H34.8816L31.8021 21.5057ZM18.0852 21.0479L14.8595 18.7436L16.1446 16.9587H20.0254L21.3105 18.7436L18.0852 21.0479ZM14.4305 19.6779L17.5201 21.8848V23.3569L15.6591 21.8061C15.5535 21.7176 15.4094 21.6681 15.2596 21.6681H13.7484L14.4305 19.6779ZM18.6503 21.8848L21.7399 19.6779L22.422 21.6681H20.9109C20.7611 21.6681 20.617 21.7176 20.5113 21.8061L18.6503 23.3569V21.8848ZM23.1714 9.42355V12.2492V12.7202H23.103C22.8052 12.7202 22.5577 12.5261 22.539 12.2784L22.0773 6.12693H23.1714V9.42355ZM24.8668 9.8945C25.1782 9.8945 25.4319 10.106 25.4319 10.3654V11.3073C25.4319 11.5668 25.1782 11.7783 24.8668 11.7783H24.3017V9.8945H24.8668ZM13.4686 1.37509C13.4946 1.13067 13.7371 0.94653 14.0315 0.94653H22.1395C22.4339 0.94653 22.6758 1.13067 22.7023 1.37462L23.1177 5.18504H21.476H20.5967C20.7911 4.90671 20.9109 4.58788 20.9109 4.24315V2.35937H19.7806V4.24315C19.7806 4.7626 19.2737 5.18504 18.6503 5.18504H17.2059C17.4003 4.90671 17.5201 4.58788 17.5201 4.24315V2.35937H16.3898V4.24315C16.3898 4.7626 15.8829 5.18504 15.2595 5.18504H14.6944H13.0527L13.4686 1.37509ZM12.9991 12.7202V12.2492V9.42355V6.12693H14.0932L13.632 12.2784C13.6128 12.5261 13.3653 12.7202 13.0674 12.7202H12.9991ZM11.3037 11.7783C10.9923 11.7783 10.7385 11.5668 10.7385 11.3073V10.3654C10.7385 10.106 10.9923 9.8945 11.3037 9.8945H11.8688V11.7783H11.3037ZM13.2839 13.8754C13.2279 13.8057 13.1827 13.7318 13.1432 13.6559C14.0016 13.6234 14.7058 13.0588 14.7595 12.3378L15.2251 6.12693H20.9448L21.4105 12.3378C21.4648 13.0588 22.1689 13.6239 23.0268 13.6559C22.9872 13.7318 22.942 13.8057 22.8861 13.8754L21.341 15.8072C21.2365 15.9381 21.0607 16.0168 20.8714 16.0168H20.3457H15.8247H15.2991C15.1098 16.0168 14.934 15.9381 14.8289 15.8072L13.2839 13.8754ZM5.44039 21.8033C5.49747 21.6601 5.6348 21.548 5.80773 21.5028L13.298 19.5522L12.4554 22.0096C12.4068 22.1518 12.4407 22.3044 12.5475 22.4226C12.6543 22.5408 12.8216 22.61 12.9991 22.61H15.0256L17.5201 24.6888V29.2033H2.48022L5.44039 21.8033ZM18.6503 29.2033V24.6888L21.1448 22.61H23.1714C23.3489 22.61 23.5156 22.5408 23.6224 22.4226C23.7292 22.3044 23.7637 22.1518 23.7145 22.0096L22.8719 19.5522L30.3622 21.5028C30.5351 21.5476 30.6724 21.6601 30.7295 21.8033L33.6902 29.2033H18.6503Z" fill="black"/>
<path d="M11.3028 26.3777H10.1725V27.3196H9.04222V25.4358H7.91195V27.3196H6.78168V28.2615H12.433V27.3196H11.3028V26.3777Z" fill="black"/>
<path d="M28.2448 15.5459C28.2448 16.9163 29.5875 18.3042 30.8314 18.8043C31.0094 18.875 31.2202 18.8665 31.3886 18.7784C31.5571 18.6904 31.6588 18.5368 31.6588 18.3715V16.0267H32.7659V18.3715C32.7659 18.5368 32.8676 18.6908 33.036 18.7784C33.1298 18.8274 33.2361 18.8519 33.3429 18.8519C33.4282 18.8519 33.5141 18.8359 33.5932 18.8043C34.8371 18.3042 36.1799 16.9163 36.1799 15.5459C36.1799 14.4269 35.5079 13.4379 34.4845 12.8393V7.87933C35.5017 7.28217 36.1686 6.29789 36.1686 5.18505C36.1686 3.3672 34.394 1.88843 32.2126 1.88843C30.0312 1.88843 28.2566 3.3672 28.2566 5.18505C28.2566 6.29789 28.9235 7.28217 29.9402 7.87933V12.8393C28.9173 13.4379 28.2448 14.4269 28.2448 15.5459ZM35.0264 15.5459C35.0264 16.2099 34.5302 16.9333 33.9193 17.4343V15.5459C33.9193 15.2807 33.6611 15.065 33.3423 15.065H31.0818C30.7636 15.065 30.5048 15.2802 30.5048 15.5459V17.4343C29.8939 16.9328 29.3977 16.2099 29.3977 15.5459C29.3977 14.2526 30.6602 13.201 32.2115 13.201C33.7628 13.201 35.0264 14.2526 35.0264 15.5459ZM29.3869 5.18505C29.3869 3.88665 30.6545 2.83032 32.2126 2.83032C33.7707 2.83032 35.0383 3.88665 35.0383 5.18505C35.0383 6.48344 33.7707 7.53978 32.2126 7.53978C30.6545 7.53978 29.3869 6.48344 29.3869 5.18505ZM31.0942 8.34509C31.4491 8.43269 31.8238 8.48167 32.2126 8.48167C32.6014 8.48167 32.9761 8.43269 33.331 8.34509V12.3754C32.9755 12.2883 32.6009 12.2393 32.2126 12.2393C31.8244 12.2393 31.4491 12.2883 31.0942 12.3754V8.34509Z" fill="black"/>
<path d="M32.2126 6.60791C33.1541 6.60791 33.9199 5.96978 33.9199 5.18518C33.9199 4.40058 33.1541 3.76245 32.2126 3.76245C31.2711 3.76245 30.5053 4.40058 30.5053 5.18518C30.5053 5.96978 31.2711 6.60791 32.2126 6.60791ZM32.2126 4.72412C32.5178 4.72412 32.7659 4.93087 32.7659 5.18518C32.7659 5.43949 32.5178 5.64624 32.2126 5.64624C31.9074 5.64624 31.6593 5.43949 31.6593 5.18518C31.6593 4.93087 31.9074 4.72412 32.2126 4.72412Z" fill="black"/>
<path d="M1.12979 18.3716H5.65086C5.94134 18.3716 6.18435 18.1884 6.21317 17.9478L6.77831 13.2383C6.78339 13.1969 6.7817 13.155 6.77322 13.114L6.20809 10.2883C6.16288 10.0613 5.92722 9.89462 5.65086 9.89462H5.08573V3.30138C5.08573 3.17658 5.02639 3.05649 4.92015 2.96842L3.78988 2.02653C3.56891 1.84239 3.21174 1.84239 2.99077 2.02653L1.86051 2.96842C1.75426 3.05649 1.69492 3.17658 1.69492 3.30138V9.89462H1.12979C0.853435 9.89462 0.617774 10.0613 0.572563 10.2879L0.00742841 13.1135C-0.00104861 13.1545 -0.00274402 13.1964 0.0023422 13.2379L0.567477 17.9473C0.596369 18.1884 0.839377 18.3716 1.12979 18.3716ZM2.82519 3.49635L3.39033 3.02541L3.95546 3.49635V9.89462H2.82519V3.49635ZM1.60846 10.8365H2.26006H4.5206H5.17219L5.64634 13.2073L5.13942 17.4298H3.95546V13.1912H2.82519V17.4298H1.64123L1.13487 13.2073L1.60846 10.8365Z" fill="black"/>
</g>
<defs>
<clipPath id="clip0">
<rect width="36.18" height="30.15" fill="white"/>
</clipPath>
</defs>
</svg>
