<svg width="37" height="31" viewBox="0 0 37 31" fill="none" xmlns="http://www.w3.org/2000/svg">
<g clip-path="url(#clip0)">
<path d="M27.135 8.00854H22.6125C22.2999 8.00854 22.0472 7.79749 22.0472 7.53745V6.59526C22.0472 6.07565 22.5543 5.65308 23.1778 5.65308H26.5697C27.1932 5.65308 27.7003 6.07565 27.7003 6.59526V7.53745C27.7003 7.79749 27.4476 8.00854 27.135 8.00854ZM23.1778 7.06636H26.5697V6.59526H23.1778V7.06636Z" fill="black"/>
<path d="M13.5675 22.1414H9.045C8.73295 22.1414 8.47969 21.9303 8.47969 21.6703V15.075C8.47969 14.8149 8.73295 14.6039 9.045 14.6039H13.5675C13.8796 14.6039 14.1328 14.8149 14.1328 15.075V21.6703C14.1328 21.9303 13.8796 22.1414 13.5675 22.1414Z" fill="#FD3238"/>
<path d="M9.61031 21.6703V15.075C9.61031 14.8149 9.86357 14.6039 10.1756 14.6039H9.045C8.73295 14.6039 8.47969 14.8149 8.47969 15.075V21.6703C8.47969 21.9303 8.73295 22.1414 9.045 22.1414H10.1756C9.86357 22.1414 9.61031 21.9303 9.61031 21.6703Z" fill="#BE262A"/>
<path d="M11.3063 29.6789C12.5551 29.6789 13.5675 28.8352 13.5675 27.7945C13.5675 26.7538 12.5551 25.9102 11.3063 25.9102C10.0574 25.9102 9.045 26.7538 9.045 27.7945C9.045 28.8352 10.0574 29.6789 11.3063 29.6789Z" fill="#A0B2BA"/>
<g opacity="0.5">
<path opacity="0.5" d="M10.1756 27.7945C10.1756 26.9174 10.8981 26.1867 11.8716 25.9766C11.6901 25.9375 11.5024 25.9102 11.3063 25.9102C10.0575 25.9102 9.045 26.7539 9.045 27.7945C9.045 28.8352 10.0575 29.6789 11.3063 29.6789C11.5024 29.6789 11.6901 29.6516 11.8716 29.6125C10.8981 29.4019 10.1756 28.6717 10.1756 27.7945Z" fill="#78858B"/>
</g>
<path d="M12.4369 24.0258H10.1756V25.9101H12.4369V24.0258Z" fill="#D5EDF8"/>
<g opacity="0.5">
<path opacity="0.5" d="M11.3062 24.0258H10.1756V25.9101H11.3062V24.0258Z" fill="#A0B2BA"/>
</g>
<path d="M13.5675 22.1414H9.045V23.5546C9.045 23.8147 9.29826 24.0257 9.61031 24.0257H13.0022C13.3142 24.0257 13.5675 23.8147 13.5675 23.5546V22.1414Z" fill="#FCB641"/>
<g opacity="0.5">
<path opacity="0.5" d="M10.1756 22.1414H9.045V23.5546C9.045 23.8147 9.29826 24.0257 9.61031 24.0257H10.1756V22.1414Z" fill="#BD8931"/>
</g>
<path d="M11.3063 4.23982C12.5551 4.23982 13.5675 3.39616 13.5675 2.35544C13.5675 1.31473 12.5551 0.471069 11.3063 0.471069C10.0574 0.471069 9.045 1.31473 9.045 2.35544C9.045 3.39616 10.0574 4.23982 11.3063 4.23982Z" fill="#A0B2BA"/>
<g opacity="0.5">
<path opacity="0.5" d="M10.1756 2.35544C10.1756 1.47827 10.8981 0.747601 11.8716 0.537494C11.6901 0.498393 11.5024 0.471069 11.3063 0.471069C10.0575 0.471069 9.045 1.3148 9.045 2.35544C9.045 3.39609 10.0575 4.23982 11.3063 4.23982C11.5024 4.23982 11.6901 4.2125 11.8716 4.1734C10.8981 3.96282 10.1756 3.23262 10.1756 2.35544Z" fill="#78858B"/>
</g>
<path d="M12.4369 4.23987H10.1756V6.12424H12.4369V4.23987Z" fill="#D5EDF8"/>
<g opacity="0.5">
<path opacity="0.5" d="M11.3062 4.23987H10.1756V6.12424H11.3062V4.23987Z" fill="#A0B2BA"/>
</g>
<path d="M13.5675 7.53755H9.045V6.59536C9.045 6.33532 9.29826 6.12427 9.61031 6.12427H13.0022C13.3142 6.12427 13.5675 6.33532 13.5675 6.59536V7.53755Z" fill="#A0B2BA"/>
<g opacity="0.5">
<path opacity="0.5" d="M10.1756 6.5068C10.1756 6.34474 10.2802 6.20859 10.4295 6.12427H9.61031C9.29826 6.12427 9.045 6.33532 9.045 6.59536V7.53755H10.1756V6.5068Z" fill="#78858B"/>
</g>
<path d="M13.5675 13.1907H9.045V14.604H13.5675V13.1907Z" fill="#FCB641"/>
<g opacity="0.5">
<path opacity="0.5" d="M10.1756 13.1907H9.045V14.604H10.1756V13.1907Z" fill="#BD8931"/>
</g>
<path d="M15.2634 12.7195H13.5675H9.045H7.34906C7.03645 12.7195 6.78375 12.9305 6.78375 13.1906C6.78375 13.4506 7.03645 13.6617 7.34906 13.6617H8.47969V14.2637C8.14333 14.4272 7.91438 14.7278 7.91438 15.075V21.6703C7.91438 22.0175 8.14333 22.318 8.47969 22.4815V23.5546C8.47969 24.0743 8.98677 24.4968 9.61031 24.4968V25.9101C9.61031 25.9139 9.61257 25.9167 9.61257 25.9205C8.92911 26.3506 8.47969 27.0271 8.47969 27.7945C8.47969 29.0933 9.74768 30.15 11.3063 30.15C12.8648 30.15 14.1328 29.0933 14.1328 27.7945C14.1328 27.0271 13.6834 26.3506 12.9999 25.9205C12.9999 25.9167 13.0022 25.9139 13.0022 25.9101V24.4968C13.6257 24.4968 14.1328 24.0743 14.1328 23.5546V22.4815C14.4692 22.318 14.6981 22.0175 14.6981 21.6703V15.075C14.6981 14.7278 14.4692 14.4272 14.1328 14.2637V13.6617H15.2634C15.5761 13.6617 15.8288 13.4506 15.8288 13.1906C15.8288 12.9305 15.5761 12.7195 15.2634 12.7195ZM13.5681 21.6703H9.045V15.075H13.5675L13.5681 21.6703ZM11.3063 29.2078C10.3712 29.2078 9.61031 28.5737 9.61031 27.7945C9.61031 27.0153 10.3712 26.3812 11.3063 26.3812C12.2413 26.3812 13.0022 27.0153 13.0022 27.7945C13.0022 28.5737 12.2413 29.2078 11.3063 29.2078ZM11.8716 25.439H10.7409V24.4968H11.8716V25.439ZM13.0022 23.5546H12.4369H10.1756H9.61031V22.6125H13.0022V23.5546ZM13.0022 14.1328H9.61031V13.6617H13.0022V14.1328Z" fill="black"/>
<path d="M15.2634 12.2485H7.34906C7.03645 12.2485 6.78375 12.0374 6.78375 11.7774C6.78375 11.5173 7.03645 11.3063 7.34906 11.3063H15.2634C15.5761 11.3063 15.8288 11.5173 15.8288 11.7774C15.8288 12.0374 15.5761 12.2485 15.2634 12.2485Z" fill="black"/>
<path d="M15.2634 10.8351H7.34906C7.03645 10.8351 6.78375 10.6241 6.78375 10.364C6.78375 10.104 7.03645 9.89294 7.34906 9.89294H15.2634C15.5761 9.89294 15.8288 10.104 15.8288 10.364C15.8288 10.6241 15.5761 10.8351 15.2634 10.8351Z" fill="black"/>
<path d="M15.2634 9.42192H7.34906C7.03645 9.42192 6.78375 9.21087 6.78375 8.95083C6.78375 8.69079 7.03645 8.47974 7.34906 8.47974H15.2634C15.5761 8.47974 15.8288 8.69079 15.8288 8.95083C15.8288 9.21087 15.5761 9.42192 15.2634 9.42192Z" fill="black"/>
<path d="M15.2634 7.06641H14.1328V6.59531C14.1328 6.0757 13.6257 5.65312 13.0022 5.65312V4.23984C13.0022 4.23607 12.9999 4.23325 12.9999 4.22948C13.6834 3.79937 14.1328 3.12288 14.1328 2.35547C14.1328 1.05666 12.8648 0 11.3063 0C9.74768 0 8.47969 1.05666 8.47969 2.35547C8.47969 3.12288 8.92911 3.79937 9.61257 4.22948C9.61257 4.23325 9.61031 4.23607 9.61031 4.23984V5.65312C8.98677 5.65312 8.47969 6.0757 8.47969 6.59531V7.06641H7.34906C7.03645 7.06641 6.78375 7.27746 6.78375 7.5375C6.78375 7.79754 7.03645 8.00859 7.34906 8.00859H9.045H13.5675H15.2634C15.5761 8.00859 15.8288 7.79754 15.8288 7.5375C15.8288 7.27746 15.5761 7.06641 15.2634 7.06641ZM11.3063 0.942187C12.2413 0.942187 13.0022 1.57628 13.0022 2.35547C13.0022 3.13466 12.2413 3.76875 11.3063 3.76875C10.3712 3.76875 9.61031 3.13466 9.61031 2.35547C9.61031 1.57628 10.3712 0.942187 11.3063 0.942187ZM10.7409 4.71094H11.8716V5.65312H10.7409V4.71094ZM9.61031 7.06641V6.59531H10.1756H12.4369H13.0022V7.06641H9.61031Z" fill="black"/>
<path d="M11.8716 16.9594H10.7409C10.4283 16.9594 10.1756 16.7484 10.1756 16.4883C10.1756 16.2283 10.4283 16.0172 10.7409 16.0172H11.8716C12.1842 16.0172 12.4369 16.2283 12.4369 16.4883C12.4369 16.7484 12.1842 16.9594 11.8716 16.9594Z" fill="black"/>
<path d="M11.8716 18.8438H10.7409C10.4283 18.8438 10.1756 18.6327 10.1756 18.3727C10.1756 18.1127 10.4283 17.9016 10.7409 17.9016H11.8716C12.1842 17.9016 12.4369 18.1127 12.4369 18.3727C12.4369 18.6327 12.1842 18.8438 11.8716 18.8438Z" fill="black"/>
<path d="M11.8716 20.7281H10.7409C10.4283 20.7281 10.1756 20.517 10.1756 20.257C10.1756 19.9969 10.4283 19.7859 10.7409 19.7859H11.8716C12.1842 19.7859 12.4369 19.9969 12.4369 20.257C12.4369 20.517 12.1842 20.7281 11.8716 20.7281Z" fill="black"/>
<path d="M11.8716 27.3235H10.7409V28.2657H11.8716V27.3235Z" fill="black"/>
<path d="M11.8716 1.8844H10.7409V2.82659H11.8716V1.8844Z" fill="black"/>
<path d="M27.135 22.1414H22.6125C22.3004 22.1414 22.0472 21.9303 22.0472 21.6703V15.075C22.0472 14.8149 22.3004 14.6039 22.6125 14.6039H27.135C27.4471 14.6039 27.7003 14.8149 27.7003 15.075V21.6703C27.7003 21.9303 27.4471 22.1414 27.135 22.1414Z" fill="#FD3238"/>
<path d="M24.8737 29.6789C26.1226 29.6789 27.135 28.8352 27.135 27.7945C27.135 26.7538 26.1226 25.9102 24.8737 25.9102C23.6249 25.9102 22.6125 26.7538 22.6125 27.7945C22.6125 28.8352 23.6249 29.6789 24.8737 29.6789Z" fill="#A0B2BA"/>
<path d="M26.0044 24.0258H23.7431V25.9101H26.0044V24.0258Z" fill="#D5EDF8"/>
<path d="M27.135 22.1414H22.6125V23.5546C22.6125 23.8147 22.8658 24.0257 23.1778 24.0257H26.5697C26.8817 24.0257 27.135 23.8147 27.135 23.5546V22.1414Z" fill="#FCB641"/>
<path d="M24.8737 4.23982C26.1226 4.23982 27.135 3.39616 27.135 2.35544C27.135 1.31473 26.1226 0.471069 24.8737 0.471069C23.6249 0.471069 22.6125 1.31473 22.6125 2.35544C22.6125 3.39616 23.6249 4.23982 24.8737 4.23982Z" fill="#A0B2BA"/>
<path d="M26.0044 4.23987H23.7431V6.12424H26.0044V4.23987Z" fill="#D5EDF8"/>
<path d="M27.135 7.53755H22.6125V6.59536C22.6125 6.33532 22.8658 6.12427 23.1778 6.12427H26.5697C26.8817 6.12427 27.135 6.33532 27.135 6.59536V7.53755Z" fill="#A0B2BA"/>
<path d="M27.135 13.1907H22.6125V14.604H27.135V13.1907Z" fill="#FCB641"/>
<path d="M28.8309 12.2485H20.9166C20.6039 12.2485 20.3512 12.0374 20.3512 11.7774C20.3512 11.5173 20.6039 11.3063 20.9166 11.3063H28.8309C29.1436 11.3063 29.3962 11.5173 29.3962 11.7774C29.3962 12.0374 29.1436 12.2485 28.8309 12.2485Z" fill="black"/>
<path d="M28.8309 10.8351H20.9166C20.6039 10.8351 20.3512 10.6241 20.3512 10.364C20.3512 10.104 20.6039 9.89294 20.9166 9.89294H28.8309C29.1436 9.89294 29.3962 10.104 29.3962 10.364C29.3962 10.6241 29.1436 10.8351 28.8309 10.8351Z" fill="black"/>
<path d="M28.8309 9.42192H20.9166C20.6039 9.42192 20.3512 9.21087 20.3512 8.95083C20.3512 8.69079 20.6039 8.47974 20.9166 8.47974H28.8309C29.1436 8.47974 29.3962 8.69079 29.3962 8.95083C29.3962 9.21087 29.1436 9.42192 28.8309 9.42192Z" fill="black"/>
<path d="M28.8309 12.7195H27.135H22.6125H20.9166C20.6039 12.7195 20.3512 12.9305 20.3512 13.1906C20.3512 13.4506 20.6039 13.6617 20.9166 13.6617H22.0472V14.2637C21.7108 14.4272 21.4819 14.7278 21.4819 15.075V21.6703C21.4819 22.0175 21.7108 22.318 22.0472 22.4815V23.5546C22.0472 24.0743 22.5543 24.4968 23.1778 24.4968V25.9101C23.1778 25.9139 23.1801 25.9167 23.1801 25.9205C22.4966 26.3506 22.0472 27.0271 22.0472 27.7945C22.0472 29.0933 23.3152 30.15 24.8737 30.15C26.4323 30.15 27.7003 29.0933 27.7003 27.7945C27.7003 27.0271 27.2509 26.3506 26.5674 25.9205C26.5674 25.9167 26.5697 25.9139 26.5697 25.9101V24.4968C27.1932 24.4968 27.7003 24.0743 27.7003 23.5546V22.4815C28.0367 22.318 28.2656 22.0175 28.2656 21.6703V15.075C28.2656 14.7278 28.0367 14.4272 27.7003 14.2637V13.6617H28.8309C29.1436 13.6617 29.3962 13.4506 29.3962 13.1906C29.3962 12.9305 29.1436 12.7195 28.8309 12.7195ZM27.1356 21.6703H22.6125V15.075H27.135L27.1356 21.6703ZM24.8737 29.2078C23.9387 29.2078 23.1778 28.5737 23.1778 27.7945C23.1778 27.0153 23.9387 26.3812 24.8737 26.3812C25.8088 26.3812 26.5697 27.0153 26.5697 27.7945C26.5697 28.5737 25.8088 29.2078 24.8737 29.2078ZM25.4391 25.439H24.3084V24.4968H25.4391V25.439ZM26.5697 23.5546H26.0044H23.7431H23.1778V22.6125H26.5697V23.5546ZM26.5697 14.1328H23.1778V13.6617H26.5697V14.1328Z" fill="black"/>
<path d="M20.9166 8.00859H22.6125H27.135H28.8309C29.1436 8.00859 29.3962 7.79754 29.3962 7.5375C29.3962 7.27746 29.1436 7.06641 28.8309 7.06641H27.7003V6.59531C27.7003 6.0757 27.1932 5.65312 26.5697 5.65312V4.23984C26.5697 4.23607 26.5674 4.23325 26.5674 4.22948C27.2509 3.79937 27.7003 3.12288 27.7003 2.35547C27.7003 1.05666 26.4323 0 24.8737 0C23.3152 0 22.0472 1.05666 22.0472 2.35547C22.0472 3.12288 22.4966 3.79937 23.1801 4.22948C23.1801 4.23325 23.1778 4.23607 23.1778 4.23984V5.65312C22.5543 5.65312 22.0472 6.0757 22.0472 6.59531V7.06641H20.9166C20.6039 7.06641 20.3512 7.27746 20.3512 7.5375C20.3512 7.79754 20.6039 8.00859 20.9166 8.00859ZM24.8737 0.942187C25.8088 0.942187 26.5697 1.57628 26.5697 2.35547C26.5697 3.13466 25.8088 3.76875 24.8737 3.76875C23.9387 3.76875 23.1778 3.13466 23.1778 2.35547C23.1778 1.57628 23.9387 0.942187 24.8737 0.942187ZM24.3084 4.71094H25.4391V5.65312H24.3084V4.71094ZM23.1778 6.59531H23.7431H26.0044H26.5697V7.06641H23.1778V6.59531Z" fill="black"/>
<path d="M25.4391 16.9594H24.3084C23.9958 16.9594 23.7431 16.7484 23.7431 16.4883C23.7431 16.2283 23.9958 16.0172 24.3084 16.0172H25.4391C25.7517 16.0172 26.0044 16.2283 26.0044 16.4883C26.0044 16.7484 25.7517 16.9594 25.4391 16.9594Z" fill="black"/>
<path d="M25.4391 18.8438H24.3084C23.9958 18.8438 23.7431 18.6327 23.7431 18.3727C23.7431 18.1127 23.9958 17.9016 24.3084 17.9016H25.4391C25.7517 17.9016 26.0044 18.1127 26.0044 18.3727C26.0044 18.6327 25.7517 18.8438 25.4391 18.8438Z" fill="black"/>
<path d="M25.4391 20.7281H24.3084C23.9958 20.7281 23.7431 20.517 23.7431 20.257C23.7431 19.9969 23.9958 19.7859 24.3084 19.7859H25.4391C25.7517 19.7859 26.0044 19.9969 26.0044 20.257C26.0044 20.517 25.7517 20.7281 25.4391 20.7281Z" fill="black"/>
<path d="M25.4391 27.3235H24.3084V28.2657H25.4391V27.3235Z" fill="black"/>
<path d="M25.4391 1.8844H24.3084V2.82659H25.4391V1.8844Z" fill="black"/>
</g>
<defs>
<clipPath id="clip0">
<rect width="36.18" height="30.15" fill="white"/>
</clipPath>
</defs>
</svg>
