<svg width="37" height="31" viewBox="0 0 37 31" fill="none" xmlns="http://www.w3.org/2000/svg">
<g clip-path="url(#clip0)">
<path d="M1.12748 13.1959H0V14.1355H1.12748V13.1959Z" fill="#B3B3B3"/>
<path d="M2.8187 22.5916H0V21.6521H2.41224L2.78826 20.7125L2.41224 19.7729H0V18.8334H2.8187C3.06167 18.8334 3.27646 18.9626 3.35313 19.1547L3.91687 20.5641C3.95577 20.6604 3.95577 20.7651 3.91687 20.8614L3.35313 22.2708C3.27646 22.4625 3.06167 22.5916 2.8187 22.5916Z" fill="#B3B3B3"/>
<path d="M2.25496 24.4707H0V25.4103H2.25496V24.4707Z" fill="#B3B3B3"/>
<path d="M10.1473 7.55853H5.28958L4.50541 2.33266C4.50259 2.3134 4.49075 2.29742 4.48512 2.27863L4.49301 2.27722L4.03582 0.754184C3.91067 0.334667 3.4608 0.0419922 2.94216 0.0419922H0V0.981559H2.94272L3.22459 1.92113H0V2.86069H3.4484L4.71681 11.3168H0V12.2564H4.85775L4.99868 13.1959H2.25496V14.1355H5.6374H6.76488V16.4332L4.62154 24.4707H3.38244V25.4103H5.07366C5.33298 25.4103 5.5551 25.2623 5.61824 25.0537L5.61993 25.0542L5.62331 25.0439C5.62331 25.0434 5.62387 25.0429 5.62387 25.0425L5.62613 25.0345L5.79581 24.4707H7.67363L6.92217 26.3499H5.07366H1.69122H0V27.2894H1.12748V30.1081H2.25496V27.2894H4.50992V30.1081H5.6374V27.2894H6.92217C7.40811 27.2894 7.83824 27.0311 7.99102 26.6472L8.98997 24.1499C9.04803 24.0066 9.01872 23.8487 8.91273 23.7266C8.80731 23.6035 8.63706 23.5312 8.4561 23.5312H6.02695L7.87883 16.5864C7.88785 16.553 7.89236 16.5187 7.89236 16.4844V13.6657C7.89236 13.4059 7.64037 13.1959 7.32862 13.1959H6.13519L6.05683 12.6745L9.1123 12.2503C9.28988 12.2254 9.44321 12.1314 9.52383 11.997L10.6513 10.1179C10.6908 10.0526 10.7111 9.98026 10.7111 9.90745V8.02831C10.7111 7.76852 10.4591 7.55853 10.1473 7.55853ZM9.58358 9.79658L8.64383 11.3628L5.91702 11.7415L5.71238 10.3772H7.89236V9.43766H5.57144L5.43051 8.4981H9.58358V9.79658Z" fill="#B3B3B3"/>
<path d="M27.0595 18.8333V29.1685C27.0595 29.4278 27.3121 29.6383 27.6233 29.6383H29.6353C29.907 29.6383 30.1398 29.4767 30.1894 29.2545L31.5695 23.0613V18.8333" fill="#2EA6DB"/>
<path d="M28.7508 12.2563L34.263 7.83377L27.0877 1.85437L18.7168 8.83019C17.8362 9.56399 17.8362 10.754 18.7168 11.4878L21.6138 13.902L23.1134 12.2563H28.7508Z" fill="#FD3238"/>
<path d="M19.8442 9.76963L28.2152 2.79382L34.263 7.83365L27.0877 1.85425L18.7168 8.83006C17.8362 9.56386 17.8362 10.7538 18.7168 11.4876L19.8442 12.4272C18.9637 11.6934 18.9637 10.5034 19.8442 9.76963Z" fill="#BE262A"/>
<path d="M26.6892 1.52213L34.6616 8.1658L35.4588 7.50153C35.6792 7.31784 35.6792 7.02047 35.4588 6.83725L28.2841 0.857857C28.0636 0.674171 27.7068 0.674171 27.4869 0.857857L26.6892 1.52213Z" fill="#BE262A"/>
<path d="M19.1672 19.3031L14.6572 18.8333V16.0146L19.1672 15.5448V19.3031Z" fill="#2EA6DB"/>
<g opacity="0.5">
<path opacity="0.5" d="M14.6572 16.0146V16.9542L19.1672 16.4844V15.5448L14.6572 16.0146Z" fill="#237DA4"/>
</g>
<path d="M21.4221 19.3031L30.442 18.8333V16.0146L21.4221 15.5448V19.3031Z" fill="#FCB641"/>
<path d="M20.8584 20.2426H19.7309C19.4197 20.2426 19.1672 20.0322 19.1672 19.7729V15.075C19.1672 14.8157 19.4197 14.6052 19.7309 14.6052H20.8584C21.1696 14.6052 21.4221 14.8157 21.4221 15.075V19.7729C21.4221 20.0322 21.1696 20.2426 20.8584 20.2426Z" fill="#FD3238"/>
<path d="M21.4221 15.5448V14.6053L22.7847 12.7125C22.9888 12.4297 23.3558 12.2563 23.7515 12.2563H28.187V15.8972L21.4221 15.5448Z" fill="#2EA6DB"/>
<g opacity="0.5">
<path opacity="0.5" d="M21.9859 15.5448L23.3484 13.6521C23.5525 13.3693 23.9195 13.1959 24.3152 13.1959H28.187V12.2563H23.7515C23.3552 12.2563 22.9882 12.4297 22.7847 12.7125L21.4221 14.6053V15.5448L21.9859 15.574V15.5448Z" fill="#237DA4"/>
</g>
<path d="M25.9321 13.6704H24.8046V14.5992H25.9321V13.6704Z" fill="black"/>
<path d="M33.8244 18.3634L32.6231 18.8332H30.442V16.0145H32.7573L33.8244 16.4843V18.3634Z" fill="#FD3238"/>
<path d="M35.5156 17.8937V16.9542C35.5156 16.6948 35.2631 16.4844 34.9519 16.4844H33.8244V18.3635H34.9519C35.2631 18.3635 35.5156 18.153 35.5156 17.8937Z" fill="#FCB641"/>
<path d="M27.0595 27.7591H23.6771C23.3659 27.7591 23.1133 27.5487 23.1133 27.2894V26.3498L27.0595 25.88V27.7591Z" fill="#FD3238"/>
<path d="M14.6572 18.3635L12.966 17.8937V16.9542L14.6572 16.4844V18.3635Z" fill="#FCB641"/>
<path d="M17.4759 16.9589H16.3485V17.8876H17.4759V16.9589Z" fill="black"/>
<path d="M31.5695 23.0613H31.0057C30.3828 23.0613 29.8782 22.6409 29.8782 22.1218V21.652C29.8782 21.1329 30.3828 20.7124 31.0057 20.7124H31.5695V23.0613Z" fill="#FCB641"/>
<path d="M11.2748 16.9541H10.1473V17.8937H11.2748V16.9541Z" fill="black"/>
<path d="M11.8385 14.6052H10.7111V15.5448H11.8385V14.6052Z" fill="black"/>
<path d="M9.58358 13.6656H8.4561V14.6052H9.58358V13.6656Z" fill="black"/>
<path d="M7.32862 12.7261H6.20114V13.6656H7.32862V12.7261Z" fill="black"/>
<path d="M7.32862 21.1821H6.20114V22.1217H7.32862V21.1821Z" fill="black"/>
<path d="M9.58358 20.2427H8.4561V21.1822H9.58358V20.2427Z" fill="black"/>
<path d="M11.8385 19.3031H10.7111V20.2427H11.8385V19.3031Z" fill="black"/>
<path d="M9.01984 16.9541H7.89236V17.8937H9.01984V16.9541Z" fill="black"/>
<path d="M6.76488 16.9541H5.6374V17.8937H6.76488V16.9541Z" fill="black"/>
<path d="M25.9321 9.90744C26.8661 9.90744 27.6233 9.27645 27.6233 8.49809C27.6233 7.71973 26.8661 7.08875 25.9321 7.08875C24.998 7.08875 24.2408 7.71973 24.2408 8.49809C24.2408 9.27645 24.998 9.90744 25.9321 9.90744Z" fill="#FCB641"/>
<path d="M25.932 10.3772C24.6884 10.3772 23.6771 9.53438 23.6771 8.49803C23.6771 7.46169 24.6884 6.6189 25.932 6.6189C27.1757 6.6189 28.187 7.46169 28.187 8.49803C28.187 9.53438 27.1757 10.3772 25.932 10.3772ZM25.932 7.55847C25.3102 7.55847 24.8046 7.97986 24.8046 8.49803C24.8046 9.01621 25.3102 9.4376 25.932 9.4376C26.5539 9.4376 27.0595 9.01621 27.0595 8.49803C27.0595 7.97986 26.5539 7.55847 25.932 7.55847Z" fill="black"/>
<path d="M34.9519 16.0201H33.9631L33.0177 15.6039C32.9371 15.5687 32.848 15.5504 32.7573 15.5504H30.4589L28.744 15.4611V12.9233L34.2563 8.48528L34.2675 8.49468C34.3763 8.58488 34.519 8.63045 34.6616 8.63045C34.8042 8.63045 34.9468 8.58488 35.0556 8.49468L35.8528 7.8304C36.2891 7.46632 36.2891 6.87346 35.8528 6.50937L28.678 0.529029C28.4661 0.35286 28.1848 0.255615 27.8854 0.255615C27.8849 0.255615 27.8849 0.255615 27.8843 0.255615C27.585 0.255615 27.3036 0.35286 27.0934 0.529029L26.2957 1.1933C26.1908 1.28068 26.1322 1.3986 26.1322 1.52168C26.1322 1.64477 26.1908 1.76315 26.2951 1.85006L26.2996 1.85382L18.3233 8.50126C17.2273 9.41498 17.2273 10.9018 18.3233 11.816L21.1093 14.1377L21.0918 14.1617C21.0168 14.1485 20.939 14.141 20.859 14.141H19.7315C19.1131 14.141 18.6108 14.5601 18.6108 15.0749V15.1351L14.5885 15.5541C14.31 15.5832 14.1008 15.7806 14.1008 16.0145V16.1498L12.7907 16.5139C12.5635 16.5773 12.4096 16.7544 12.4096 16.9545V17.8941C12.4096 18.0942 12.563 18.2713 12.7907 18.3348L14.1008 18.6988V18.8332C14.1008 19.0672 14.31 19.2649 14.5885 19.2936L18.6108 19.7126V19.7728C18.6108 20.2881 19.1136 20.7067 19.7315 20.7067H20.859C21.4774 20.7067 21.9797 20.2877 21.9797 19.7728V19.7389L23.1201 19.6798V23.2445L21.173 24.0558L21.6719 24.8864L23.9268 23.9468C24.1151 23.8683 24.2346 23.7072 24.2346 23.5315V19.622L26.5026 19.5041V25.4778L23.035 25.8908C22.7605 25.9232 22.5564 26.1191 22.5564 26.3507V27.2902C22.5564 27.8056 23.0592 28.2242 23.6771 28.2242H26.5026V29.1684C26.5026 29.6838 27.0054 30.1024 27.6233 30.1024H29.6347C30.1748 30.1024 30.6382 29.781 30.7368 29.339L32.1169 23.1458C32.1231 23.1176 32.1264 23.0894 32.1264 23.0608V20.7119V19.2969H32.6231C32.7054 19.2969 32.7855 19.2818 32.8599 19.2527L33.9485 18.8271H34.9519C35.5703 18.8271 36.0726 18.4081 36.0726 17.8932V16.9536C36.0726 16.4387 35.5703 16.0201 34.9519 16.0201ZM25.511 15.2924L21.9791 15.1083V15.0749V14.7334L23.2616 12.9515C23.3648 12.8087 23.5525 12.7204 23.7515 12.7204H27.6295V15.4028L25.511 15.2924ZM27.8899 1.18626L35.0647 7.17318L34.6616 7.50954L34.6582 7.50672C34.6576 7.50625 34.6576 7.50578 34.6571 7.50531L27.4818 1.52544L27.4795 1.52356L27.8899 1.18626ZM19.1108 11.1593C18.4484 10.6078 18.4484 9.71001 19.1108 9.15848L27.0872 2.51058L33.4682 7.82806L28.4604 11.8602C28.3787 11.8207 28.2885 11.7921 28.187 11.7921H23.7521C23.1641 11.7921 22.6105 12.0533 22.3072 12.4733L21.7001 13.3165L19.1108 11.1593ZM13.523 17.5592V17.2886L14.0997 17.1284V17.7193L13.523 17.5592ZM15.2142 18.4236V18.3634V16.4843V16.4242L18.6096 16.0704V18.7773L15.2142 18.4236ZM20.8652 19.7728C20.8652 19.7761 20.8623 19.7784 20.8584 19.7784L19.7242 19.7728L19.7309 15.0693L20.8652 15.0749V15.5447V19.303V19.7728ZM23.1201 17.8936V18.7496L21.9797 18.8092V16.0394L24.9444 16.194L29.8856 16.4514V18.3977L24.2352 18.6923V17.8936H23.1201ZM23.6703 27.2893V26.7523L26.502 26.415V27.2935L23.6703 27.2893ZM31.0057 22.5971C30.6912 22.5971 30.4352 22.3838 30.4352 22.1217V21.6519C30.4352 21.3898 30.6912 21.1765 31.0057 21.1765L31.0125 22.5966H31.0057V22.5971ZM31.0125 20.2482H31.0057C30.0773 20.2482 29.3213 20.8782 29.3213 21.6519V22.1217C29.3213 22.8658 30.022 23.4704 30.9009 23.5165L29.6353 29.1736L27.6165 29.1684V27.7591V27.2837H28.187V26.3549H27.6165V25.88V25.4045H28.187V24.4758H27.6165V23.5254H28.187V22.5966H27.6165V21.6463H28.187V20.7175H27.6165V19.4453L30.4589 19.2973H31.0119V20.2482H31.0125ZM32.4985 18.3691H30.999V16.4791H32.6186L33.2669 16.7643V18.0684L32.4985 18.3691ZM34.9587 17.8936L34.382 17.8993V16.9513L34.9587 16.9541V17.8936Z" fill="black"/>
<path d="M28.7508 16.9589H27.6233V17.8876H28.7508V16.9589Z" fill="black"/>
<path d="M26.4958 16.9589H25.3683V17.8876H26.4958V16.9589Z" fill="black"/>
<path d="M20.2946 16.0145H19.7309V16.9541H20.2946V16.0145Z" fill="black"/>
<path d="M20.2946 17.8937H19.7309V18.8332H20.2946V17.8937Z" fill="black"/>
<path d="M21.4221 9.43762H20.2946V10.3772H21.4221V9.43762Z" fill="black"/>
</g>
<defs>
<clipPath id="clip0">
<rect width="36.18" height="30.15" fill="white"/>
</clipPath>
</defs>
</svg>
