<svg width="32" height="26" viewBox="0 0 32 26" fill="none" xmlns="http://www.w3.org/2000/svg">
<g clip-path="url(#clip0)">
<path d="M30.5 2.84375H28V23.5625H30.5V2.84375Z" fill="#A0B2BA"/>
<path d="M4.00003 2.84375H1.50003V23.5625H4.00003V2.84375Z" fill="#A0B2BA"/>
<g opacity="0.5">
<path opacity="0.5" d="M2.50003 2.84375H1.50003V23.5625H2.50003V2.84375Z" fill="#78858B"/>
</g>
<path d="M12.5 18.6875H4.00003C3.44753 18.6875 3.00003 18.3239 3.00003 17.875V17.4687C3.00003 17.0198 3.44753 16.6562 4.00003 16.6562H12.5V18.6875Z" fill="#BD252A"/>
<g opacity="0.5">
<path opacity="0.5" d="M4.50003 17.875V17.4687C4.50003 17.0198 4.94753 16.6562 5.50003 16.6562H4.00003C3.44753 16.6562 3.00003 17.0198 3.00003 17.4687V17.875C3.00003 18.3239 3.44753 18.6875 4.00003 18.6875H5.50003C4.94753 18.6875 4.50003 18.3239 4.50003 17.875Z" fill="#8E1C20"/>
</g>
<path d="M19.5 18.6875H28C28.5525 18.6875 29 18.3239 29 17.875V17.4687C29 17.0198 28.5525 16.6562 28 16.6562H19.5V18.6875Z" fill="#BD252A"/>
<path d="M12.5 16.6562H4.00003V13.4643C4.00003 12.7042 4.52203 12.0079 5.35303 11.6594L7.00002 10.9688L10.9845 11.7812H21L24.5 10.9688L26.5115 11.6919C27.4165 12.0173 28 12.7457 28 13.5497V16.6562H19.5" fill="#FD3238"/>
<path d="M6.85303 11.6598L8.00953 11.1747L7.00003 10.9688L5.35303 11.6598C4.52203 12.0083 4.00003 12.7047 4.00003 13.4643V16.6562H5.50003V13.4643C5.50003 12.7047 6.02203 12.0083 6.85303 11.6598Z" fill="#BE262A"/>
<path d="M7 10.9687L11.1145 11.7812H20.886L25 10.9687L23.646 7.76059C23.226 6.76528 22.047 6.09375 20.719 6.09375H11.281C9.95299 6.09375 8.7735 6.76528 8.3535 7.76059L7 10.9687Z" fill="#C6D1D6"/>
<g opacity="0.5">
<path opacity="0.5" d="M9.85399 7.76059C10.274 6.76528 11.453 6.09375 12.7815 6.09375H11.2815C9.95349 6.09375 8.77399 6.76528 8.354 7.76059L7 10.9687L11.1145 11.7812H12.6145L8.5 10.9687L9.85399 7.76059Z" fill="#A0B2BA"/>
</g>
<path d="M23 11.3766L22.2765 10.1993C22.107 9.92388 21.7605 9.75 21.3815 9.75H19.618C19.239 9.75 18.893 9.92388 18.7235 10.1993L18 11.7812" fill="#FCB641"/>
<path d="M9 11.3766L9.7235 10.1993C9.893 9.92388 10.2395 9.75 10.6185 9.75H12.382C12.761 9.75 13.107 9.92388 13.2765 10.1993L14 11.7812" fill="#FCB641"/>
<path d="M24.5 15.0312H20V14.2187C20 13.7698 20.4475 13.4062 21 13.4062H26V13.8125C26 14.4857 25.3285 15.0312 24.5 15.0312Z" fill="#FDD38D"/>
<path d="M24.5 15.4375H20C19.7235 15.4375 19.5 15.2555 19.5 15.0312V14.2187C19.5 13.5468 20.173 13 21 13H26C26.2765 13 26.5 13.182 26.5 13.4062V13.8125C26.5 14.7087 25.603 15.4375 24.5 15.4375ZM20.5 14.625H24.5C25.0515 14.625 25.5 14.2606 25.5 13.8125H21C20.724 13.8125 20.5 13.9949 20.5 14.2187V14.625Z" fill="black"/>
<path d="M7.5 15.0312H12V14.2187C12 13.7698 11.5525 13.4062 11 13.4062H6V13.8125C6 14.4857 6.6715 15.0312 7.5 15.0312Z" fill="#FDD38D"/>
<path d="M12 15.4375H7.50003C6.39703 15.4375 5.50003 14.7087 5.50003 13.8125V13.4062C5.50003 13.182 5.72353 13 6.00003 13H11C11.827 13 12.5 13.5468 12.5 14.2187V15.0312C12.5 15.2555 12.2765 15.4375 12 15.4375ZM6.50003 13.8125C6.50003 14.2606 6.94853 14.625 7.50003 14.625H11.5V14.2187C11.5 13.9949 11.276 13.8125 11 13.8125H6.50003Z" fill="black"/>
<path d="M8.25 18.6875C8.94036 18.6875 9.5 18.2328 9.5 17.6719C9.5 17.111 8.94036 16.6562 8.25 16.6562C7.55965 16.6562 7 17.111 7 17.6719C7 18.2328 7.55965 18.6875 8.25 18.6875Z" fill="#FCB641"/>
<path d="M23.25 18.6875C23.9404 18.6875 24.5 18.2328 24.5 17.6719C24.5 17.111 23.9404 16.6562 23.25 16.6562C22.5596 16.6562 22 17.111 22 17.6719C22 18.2328 22.5596 18.6875 23.25 18.6875Z" fill="#FCB641"/>
<path d="M8.25 19.0937C7.285 19.0937 6.5 18.4559 6.5 17.6719C6.5 16.8878 7.285 16.25 8.25 16.25C9.215 16.25 10 16.8878 10 17.6719C10 18.4559 9.215 19.0937 8.25 19.0937ZM8.25 17.0625C7.8365 17.0625 7.5 17.3359 7.5 17.6719C7.5 18.0078 7.8365 18.2812 8.25 18.2812C8.6635 18.2812 9 18.0078 9 17.6719C9 17.3359 8.6635 17.0625 8.25 17.0625Z" fill="black"/>
<path d="M23.25 19.0937C22.285 19.0937 21.5 18.4559 21.5 17.6719C21.5 16.8878 22.285 16.25 23.25 16.25C24.215 16.25 25 16.8878 25 17.6719C25 18.4559 24.215 19.0937 23.25 19.0937ZM23.25 17.0625C22.8365 17.0625 22.5 17.3359 22.5 17.6719C22.5 18.0078 22.8365 18.2812 23.25 18.2812C23.6635 18.2812 24 18.0078 24 17.6719C24 17.3359 23.6635 17.0625 23.25 17.0625Z" fill="black"/>
<path d="M19.5 16.6562H12.5V19.5H19.5V16.6562Z" fill="#FDC567"/>
<path d="M18.5 13H13.5V13.8125H18.5V13Z" fill="black"/>
<path d="M18.5 14.625H13.5V15.4375H18.5V14.625Z" fill="black"/>
<path d="M17.5 7.3125H14.5V8.125H17.5V7.3125Z" fill="black"/>
<path d="M13.531 11.9227L12.8185 10.3647C12.7305 10.2355 12.565 10.1563 12.382 10.1563H10.6185C10.428 10.1563 10.2565 10.2424 10.171 10.3809L9.44751 11.5578L8.55301 11.1947L9.27651 10.0178C9.53251 9.60176 10.0465 9.34338 10.6185 9.34338H12.382C12.954 9.34338 13.468 9.60135 13.724 10.0169C13.732 10.0299 13.739 10.0434 13.7455 10.0572L14.469 11.6395L13.531 11.9227Z" fill="black"/>
<path d="M18.469 11.9226L17.5315 11.6399L18.255 10.0575C18.2615 10.0437 18.2685 10.0303 18.2765 10.0173C18.532 9.60172 19.0465 9.34375 19.618 9.34375H21.3815C21.9535 9.34375 22.4675 9.60212 22.7235 10.0181L23.447 11.195L22.5525 11.5582L21.829 10.3813C21.7435 10.2424 21.5725 10.1562 21.382 10.1562H19.6185C19.4355 10.1562 19.27 10.2355 19.1815 10.3647L18.469 11.9226Z" fill="black"/>
<path d="M31.5 0.40625H0.500031V2.84375H31.5V0.40625Z" fill="#2EA6DB"/>
<g opacity="0.5">
<path opacity="0.5" d="M2.50003 0.40625H0.500031V2.84375H2.50003V0.40625Z" fill="#237DA4"/>
</g>
<path d="M4.00003 21.5312L12.5 19.9062V18.6875H4.00003V21.5312Z" fill="#237DA4"/>
<path d="M6.50003 19.5H5.50003V20.3125H6.50003V19.5Z" fill="black"/>
<path d="M0.500031 25.5937H5.00002L4.43752 23.5625H1.06253L0.500031 25.5937Z" fill="#2EA6DB"/>
<g opacity="0.5">
<path opacity="0.5" d="M1.06253 23.5625L0.500031 25.5937H2.00003L2.56253 23.5625H1.06253Z" fill="#237DA4"/>
</g>
<path d="M28 21.5312L19.5 19.9062V18.6875H28V21.5312Z" fill="#237DA4"/>
<path d="M26.5 19.5H25.5V20.3125H26.5V19.5Z" fill="black"/>
<path d="M31.5 25.5937H27L27.5625 23.5625H30.9375L31.5 25.5937Z" fill="#2EA6DB"/>
<path d="M31.5 3.24999C31.7765 3.24999 32 3.06799 32 2.84374V0.406249C32 0.182 31.7765 0 31.5 0H0.500089C0.22359 0 9.00878e-05 0.182 9.00878e-05 0.406249V2.84374C9.00878e-05 3.06799 0.22359 3.24999 0.500089 3.24999H1.00009V23.1651C0.794088 23.1867 0.621089 23.3053 0.574589 23.4735L0.0120901 25.5047C-0.0209099 25.625 0.0145901 25.7513 0.10909 25.8476C0.20459 25.9439 0.348089 26 0.500089 26H5.00008C5.15208 26 5.29558 25.9439 5.39058 25.8476C5.48508 25.7513 5.52108 25.625 5.48758 25.5047L4.92508 23.4735C4.87908 23.3053 4.70608 23.1867 4.50008 23.1651V21.8534L12.6146 20.3019C12.8406 20.2584 13.0001 20.0947 13.0001 19.9062H19.0001C19.0001 20.0947 19.1596 20.2584 19.3855 20.3019L27.5 21.853V23.1647C27.294 23.1863 27.121 23.3049 27.0745 23.4731L26.512 25.5043C26.479 25.6246 26.5145 25.7509 26.609 25.8472C26.7045 25.9439 26.848 26 27 26H31.5C31.652 26 31.7955 25.9439 31.8905 25.8476C31.985 25.7513 32.021 25.625 31.9875 25.5047L31.425 23.4735C31.3785 23.3053 31.2055 23.1871 30.9995 23.1651V3.24999H31.5ZM1.12509 25.1875L1.46259 23.9687H1.50009H4.00008H4.03758L4.37508 25.1875H1.12509ZM4.50008 9.74998V3.24999H27.5V9.74998H28.5V3.24999H30V23.1562H28.5V21.5312V19.9062V19.019C29.0805 18.8508 29.5 18.4039 29.5 17.875V17.4687C29.5 16.9398 29.0805 16.4929 28.5 16.3247V13.5492C28.5 12.5852 27.799 11.7105 26.714 11.3201L25.7355 10.9687H27V10.1562H25.186L24.1195 7.62855C23.6295 6.46749 22.2625 5.68749 20.719 5.68749H11.2811C9.73707 5.68749 8.37057 6.46749 7.88057 7.62855L6.81408 10.1562H5.00008V10.9687H5.91008L5.12358 11.2986C4.12208 11.7187 3.50008 12.5486 3.50008 13.4647V16.3251C2.91958 16.4929 2.50009 16.9398 2.50009 17.4687V17.875C2.50009 18.4039 2.91958 18.8508 3.50008 19.019V19.9062V21.5312V23.1562H2.00009V3.24999H3.50008V9.74998H4.50008ZM3.50008 17.875V17.4687C3.50008 17.2449 3.72408 17.0625 4.00008 17.0625H12.0001V18.2812H4.00008C3.72408 18.2812 3.50008 18.0988 3.50008 17.875ZM12.5001 16.25H4.50008V13.4647C4.50008 12.8541 4.91458 12.3008 5.58258 12.0209L7.06158 11.4006L10.8631 12.1757C10.9026 12.1838 10.9436 12.1879 10.9846 12.1879H11.1146H20.886H21C21.0465 12.1879 21.093 12.1826 21.137 12.172L21.777 12.0234L24.63 11.4599L26.309 12.0636C27.0325 12.3236 27.5 12.9069 27.5 13.5496V16.25H19.5H12.5001ZM21.526 11.2369L20.8255 11.375H11.1746L7.65107 10.6791L8.82757 7.8922C9.17807 7.05939 10.1646 6.49999 11.2811 6.49999H20.7185C21.835 6.49999 22.8215 7.05939 23.1725 7.8922L24.311 10.5901L21.526 11.2369ZM20 17.0625H28C28.276 17.0625 28.5 17.2449 28.5 17.4687V17.875C28.5 18.0988 28.276 18.2812 28 18.2812H20V17.0625ZM12.0001 19.5845L4.50008 21.0181V19.9062V19.0937H12.0001V19.5V19.5845ZM13.0001 19.0937V18.6875V17.0625H19.0001V18.6875V19.0937H13.0001ZM27.5 19.9062V21.0181L20 19.5845V19.5V19.0937H27.5V19.9062ZM27.625 25.1875L27.9625 23.9687H28H30.5H30.5375L30.875 25.1875H27.625ZM30.5 2.4375H28H4.00008H1.50009H1.00009V0.812498H5.00008V1.625H6.00008V0.812498H10.0001V1.625H11.0001V0.812498H15.5001V1.625H16.5001V0.812498H21V1.625H22V0.812498H26V1.625H27V0.812498H31V2.4375H30.5Z" fill="black"/>
</g>
<defs>
<clipPath id="clip0">
<rect width="32" height="26" fill="white"/>
</clipPath>
</defs>
</svg>
