<svg width="37" height="31" viewBox="0 0 37 31" fill="none" xmlns="http://www.w3.org/2000/svg">
<g clip-path="url(#clip0)">
<path d="M31.6575 27.3235H22.0471V24.968H31.6575C32.2821 24.968 32.7881 25.3896 32.7881 25.9102V26.3813C32.7881 26.9019 32.2821 27.3235 31.6575 27.3235Z" fill="#BD252A"/>
<path d="M4.52247 27.3235H14.1328V24.968H4.52247C3.8978 24.968 3.39185 25.3896 3.39185 25.9102V26.3813C3.39185 26.9019 3.8978 27.3235 4.52247 27.3235Z" fill="#BD252A"/>
<g opacity="0.5">
<path opacity="0.5" d="M5.08778 26.3813V25.9102C5.08778 25.3896 5.59374 24.968 6.21841 24.968H4.52247C3.8978 24.968 3.39185 25.3896 3.39185 25.9102V26.3813C3.39185 26.9019 3.8978 27.3235 4.52247 27.3235H6.21841C5.59374 27.3235 5.08778 26.9019 5.08778 26.3813Z" fill="#8E1C20"/>
</g>
<path d="M7.91434 18.3726L12.5663 19.3148H23.6142L28.2656 18.3726L26.7347 14.6524C26.2599 13.4982 24.9269 12.7195 23.4254 12.7195H12.7545C11.2531 12.7195 9.9195 13.4982 9.44464 14.6524L7.91434 18.3726Z" fill="#C6D1D6"/>
<g opacity="0.5">
<path opacity="0.5" d="M11.1411 14.6524C11.616 13.4982 12.949 12.7195 14.451 12.7195H12.7551C11.2536 12.7195 9.92007 13.4982 9.4452 14.6524L7.91434 18.3726L12.5663 19.3148H14.2622L9.61027 18.3726L11.1411 14.6524Z" fill="#A0B2BA"/>
</g>
<path d="M10.1756 18.8456L10.9936 17.4804C11.1852 17.161 11.577 16.9594 12.0055 16.9594H13.9994C14.4279 16.9594 14.8191 17.161 15.0107 17.4804L15.8287 19.3148" fill="#FCB641"/>
<path d="M26.0044 18.8456L25.1863 17.4804C24.9947 17.161 24.6029 16.9594 24.1744 16.9594H22.1806C21.7521 16.9594 21.3609 17.161 21.1692 17.4804L20.3512 19.3148" fill="#FCB641"/>
<path d="M14.1328 24.968H4.52246V21.2666C4.52246 20.3852 5.11265 19.5777 6.0522 19.1735L7.91434 18.3727L12.4193 19.3149H23.7431L27.7003 18.3727L29.9745 19.2112C30.9977 19.5886 31.6575 20.4332 31.6575 21.3655V24.968H22.0471" fill="#FD3238"/>
<g opacity="0.5">
<path opacity="0.5" d="M7.74813 19.174L9.0557 18.6115L7.91434 18.3727L6.0522 19.174C5.11265 19.5782 4.52246 20.3857 4.52246 21.2666V24.968H6.2184V21.2666C6.2184 20.3857 6.80858 19.5782 7.74813 19.174Z" fill="#BE262A"/>
</g>
<path d="M9.04498 29.679H6.78373C6.15906 29.679 5.65311 29.2573 5.65311 28.7368V27.3235H10.1756V28.7368C10.1756 29.2573 9.66965 29.679 9.04498 29.679Z" fill="#5F1315"/>
<path d="M9.04498 29.679H6.78373C6.15906 29.679 5.65311 29.2573 5.65311 28.7368V27.3235H10.1756V28.7368C10.1756 29.2573 9.66965 29.679 9.04498 29.679Z" fill="#50595D"/>
<g opacity="0.5">
<path opacity="0.5" d="M6.78373 28.7368V27.3235H5.65311V28.7368C5.65311 29.2573 6.15906 29.679 6.78373 29.679H7.91436C7.28969 29.679 6.78373 29.2573 6.78373 28.7368Z" fill="#414547"/>
</g>
<path d="M29.3962 29.679H27.135C26.5103 29.679 26.0043 29.2573 26.0043 28.7368V27.3235H30.5268V28.7368C30.5268 29.2573 30.0209 29.679 29.3962 29.679Z" fill="#50595D"/>
<path d="M27.7003 23.0836H22.6125V22.1414C22.6125 21.6208 23.1184 21.1992 23.7431 21.1992H29.3962V21.6703C29.3962 22.4509 28.637 23.0836 27.7003 23.0836Z" fill="#FDD38D"/>
<path d="M27.7003 23.5547H22.6125C22.3004 23.5547 22.0471 23.3437 22.0471 23.0836V22.1414C22.0471 21.3622 22.8081 20.7281 23.7431 20.7281H29.3962C29.7083 20.7281 29.9615 20.9392 29.9615 21.1992V21.6703C29.9615 22.7096 28.9474 23.5547 27.7003 23.5547ZM23.1778 22.6125H27.7003C28.3238 22.6125 28.8309 22.19 28.8309 21.6703H23.7431C23.4316 21.6703 23.1778 21.8819 23.1778 22.1414V22.6125Z" fill="black"/>
<path d="M8.47966 23.0836H13.5675V22.1414C13.5675 21.6208 13.0615 21.1992 12.4368 21.1992H6.78372V21.6703C6.78372 22.4509 7.54294 23.0836 8.47966 23.0836Z" fill="#FDD38D"/>
<path d="M13.5675 23.5547H8.47966C7.23258 23.5547 6.21841 22.7096 6.21841 21.6703V21.1992C6.21841 20.9392 6.47167 20.7281 6.78373 20.7281H12.4369C13.3719 20.7281 14.1328 21.3622 14.1328 22.1414V23.0836C14.1328 23.3437 13.8795 23.5547 13.5675 23.5547ZM7.34904 21.6703C7.34904 22.19 7.85612 22.6125 8.47966 22.6125H13.0022V22.1414C13.0022 21.8819 12.7483 21.6703 12.4369 21.6703H7.34904Z" fill="black"/>
<path d="M9.32762 27.3235C10.1082 27.3235 10.7409 26.7962 10.7409 26.1458C10.7409 25.4953 10.1082 24.968 9.32762 24.968C8.54708 24.968 7.91434 25.4953 7.91434 26.1458C7.91434 26.7962 8.54708 27.3235 9.32762 27.3235Z" fill="#FCB641"/>
<path d="M26.287 27.3235C27.0675 27.3235 27.7003 26.7962 27.7003 26.1458C27.7003 25.4953 27.0675 24.968 26.287 24.968C25.5065 24.968 24.8737 25.4953 24.8737 26.1458C24.8737 26.7962 25.5065 27.3235 26.287 27.3235Z" fill="#FCB641"/>
<path d="M22.0472 24.968H14.1328V28.2657H22.0472V24.968Z" fill="#FDC567"/>
<path d="M20.9165 20.7281H15.2634V21.6703H20.9165V20.7281Z" fill="black"/>
<path d="M20.9165 22.6125H15.2634V23.5547H20.9165V22.6125Z" fill="black"/>
<path d="M19.7859 14.1328H16.394V15.075H19.7859V14.1328Z" fill="black"/>
<path d="M15.2984 19.4789L14.4929 17.6722C14.3928 17.5224 14.2063 17.4306 13.9994 17.4306H12.0055C11.7901 17.4306 11.5957 17.5304 11.4995 17.6911L10.6815 19.0558L9.6702 18.6347L10.4882 17.2699C10.7771 16.7875 11.3588 16.4879 12.0055 16.4879H13.9994C14.6455 16.4879 15.2267 16.7871 15.5161 17.269C15.5251 17.2841 15.5331 17.2996 15.5404 17.3156L16.3584 19.1505L15.2984 19.4789Z" fill="black"/>
<path d="M20.8815 19.4788L19.8215 19.1509L20.6395 17.316C20.6469 17.3 20.6548 17.2844 20.6638 17.2694C20.9527 16.7874 21.5344 16.4883 22.1806 16.4883H24.1744C24.8211 16.4883 25.4028 16.7879 25.6917 17.2703L26.5097 18.6351L25.4984 19.0562L24.6804 17.6915C24.5843 17.5303 24.3904 17.4305 24.1744 17.4305H22.1806C21.9736 17.4305 21.7871 17.5223 21.687 17.6721L20.8815 19.4788Z" fill="black"/>
<path d="M18.6553 2.35547H17.5247V7.06641H18.6553V2.35547Z" fill="black"/>
<path d="M18.6553 8.00854H17.5247V8.95073H18.6553V8.00854Z" fill="black"/>
<path d="M18.6553 9.89294H17.5247V10.8351H18.6553V9.89294Z" fill="black"/>
<path d="M12.4368 8.00854H11.3062V8.95073H12.4368V8.00854Z" fill="black"/>
<path d="M12.4368 9.89294H11.3062V10.8351H12.4368V9.89294Z" fill="black"/>
<path d="M6.78373 8.00854H5.65311V8.95073H6.78373V8.00854Z" fill="black"/>
<path d="M15.2634 5.65308H14.1328V6.59526H15.2634V5.65308Z" fill="black"/>
<path d="M15.2634 7.53748H14.1328V8.47966H15.2634V7.53748Z" fill="black"/>
<path d="M15.2634 9.42188H14.1328V10.3641H15.2634V9.42188Z" fill="black"/>
<path d="M9.61027 5.65308H8.47964V6.59526H9.61027V5.65308Z" fill="black"/>
<path d="M9.61027 7.53748H8.47964V8.47966H9.61027V7.53748Z" fill="black"/>
<path d="M9.61027 9.42188H8.47964V10.3641H9.61027V9.42188Z" fill="black"/>
<path d="M9.61027 11.3063H8.47964V12.2485H9.61027V11.3063Z" fill="black"/>
<path d="M22.0472 5.65308H20.9165V6.59526H22.0472V5.65308Z" fill="black"/>
<path d="M22.0472 7.53748H20.9165V8.47966H22.0472V7.53748Z" fill="black"/>
<path d="M22.0472 9.42188H20.9165V10.3641H22.0472V9.42188Z" fill="black"/>
<path d="M24.8737 8.00854H23.7431V8.95073H24.8737V8.00854Z" fill="black"/>
<path d="M24.8737 9.89294H23.7431V10.8351H24.8737V9.89294Z" fill="black"/>
<path d="M27.7003 5.65308H26.5696V6.59526H27.7003V5.65308Z" fill="black"/>
<path d="M27.7003 7.53748H26.5696V8.47966H27.7003V7.53748Z" fill="black"/>
<path d="M27.7003 9.42188H26.5696V10.3641H27.7003V9.42188Z" fill="black"/>
<path d="M30.5268 8.00854H29.3962V8.95073H30.5268V8.00854Z" fill="black"/>
<path d="M30.5268 2.35544H5.65308C5.34103 2.35544 5.08777 2.14439 5.08777 1.88435V0.471069H31.0921V1.88435C31.0921 2.14439 30.8389 2.35544 30.5268 2.35544Z" fill="#2EA6DB"/>
<g opacity="0.5">
<path opacity="0.5" d="M6.78371 1.88435V0.471069H5.08777V1.88435C5.08777 2.14439 5.34103 2.35544 5.65308 2.35544H7.34902C7.03697 2.35544 6.78371 2.14439 6.78371 1.88435Z" fill="#237DA4"/>
</g>
<path d="M31.0922 0H5.08777C4.77572 0 4.52246 0.21105 4.52246 0.471094V1.88437C4.52246 2.40399 5.02955 2.82656 5.65309 2.82656V7.06641H6.78371V2.82656H8.47965V4.71094H9.61027V2.82656H11.3062V7.06641H12.4368V2.82656H14.1328V4.71094H15.2634V2.82656H20.9165V4.71094H22.0471V2.82656H23.7431V7.06641H24.8737V2.82656H26.5697V4.71094H27.7003V2.82656H29.3962V7.06641H30.5268V2.82656C31.1504 2.82656 31.6575 2.40399 31.6575 1.88437V0.471094C31.6575 0.21105 31.4042 0 31.0922 0ZM27.7003 1.88437H26.5697H22.0471H20.9165H15.2634H14.1328H9.61027H8.47965H5.65309V0.942187H30.5268L30.5274 1.88437H27.7003Z" fill="black"/>
<path d="M31.6575 14.1328H31.0921V13.6617H29.9615V14.1328H29.3962V15.075H29.9615V15.5461H31.0921V15.075H31.6575V14.1328Z" fill="black"/>
<path d="M1.97856 16.4883C2.75909 16.4883 3.39184 15.961 3.39184 15.3105C3.39184 14.6601 2.75909 14.1328 1.97856 14.1328C1.19802 14.1328 0.565277 14.6601 0.565277 15.3105C0.565277 15.961 1.19802 16.4883 1.97856 16.4883Z" fill="#ABDBF1"/>
<path d="M1.97856 16.9594C0.88751 16.9594 -3.05176e-05 16.2198 -3.05176e-05 15.3106C-3.05176e-05 14.4014 0.88751 13.6617 1.97856 13.6617C3.06962 13.6617 3.95716 14.4014 3.95716 15.3106C3.95716 16.2198 3.06962 16.9594 1.97856 16.9594ZM1.97856 14.6039C1.51105 14.6039 1.13059 14.921 1.13059 15.3106C1.13059 15.7002 1.51105 16.0172 1.97856 16.0172C2.44608 16.0172 2.82653 15.7002 2.82653 15.3106C2.82653 14.921 2.44608 14.6039 1.97856 14.6039Z" fill="black"/>
<path d="M34.2014 12.2484C34.9819 12.2484 35.6147 11.7211 35.6147 11.0707C35.6147 10.4202 34.9819 9.89294 34.2014 9.89294C33.4208 9.89294 32.7881 10.4202 32.7881 11.0707C32.7881 11.7211 33.4208 12.2484 34.2014 12.2484Z" fill="#ABDBF1"/>
<path d="M34.2014 12.7195C33.1103 12.7195 32.2228 11.9799 32.2228 11.0707C32.2228 10.1615 33.1103 9.42188 34.2014 9.42188C35.2924 9.42188 36.18 10.1615 36.18 11.0707C36.18 11.9799 35.2924 12.7195 34.2014 12.7195ZM34.2014 10.3641C33.7339 10.3641 33.3534 10.6811 33.3534 11.0707C33.3534 11.4603 33.7339 11.7773 34.2014 11.7773C34.6689 11.7773 35.0493 11.4603 35.0493 11.0707C35.0493 10.6811 34.6689 10.3641 34.2014 10.3641Z" fill="black"/>
<path d="M32.2228 24.5835V21.365C32.2228 20.2471 31.4302 19.2328 30.2035 18.7801L29.0977 18.3726H30.5269V17.4304H28.4753L27.2695 14.4993C26.7155 13.1529 25.1705 12.2484 23.4254 12.2484H12.7546C11.0089 12.2484 9.46387 13.1529 8.90987 14.4993L7.70462 17.4304H5.6531V18.3726H6.68253L5.7933 18.7552C4.66098 19.2423 3.95716 20.2047 3.95716 21.267V24.584C3.30084 24.7786 2.82654 25.2968 2.82654 25.9101V26.3812C2.82654 27.1604 3.58745 27.7945 4.52248 27.7945H5.08779V28.7367C5.08779 29.5159 5.8487 30.15 6.78373 30.15H9.04498C9.98 30.15 10.7409 29.5159 10.7409 28.7367V27.7945H13.5675V28.2656C13.5675 28.5256 13.8207 28.7367 14.1328 28.7367H22.0472C22.3592 28.7367 22.6125 28.5256 22.6125 28.2656V27.7945H25.439V28.7367C25.439 29.5159 26.1999 30.15 27.135 30.15H29.3962C30.3313 30.15 31.0922 29.5159 31.0922 28.7367V27.7945H31.6575C32.5925 27.7945 33.3534 27.1604 33.3534 26.3812V25.9101C33.3534 25.2968 32.8791 24.7786 32.2228 24.5835ZM9.97944 14.805C10.3769 13.8393 11.4922 13.1906 12.7546 13.1906H23.4248C24.6872 13.1906 25.8025 13.8393 26.1999 14.805L27.4872 17.9336L24.3339 18.6845L23.5464 18.8437H12.6336L8.64982 18.0367L9.97944 14.805ZM3.95716 26.3812V25.9101C3.95716 25.6506 4.21099 25.439 4.52248 25.439H7.54746C7.42422 25.6539 7.34904 25.8918 7.34904 26.1457C7.34904 26.3996 7.42422 26.6375 7.54746 26.8523H5.6531H4.52248C4.21099 26.8523 3.95716 26.6408 3.95716 26.3812ZM10.1756 26.1457C10.1756 26.5353 9.79515 26.8523 9.32763 26.8523C8.86012 26.8523 8.47966 26.5353 8.47966 26.1457C8.47966 25.7561 8.86012 25.439 9.32763 25.439C9.79515 25.439 10.1756 25.7561 10.1756 26.1457ZM9.61029 28.7367C9.61029 28.9963 9.35646 29.2078 9.04498 29.2078H6.78373C6.47224 29.2078 6.21841 28.9963 6.21841 28.7367V27.7945H9.61029V28.7367ZM11.1078 26.8523C11.231 26.6375 11.3062 26.3996 11.3062 26.1457C11.3062 25.8918 11.231 25.6539 11.1078 25.439H13.5675V26.8523H11.1078ZM21.4819 27.7945H14.6981V25.439H21.4819V27.7945ZM14.1328 24.4969H5.08779V21.267C5.08779 20.559 5.557 19.9173 6.31226 19.5928L7.98445 18.8734L12.282 19.7723C12.3272 19.7817 12.3735 19.7864 12.4199 19.7864H12.5663H23.6142H23.7431C23.7957 19.7864 23.8482 19.7803 23.8986 19.768L24.6233 19.5956L27.8478 18.9427L29.7462 19.6427C30.5636 19.9437 31.0922 20.6202 31.0922 21.3655V24.4969H22.0472H14.1328ZM27.135 26.1457C27.135 26.5353 26.7545 26.8523 26.287 26.8523C25.8195 26.8523 25.439 26.5353 25.439 26.1457C25.439 25.7561 25.8195 25.439 26.287 25.439C26.7545 25.439 27.135 25.7561 27.135 26.1457ZM22.6125 25.439H24.5068C24.3836 25.6539 24.3084 25.8918 24.3084 26.1457C24.3084 26.3996 24.3836 26.6375 24.5068 26.8523H22.6125V25.439ZM29.9615 28.7367C29.9615 28.9963 29.7077 29.2078 29.3962 29.2078H27.135C26.8235 29.2078 26.5697 28.9963 26.5697 28.7367V27.7945H29.9615V28.7367ZM32.2228 26.3812C32.2228 26.6408 31.969 26.8523 31.6575 26.8523H30.5269H28.0672C28.1904 26.6375 28.2656 26.3996 28.2656 26.1457C28.2656 25.8918 28.1904 25.6539 28.0672 25.439H31.6575C31.969 25.439 32.2228 25.6506 32.2228 25.9101V26.3812Z" fill="black"/>
</g>
<defs>
<clipPath id="clip0">
<rect width="36.18" height="30.15" fill="white"/>
</clipPath>
</defs>
</svg>
