<svg width="34" height="27" viewBox="0 0 34 27" fill="none" xmlns="http://www.w3.org/2000/svg">
<g clip-path="url(#clip0)">
<path d="M34 10.5469H30.8125V12.2344L28.6875 13.0781V14.3438H34V10.5469Z" fill="#737A7D"/>
<path d="M2.12497 23.625H0.531219V24.4687H2.12497V23.625Z" fill="black"/>
<path d="M13.2812 23.625H11.6875V24.4687H13.2812V23.625Z" fill="black"/>
<path d="M34 0.421875H22.3125C21.7254 0.421875 21.25 0.799453 21.25 1.26563V9.70313C21.25 10.1693 21.7254 10.5469 22.3125 10.5469H34" fill="#C6D1D6"/>
<path d="M22.3125 0.84375H34V0H22.3125C21.4338 0 20.7187 0.567844 20.7187 1.26562V9.70312C20.7187 10.4009 21.4338 10.9688 22.3125 10.9688H30.3524L30.2961 11.9677L28.45 12.7005C28.2699 12.7723 28.1562 12.9182 28.1562 13.0781V14.3438C28.1562 14.577 28.3937 14.7656 28.6875 14.7656H34V13.9219H29.2187V13.3388L31.0499 12.6115C31.2221 12.5432 31.3342 12.4061 31.3432 12.2529L31.416 10.9688H34V10.125H22.3125C22.0192 10.125 21.7812 9.936 21.7812 9.70312V1.26562C21.7812 1.03275 22.0192 0.84375 22.3125 0.84375Z" fill="black"/>
<path d="M23.375 9.28125C23.375 7.88316 24.8019 6.75 26.5625 6.75C28.323 6.75 29.75 7.88316 29.75 9.28125" fill="#FDC66C"/>
<path d="M30.2812 9.28125H29.2187C29.2187 8.11814 28.0271 7.17188 26.5625 7.17188C25.0978 7.17188 23.9062 8.11814 23.9062 9.28125H22.8437C22.8437 7.65323 24.5124 6.32812 26.5625 6.32812C28.6126 6.32812 30.2812 7.65323 30.2812 9.28125Z" fill="black"/>
<path d="M27.0937 8.01562H26.0312V9.28125H27.0937V8.01562Z" fill="black"/>
<path d="M23.7835 6.17664L22.967 5.63621L25.6233 3.10497C25.8087 2.92904 26.137 2.90162 26.3638 3.04548L28.535 4.42543L30.3519 1.90051L31.2742 2.31901L29.1492 5.27214C29.0721 5.37929 28.9399 5.45439 28.7874 5.47717C28.6344 5.49995 28.4771 5.46915 28.356 5.39237L26.1067 3.96306L23.7835 6.17664Z" fill="black"/>
<path d="M34 3.375H31.875V4.21875H34V3.375Z" fill="black"/>
<path d="M34 5.0625H30.8125V5.90625H34V5.0625Z" fill="black"/>
<path d="M34 6.75H31.875V7.59375H34V6.75Z" fill="black"/>
<path d="M9.56247 26.5781H4.24997C2.19616 26.5781 0.531219 25.256 0.531219 23.625V3.375C0.531219 1.74403 2.19616 0.421875 4.24997 0.421875H9.56247C11.6163 0.421875 13.2812 1.74403 13.2812 3.375V23.625C13.2812 25.256 11.6163 26.5781 9.56247 26.5781Z" fill="#50595D"/>
<g opacity="0.5">
<path opacity="0.5" d="M2.12497 24.4687V4.21875C2.12497 2.58778 3.78991 1.26562 5.84372 1.26562H11.1562C11.5738 1.26562 11.9738 1.32258 12.3483 1.42341C11.6673 0.810422 10.6728 0.421875 9.56247 0.421875H4.24997C2.19616 0.421875 0.531219 1.74403 0.531219 3.375V23.625C0.531219 24.9244 1.58947 26.0255 3.05784 26.4203C2.47878 25.8997 2.12497 25.218 2.12497 24.4687Z" fill="#414547"/>
</g>
<path d="M14.875 8.85938H13.2812V6.75H14.875C15.462 6.75 15.9375 7.12758 15.9375 7.59375V8.01562C15.9375 8.4818 15.462 8.85938 14.875 8.85938Z" fill="#FCB847"/>
<path d="M18.5937 19.8281H17.5312C16.9442 19.8281 16.4687 19.4505 16.4687 18.9844V12.2344C16.4687 11.7682 16.9442 11.3906 17.5312 11.3906H18.5937C19.1808 11.3906 19.6562 11.7682 19.6562 12.2344V18.9844C19.6562 19.4505 19.1808 19.8281 18.5937 19.8281Z" fill="#FD3238"/>
<path d="M28.6875 16.4531H24.4375C23.8504 16.4531 23.375 16.8307 23.375 17.2969V22.7812C23.375 23.2474 23.8504 23.625 24.4375 23.625H28.6875C29.2745 23.625 29.75 23.2474 29.75 22.7812V17.2969C29.75 16.8307 29.2745 16.4531 28.6875 16.4531Z" fill="#FD3238"/>
<path d="M18.5937 9.70312H17.5312L17 11.3906H19.125L18.5937 9.70312Z" fill="#50595D"/>
<path d="M14.875 22.3594H13.2812V24.4688H14.875C15.462 24.4688 15.9375 24.0912 15.9375 23.625V23.2031C15.9375 22.737 15.462 22.3594 14.875 22.3594Z" fill="#FCB847"/>
<path d="M18.5937 21.5156H17.5312L17 19.8281H19.125L18.5937 21.5156Z" fill="#50595D"/>
<path d="M7.43747 1.6875H6.37497V6.75H7.43747V1.6875Z" fill="black"/>
<path d="M7.43747 10.125H6.37497V16.875H7.43747V10.125Z" fill="black"/>
<path d="M7.43747 18.5625H6.37497V25.3125H7.43747V18.5625Z" fill="black"/>
<path d="M4.78122 2.53125H3.71872V10.9688H4.78122V2.53125Z" fill="black"/>
<path d="M4.78122 12.6562H3.71872V20.25H4.78122V12.6562Z" fill="black"/>
<path d="M10.0937 16.0312H9.03122V24.4688H10.0937V16.0312Z" fill="black"/>
<path d="M10.0937 6.75H9.03122V14.3437H10.0937V6.75Z" fill="black"/>
<path d="M19.6562 14.3438H16.4687V16.875H19.6562V14.3438Z" fill="#2EA6DB"/>
<path d="M28.6875 16.0312H24.4375C23.5588 16.0312 22.8437 16.5991 22.8437 17.2969V18.8118L20.1875 18.3929V16.875V14.3438V12.2344C20.1875 11.8555 19.9728 11.5193 19.6398 11.2873L19.109 9.60103C19.0495 9.41288 18.8376 9.28125 18.5937 9.28125V8.01562C18.5937 7.5503 18.1172 7.17188 17.5312 7.17188H16.371C16.151 6.68208 15.5667 6.32812 14.875 6.32812H13.8125V3.375C13.8125 1.51411 11.9058 0 9.56247 0H4.24997C1.90663 0 -3.05176e-05 1.51411 -3.05176e-05 3.375V23.625C-3.05176e-05 25.4859 1.90663 27 4.24997 27H9.56247C11.3422 27 12.8674 26.1259 13.4996 24.8906H14.875C15.5667 24.8906 16.151 24.5367 16.371 24.0469H17.5312C18.1172 24.0469 18.5937 23.6685 18.5937 23.2031V21.9375C18.8376 21.9375 19.0495 21.8059 19.109 21.6177L19.6398 19.9315C19.8937 19.7547 20.0796 19.5185 20.1519 19.2468L22.8437 19.6716V22.7812C22.8437 23.479 23.5588 24.0469 24.4375 24.0469H28.6875C29.5662 24.0469 30.2812 23.479 30.2812 22.7812V17.2969C30.2812 16.5991 29.5662 16.0312 28.6875 16.0312ZM18.4444 10.9688H17.6805L17.9461 10.125H18.1788L18.4444 10.9688ZM14.875 7.17188C15.1682 7.17188 15.4062 7.36088 15.4062 7.59375V8.01562C15.4062 8.2485 15.1682 8.4375 14.875 8.4375H13.8125V7.17188H14.875ZM9.56247 26.1562H4.78122V21.9375H3.71872V26.1183C2.21369 25.9162 1.06247 24.8767 1.06247 23.625V21.5156H2.12497V20.6719H1.06247V18.5625H2.12497V17.7188H1.06247V15.6094H2.12497V14.7656H1.06247V12.2344H2.12497V11.3906H1.06247V9.28125H2.12497V8.4375H1.06247V6.32812H2.12497V5.48438H1.06247V3.375H2.12497V2.53125H1.24841C1.68722 1.54955 2.865 0.84375 4.24997 0.84375H9.03122V5.0625H10.0937V0.881719C11.2428 1.0357 12.1826 1.67822 12.564 2.53125H11.6875V3.375H12.75V5.48438H11.6875V6.32812H12.75V6.75V8.4375H11.6875V9.28125H12.75V11.3906H11.6875V12.2344H12.75V14.7656H11.6875V15.6094H12.75V17.7188H11.6875V18.5625H12.75V20.6719H11.6875V21.5156H12.75V22.3594V23.625C12.75 25.021 11.3204 26.1562 9.56247 26.1562ZM14.875 24.0469H13.8125V23.625V22.7812H14.875C15.1682 22.7812 15.4062 22.9702 15.4062 23.2031V23.625C15.4062 23.8579 15.1682 24.0469 14.875 24.0469ZM17.5312 23.2031H16.4687C16.4687 22.5053 15.7537 21.9375 14.875 21.9375H13.8125V9.28125H14.875C15.7537 9.28125 16.4687 8.71341 16.4687 8.01562H17.5312V9.28125C17.2874 9.28125 17.0754 9.41288 17.0159 9.60103L16.4852 11.2873C16.1521 11.5193 15.9375 11.8555 15.9375 12.2344V14.3438V16.875V18.9844C15.9375 19.3632 16.1521 19.6995 16.4852 19.9315L17.0159 21.6177C17.0754 21.8059 17.2874 21.9375 17.5312 21.9375V23.2031ZM17.6805 20.25H18.4444L18.1788 21.0938H17.9461L17.6805 20.25ZM19.125 18.9844C19.125 19.2173 18.887 19.4062 18.5937 19.4062H17.5312C17.238 19.4062 17 19.2173 17 18.9844V17.2969H19.125V18.9844ZM19.125 16.4531H17V14.7656H19.125V16.4531ZM19.125 13.9219H17V12.2344C17 12.0015 17.238 11.8125 17.5312 11.8125H18.5937C18.887 11.8125 19.125 12.0015 19.125 12.2344V13.9219ZM29.2187 22.7812C29.2187 23.0141 28.9807 23.2031 28.6875 23.2031H24.4375C24.1442 23.2031 23.9062 23.0141 23.9062 22.7812V19.8395L26.0312 20.1749V21.5156H27.0937V19.8281C27.0937 19.6265 26.9147 19.4535 26.6655 19.4147L23.9062 18.9793V17.2969C23.9062 17.064 24.1442 16.875 24.4375 16.875H28.6875C28.9807 16.875 29.2187 17.064 29.2187 17.2969V22.7812Z" fill="black"/>
<path d="M28.1562 17.7188H27.0937V18.5625H28.1562V17.7188Z" fill="black"/>
</g>
<defs>
<clipPath id="clip0">
<rect width="34" height="27" fill="white"/>
</clipPath>
</defs>
</svg>
