<svg width="37" height="31" viewBox="0 0 37 31" fill="none" xmlns="http://www.w3.org/2000/svg">
<g clip-path="url(#clip0)">
<path d="M31.6313 15.075H4.51875C3.8946 15.075 3.38906 14.6533 3.38906 14.1328V13.6617C3.38906 13.1411 3.8946 12.7195 4.51875 12.7195H31.6313C32.2554 12.7195 32.7609 13.1411 32.7609 13.6617V14.1328C32.7609 14.6533 32.2554 15.075 31.6313 15.075Z" fill="#BD252A"/>
<g opacity="0.5">
<path opacity="0.5" d="M5.08359 14.1328V13.6617C5.08359 13.1411 5.58913 12.7195 6.21328 12.7195H4.51875C3.8946 12.7195 3.38906 13.1411 3.38906 13.6617V14.1328C3.38906 14.6533 3.8946 15.075 4.51875 15.075H6.21328C5.58913 15.075 5.08359 14.6533 5.08359 14.1328Z" fill="#8E1C20"/>
</g>
<path d="M7.90781 6.12419L12.5559 7.06638H23.5947L28.2422 6.12419L26.7126 2.40397C26.2381 1.24979 24.9062 0.471069 23.406 0.471069H12.744C11.2438 0.471069 9.91131 1.24979 9.43685 2.40397L7.90781 6.12419Z" fill="#C6D1D6"/>
<g opacity="0.5">
<path opacity="0.5" d="M11.1319 2.40397C11.6064 1.24979 12.9383 0.471069 14.4385 0.471069H12.744C11.2438 0.471069 9.91131 1.24979 9.43685 2.40397L7.90781 6.12419L12.5559 7.06638H14.2504L9.60234 6.12419L11.1319 2.40397Z" fill="#A0B2BA"/>
</g>
<path d="M10.1672 6.5972L10.9845 5.23197C11.176 4.91257 11.5674 4.71094 11.9956 4.71094H13.9878C14.4159 4.71094 14.8068 4.91257 14.9983 5.23197L15.8156 7.06641" fill="#FCB641"/>
<path d="M25.9828 6.5972L25.1655 5.23197C24.974 4.91257 24.5826 4.71094 24.1544 4.71094H22.1622C21.7341 4.71094 21.3432 4.91257 21.1517 5.23197L20.3344 7.06641" fill="#FCB641"/>
<path d="M14.1211 12.7196H4.51875V9.0182C4.51875 8.13678 5.10845 7.32933 6.04722 6.92513L7.90781 6.12427L12.4091 7.06646H23.7234L27.6773 6.12427L29.9497 6.96281C30.9721 7.34016 31.6313 8.18483 31.6313 9.11713V12.7196H22.0289" fill="#FD3238"/>
<path d="M7.74175 6.9256L9.04823 6.36311L7.90781 6.12427L6.04722 6.9256C5.10845 7.3298 4.51875 8.13725 4.51875 9.0182V12.7196H6.21328V9.0182C6.21328 8.13725 6.80298 7.3298 7.74175 6.9256Z" fill="#BE262A"/>
<path d="M9.0375 17.4304H6.77813C6.15397 17.4304 5.64844 17.0088 5.64844 16.4882V15.075H10.1672V16.4882C10.1672 17.0088 9.66165 17.4304 9.0375 17.4304Z" fill="#50595D"/>
<g opacity="0.5">
<path opacity="0.5" d="M6.77813 16.4882V15.075H5.64844V16.4882C5.64844 17.0088 6.15397 17.4304 6.77813 17.4304H7.90781C7.28366 17.4304 6.77813 17.0088 6.77813 16.4882Z" fill="#414547"/>
</g>
<path d="M29.3719 17.4304H27.1125C26.4883 17.4304 25.9828 17.0088 25.9828 16.4882V15.075H30.5016V16.4882C30.5016 17.0088 29.996 17.4304 29.3719 17.4304Z" fill="#50595D"/>
<path d="M27.6773 10.8352H22.5938V9.89299C22.5938 9.37243 23.0993 8.95081 23.7234 8.95081H29.3719V9.4219C29.3719 10.2025 28.6133 10.8352 27.6773 10.8352Z" fill="#FDD38D"/>
<path d="M8.47266 10.8352H13.5563V9.89299C13.5563 9.37243 13.0507 8.95081 12.4266 8.95081H6.77813V9.4219C6.77813 10.2025 7.53671 10.8352 8.47266 10.8352Z" fill="#FDD38D"/>
<path d="M9.31992 15.075C10.0998 15.075 10.732 14.5477 10.732 13.8972C10.732 13.2468 10.0998 12.7195 9.31992 12.7195C8.54004 12.7195 7.90781 13.2468 7.90781 13.8972C7.90781 14.5477 8.54004 15.075 9.31992 15.075Z" fill="#FCB641"/>
<path d="M26.2652 15.075C27.0451 15.075 27.6773 14.5477 27.6773 13.8972C27.6773 13.2468 27.0451 12.7195 26.2652 12.7195C25.4854 12.7195 24.8531 13.2468 24.8531 13.8972C24.8531 14.5477 25.4854 15.075 26.2652 15.075Z" fill="#FCB641"/>
<path d="M22.0289 12.7195H14.1211V16.0171H22.0289V12.7195Z" fill="#FDC567"/>
<path d="M27.6773 11.3063H22.5938C22.282 11.3063 22.0289 11.0957 22.0289 10.8352V9.89302C22.0289 9.11383 22.7892 8.47974 23.7234 8.47974H29.3719C29.6837 8.47974 29.9367 8.69032 29.9367 8.95083V9.42192C29.9367 10.4612 28.9234 11.3063 27.6773 11.3063ZM23.1586 10.3641H27.6773C28.3004 10.3641 28.807 9.94154 28.807 9.42192H23.7234C23.4122 9.42192 23.1586 9.63297 23.1586 9.89302V10.3641Z" fill="black"/>
<path d="M13.5563 11.3063H8.47266C7.22661 11.3063 6.21328 10.4612 6.21328 9.42192V8.95083C6.21328 8.69032 6.46633 8.47974 6.77813 8.47974H12.4266C13.3608 8.47974 14.1211 9.11383 14.1211 9.89302V10.8352C14.1211 11.0957 13.868 11.3063 13.5563 11.3063ZM7.34297 9.42192C7.34297 9.94154 7.84963 10.3641 8.47266 10.3641H12.9914V9.89302C12.9914 9.63297 12.7378 9.42192 12.4266 9.42192H7.34297Z" fill="black"/>
<path d="M20.8992 8.47974H15.2508V9.42192H20.8992V8.47974Z" fill="black"/>
<path d="M20.8992 10.364H15.2508V11.3062H20.8992V10.364Z" fill="black"/>
<path d="M19.7695 1.8844H16.3805V2.82659H19.7695V1.8844Z" fill="black"/>
<path d="M32.1961 29.679H3.95391V27.7946C3.95391 27.5345 4.20696 27.3235 4.51875 27.3235H31.6313C31.943 27.3235 32.1961 27.5345 32.1961 27.7946V29.679Z" fill="#50595D"/>
<g opacity="0.5">
<path opacity="0.5" d="M6.21328 27.3235H4.51875C4.20696 27.3235 3.95391 27.5345 3.95391 27.7946V29.679H5.64844V27.7946C5.64844 27.5345 5.90149 27.3235 6.21328 27.3235Z" fill="#414547"/>
</g>
<path d="M31.6313 19.7859H4.51875C4.20696 19.7859 3.95391 19.5748 3.95391 19.3148V17.4304H32.1961V19.3148C32.1961 19.5748 31.943 19.7859 31.6313 19.7859Z" fill="#737A7D"/>
<g opacity="0.5">
<path opacity="0.5" d="M5.64844 19.3148V17.4304H3.95391V19.3148C3.95391 19.5748 4.20696 19.7859 4.51875 19.7859H6.21328C5.90149 19.7859 5.64844 19.5748 5.64844 19.3148Z" fill="#565C5E"/>
</g>
<path d="M18.6398 21.1992H17.5102V22.1414H18.6398V21.1992Z" fill="black"/>
<path d="M18.6398 24.968H17.5102V25.9102H18.6398V24.968Z" fill="black"/>
<path d="M32.1961 12.3351V9.11661C32.1961 7.9987 31.4042 6.98444 30.1785 6.53219L29.0731 6.12422H30.5016V5.18203H28.4517L27.2469 2.25089C26.6934 0.9045 25.1497 0 23.406 0H12.744C10.9998 0 9.45605 0.9045 8.9025 2.25089L7.69826 5.18203H5.64844V6.12422H6.67645L5.78852 6.50675C4.65714 6.99386 3.95391 7.9563 3.95391 9.01862V12.3356C3.29812 12.5302 2.82422 13.0484 2.82422 13.6617V14.1328C2.82422 14.912 3.5845 15.5461 4.51875 15.5461H5.08359V16.4883C5.08359 16.6541 5.12426 16.8115 5.18753 16.9594H3.95391C3.64211 16.9594 3.38906 17.17 3.38906 17.4305V19.3148C3.38906 19.8345 3.89573 20.257 4.51875 20.257H6.77813V21.6703C6.77813 21.8931 6.96509 22.0853 7.22661 22.1315L15.3332 23.5547L7.22661 24.9779C6.96509 25.024 6.77813 25.2162 6.77813 25.4391V26.8523H4.51875C3.89573 26.8523 3.38906 27.2749 3.38906 27.7945V29.6789C3.38906 29.9394 3.64211 30.15 3.95391 30.15H32.1961C32.5079 30.15 32.7609 29.9394 32.7609 29.6789V27.7945C32.7609 27.2749 32.2543 26.8523 31.6313 26.8523H29.3719V25.4391C29.3719 25.2162 29.1849 25.024 28.9234 24.9779L20.8168 23.5547L28.9234 22.1315C29.1849 22.0853 29.3719 21.8931 29.3719 21.6703V20.257H31.6313C32.2543 20.257 32.7609 19.8345 32.7609 19.3148V17.4305C32.7609 17.17 32.5079 16.9594 32.1961 16.9594H30.9625C31.0257 16.8115 31.0664 16.6541 31.0664 16.4883V15.5461H31.6313C32.5655 15.5461 33.3258 14.912 33.3258 14.1328V13.6617C33.3258 13.0484 32.8519 12.5302 32.1961 12.3351ZM9.97119 2.55663C10.3683 1.59088 11.4827 0.942187 12.744 0.942187H23.4054C24.6667 0.942187 25.7812 1.59088 26.1782 2.55663L27.4644 5.68469L26.2421 5.97582L25.6705 5.02139C25.3818 4.53946 24.8006 4.23984 24.1544 4.23984H22.1622C21.516 4.23984 20.9359 4.53946 20.6467 5.02092C20.6377 5.03599 20.6298 5.05154 20.6224 5.06756L19.9418 6.59531H16.2088L15.5281 5.06756C15.5208 5.05201 15.5129 5.03646 15.5038 5.02092C15.2146 4.53946 14.634 4.23984 13.9878 4.23984H11.9956C11.3494 4.23984 10.7687 4.53946 10.4795 5.02139L9.87121 6.03707L8.64324 5.78786L9.97119 2.55663ZM25.1372 6.23964L24.3131 6.43608L23.5269 6.59531H21.1472L21.6691 5.4237C21.7685 5.27389 21.9555 5.18203 22.1622 5.18203H24.1544C24.3696 5.18203 24.5639 5.2819 24.66 5.44302L25.1372 6.23964ZM15.0028 6.59531H12.6231L10.9969 6.26555L11.4895 5.44255C11.5861 5.2819 11.7798 5.18203 11.9956 5.18203H13.9878C14.1945 5.18203 14.3815 5.27389 14.4809 5.4237L15.0028 6.59531ZM5.08359 9.01862C5.08359 8.31056 5.55241 7.66893 6.30648 7.34388L7.97729 6.62452L12.2712 7.52337C12.3164 7.53326 12.3627 7.5375 12.4091 7.5375H12.5553H23.5941H23.7234C23.776 7.5375 23.8285 7.53138 23.8788 7.5196L24.6069 7.34624L27.8248 6.69377L29.7209 7.39382C30.5383 7.69532 31.0664 8.37181 31.0664 9.11708V12.2484H22.0289H14.1211H5.08359V9.01862ZM9.31992 14.6039C8.8528 14.6039 8.47266 14.2869 8.47266 13.8973C8.47266 13.5077 8.8528 13.1906 9.31992 13.1906C9.78705 13.1906 10.1672 13.5077 10.1672 13.8973C10.1672 14.2869 9.78705 14.6039 9.31992 14.6039ZM11.0986 13.1906H13.5563V14.6039H11.0986C11.2218 14.3891 11.2969 14.1512 11.2969 13.8973C11.2969 13.6433 11.2218 13.4054 11.0986 13.1906ZM13.5563 15.5461V16.0172C13.5563 16.2777 13.8093 16.4883 14.1211 16.4883H22.0289C22.3407 16.4883 22.5938 16.2777 22.5938 16.0172V15.5461H25.418V16.4883C25.418 16.6541 25.4586 16.8115 25.5219 16.9594H10.6281C10.6914 16.8115 10.732 16.6541 10.732 16.4883V15.5461H13.5563ZM14.6859 15.5461V13.1906H21.4641V15.5461H14.6859ZM24.4865 14.6039H22.5938V13.1906H24.4865C24.3634 13.4054 24.2883 13.6433 24.2883 13.8973C24.2883 14.1512 24.3634 14.3891 24.4865 14.6039ZM25.418 13.8973C25.418 13.5077 25.7981 13.1906 26.2652 13.1906C26.7324 13.1906 27.1125 13.5077 27.1125 13.8973C27.1125 14.2869 26.7324 14.6039 26.2652 14.6039C25.7981 14.6039 25.418 14.2869 25.418 13.8973ZM4.51875 14.6039C4.20752 14.6039 3.95391 14.3929 3.95391 14.1328V13.6617C3.95391 13.4017 4.20752 13.1906 4.51875 13.1906H7.54123C7.41809 13.4054 7.34297 13.6433 7.34297 13.8973C7.34297 14.1512 7.41809 14.3891 7.54123 14.6039H5.64844H4.51875ZM6.21328 16.4883V15.5461H9.60234V16.4883C9.60234 16.7483 9.34873 16.9594 9.0375 16.9594H6.77813C6.4669 16.9594 6.21328 16.7483 6.21328 16.4883ZM31.6313 27.7945V29.2078H29.3719V28.7367H28.2422V29.2078H25.9828V28.7367H24.8531V29.2078H22.5938V28.7367H21.4641V29.2078H18.6398V28.7367H17.5102V29.2078H14.6859V28.7367H13.5563V29.2078H11.2969V28.7367H10.1672V29.2078H7.90781V28.7367H6.77813V29.2078H4.51875V27.7945H31.6313ZM28.2422 25.8216V26.8523H7.90781V25.8216L18.075 24.0361L28.2422 25.8216ZM28.2422 21.2878L18.075 23.0732L7.90781 21.2878V20.257H28.2422V21.2878ZM31.6318 19.3148H4.51875V17.9016H6.77813V18.3727H7.90781V17.9016H9.0375H10.1672V18.3727H11.2969V17.9016H13.5563V18.3727H14.6859V17.9016H17.5102V18.3727H18.6398V17.9016H21.4641V18.3727H22.5938V17.9016H24.8531V18.3727H25.9828V17.9016H27.1125H28.2422V18.3727H29.3719V17.9016H31.6313L31.6318 19.3148ZM27.1125 16.9594C26.8013 16.9594 26.5477 16.7483 26.5477 16.4883V15.5461H29.9367V16.4883C29.9367 16.7483 29.6831 16.9594 29.3719 16.9594H27.1125ZM32.1961 14.1328C32.1961 14.3929 31.9425 14.6039 31.6313 14.6039H30.5016H28.0439C28.1671 14.3891 28.2422 14.1512 28.2422 13.8973C28.2422 13.6433 28.1671 13.4054 28.0439 13.1906H31.6313C31.9425 13.1906 32.1961 13.4017 32.1961 13.6617V14.1328Z" fill="black"/>
</g>
<defs>
<clipPath id="clip0">
<rect width="36.15" height="30.15" fill="white"/>
</clipPath>
</defs>
</svg>
