<svg width="37" height="31" viewBox="0 0 37 31" fill="none" xmlns="http://www.w3.org/2000/svg">
<g clip-path="url(#clip0)">
<path d="M31.6575 27.3235H4.52247C3.8978 27.3235 3.39185 26.9019 3.39185 26.3813V25.9102C3.39185 25.3896 3.8978 24.968 4.52247 24.968H31.6575C32.2821 24.968 32.7881 25.3896 32.7881 25.9102V26.3813C32.7881 26.9019 32.2821 27.3235 31.6575 27.3235Z" fill="#BD252A"/>
<g opacity="0.5">
<path opacity="0.5" d="M5.08778 26.3813V25.9102C5.08778 25.3896 5.59374 24.968 6.21841 24.968H4.52247C3.8978 24.968 3.39185 25.3896 3.39185 25.9102V26.3813C3.39185 26.9019 3.8978 27.3235 4.52247 27.3235H6.21841C5.59374 27.3235 5.08778 26.9019 5.08778 26.3813Z" fill="#8E1C20"/>
</g>
<path d="M33.3534 18.8438H27.7003V17.9016H33.3534C34.2884 17.9016 35.0493 17.2675 35.0493 16.4883V13.6617C35.0493 12.8825 34.2884 12.2484 33.3534 12.2484H29.0079C28.5488 12.2484 28.139 12.0204 27.9632 11.6671C27.7873 11.3138 27.8834 10.911 28.2085 10.6401L31.2815 8.07926C31.6015 7.81262 31.7779 7.45789 31.7779 7.08007C31.7779 6.70225 31.6015 6.34752 31.2815 6.08088L28.8829 4.08203C28.2215 3.53085 27.1463 3.53085 26.4849 4.08203L23.4118 6.64289C23.0873 6.9133 22.604 6.99386 22.1794 6.84735C21.7555 6.70084 21.4818 6.35882 21.4818 5.97677V2.35547C21.4818 1.57628 20.7209 0.942187 19.7859 0.942187H16.394C15.459 0.942187 14.6981 1.57628 14.6981 2.35547V5.97677C14.6981 6.35929 14.4239 6.70084 13.9999 6.84735C13.5771 6.99433 13.0926 6.91377 12.7681 6.64289L9.69564 4.08203C9.03366 3.53038 7.95787 3.53085 7.29702 4.08203L4.8984 6.08088C4.57844 6.34752 4.40206 6.70225 4.40206 7.08007C4.40206 7.45789 4.57844 7.81262 4.8984 8.07926L7.97088 10.6401C8.29537 10.9105 8.39147 11.3138 8.21622 11.6671C8.04097 12.0204 7.63056 12.2484 7.17209 12.2484H2.82653C1.89151 12.2484 1.13059 12.8825 1.13059 13.6617V16.4883C1.13059 17.2675 1.89151 17.9016 2.82653 17.9016H8.47966V18.8438H2.82653C1.26797 18.8438 -3.05176e-05 17.7871 -3.05176e-05 16.4883V13.6617C-3.05176e-05 12.3629 1.26797 11.3062 2.82653 11.3062H7.17209L4.09962 8.74538C3.56596 8.30067 3.272 7.70945 3.272 7.08007C3.272 6.45069 3.56596 5.85946 4.09962 5.41475L6.49824 3.4159C7.6006 2.49821 9.39377 2.49774 10.4956 3.4159L13.5675 5.97677V2.35547C13.5675 1.05666 14.8355 0 16.394 0H19.7859C21.3445 0 22.6125 1.05666 22.6125 2.35547V5.97677L25.6855 3.4159C26.7873 2.49774 28.5805 2.49774 29.6823 3.4159L32.0809 5.41475C32.6145 5.85946 32.9085 6.45069 32.9085 7.08007C32.9085 7.70945 32.6145 8.30067 32.0809 8.74538L29.0079 11.3062H33.3534C34.912 11.3062 36.18 12.3629 36.18 13.6617V16.4883C36.18 17.7871 34.912 18.8438 33.3534 18.8438Z" fill="#B3B3B3"/>
<path d="M22.6125 12.7195H21.4818V11.3764C21.4818 11.2087 21.3739 11.0523 21.1998 10.9689L18.3726 9.60885C18.1979 9.525 17.9814 9.52405 17.8073 9.60885L14.9808 10.9689C14.8061 11.0528 14.6981 11.2087 14.6981 11.3764V12.7195H13.5675V11.3764C13.5675 10.8728 13.8925 10.4041 14.416 10.1525L17.242 8.79245C17.7649 8.54135 18.4145 8.54135 18.9379 8.79245L21.7645 10.1525C22.2874 10.4031 22.6125 10.8723 22.6125 11.3764V12.7195Z" fill="#B3B3B3"/>
<path d="M18.6553 5.65308H17.5247V6.59526H18.6553V5.65308Z" fill="#B3B3B3"/>
<path d="M26.0043 8.47974H24.8737V9.42192H26.0043V8.47974Z" fill="#B3B3B3"/>
<path d="M11.3062 8.47974H10.1756V9.42192H11.3062V8.47974Z" fill="#B3B3B3"/>
<path d="M30.5268 14.6039H29.3962V15.5461H30.5268V14.6039Z" fill="#B3B3B3"/>
<path d="M6.78373 14.6039H5.65311V15.5461H6.78373V14.6039Z" fill="#B3B3B3"/>
<path d="M7.91434 18.3726L12.5663 19.3148H23.6142L28.2656 18.3726L26.7347 14.6524C26.2599 13.4982 24.9269 12.7195 23.4254 12.7195H12.7545C11.2531 12.7195 9.9195 13.4982 9.44464 14.6524L7.91434 18.3726Z" fill="#C6D1D6"/>
<path d="M7.91434 18.3726L12.5663 19.3148H23.6142L28.2656 18.3726L26.7347 14.6524C26.2599 13.4982 24.9269 12.7195 23.4254 12.7195H12.7545C11.2531 12.7195 9.9195 13.4982 9.44464 14.6524L7.91434 18.3726Z" fill="#C6D1D6"/>
<g opacity="0.5">
<path opacity="0.5" d="M11.1411 14.6524C11.616 13.4982 12.949 12.7195 14.451 12.7195H12.7551C11.2536 12.7195 9.92007 13.4982 9.4452 14.6524L7.91434 18.3726L12.5663 19.3148H14.2622L9.61027 18.3726L11.1411 14.6524Z" fill="#A0B2BA"/>
</g>
<path d="M10.1756 18.8456L10.9936 17.4804C11.1852 17.161 11.577 16.9594 12.0055 16.9594H13.9994C14.4279 16.9594 14.8191 17.161 15.0107 17.4804L15.8287 19.3148" fill="#FCB641"/>
<path d="M26.0044 18.8456L25.1863 17.4804C24.9947 17.161 24.6029 16.9594 24.1744 16.9594H22.1806C21.7521 16.9594 21.3609 17.161 21.1692 17.4804L20.3512 19.3148" fill="#FCB641"/>
<path d="M14.1328 24.968H4.52246V21.2666C4.52246 20.3852 5.11265 19.5777 6.0522 19.1735L7.91434 18.3727L12.4193 19.3149H23.7431L27.7003 18.3727L29.9745 19.2112C30.9977 19.5886 31.6575 20.4332 31.6575 21.3655V24.968H22.0471" fill="#FD3238"/>
<path d="M7.74813 19.174L9.0557 18.6115L7.91434 18.3727L6.0522 19.174C5.11265 19.5782 4.52246 20.3857 4.52246 21.2666V24.968H6.2184V21.2666C6.2184 20.3857 6.80858 19.5782 7.74813 19.174Z" fill="#BE262A"/>
<path d="M9.04498 29.679H6.78373C6.15906 29.679 5.65311 29.2573 5.65311 28.7368V27.3235H10.1756V28.7368C10.1756 29.2573 9.66965 29.679 9.04498 29.679Z" fill="#50595D"/>
<g opacity="0.5">
<path opacity="0.5" d="M6.78373 28.7368V27.3235H5.65311V28.7368C5.65311 29.2573 6.15906 29.679 6.78373 29.679H7.91436C7.28969 29.679 6.78373 29.2573 6.78373 28.7368Z" fill="#414547"/>
</g>
<path d="M29.3962 29.679H27.135C26.5103 29.679 26.0043 29.2573 26.0043 28.7368V27.3235H30.5268V28.7368C30.5268 29.2573 30.0209 29.679 29.3962 29.679Z" fill="#50595D"/>
<path d="M27.7003 23.0836H22.6125V22.1414C22.6125 21.6208 23.1184 21.1992 23.7431 21.1992H29.3962V21.6703C29.3962 22.4509 28.637 23.0836 27.7003 23.0836Z" fill="#FDD38D"/>
<path d="M27.7003 23.5547H22.6125C22.2998 23.5547 22.0471 23.3441 22.0471 23.0836V22.1414C22.0471 21.3622 22.8081 20.7281 23.7431 20.7281H29.3962C29.7088 20.7281 29.9615 20.9387 29.9615 21.1992V21.6703C29.9615 22.7096 28.9474 23.5547 27.7003 23.5547ZM23.1778 22.6125H27.7003C28.3238 22.6125 28.8309 22.19 28.8309 21.6703H23.7431C23.431 21.6703 23.1778 21.8814 23.1778 22.1414V22.6125Z" fill="black"/>
<path d="M8.47966 23.0836H13.5675V22.1414C13.5675 21.6208 13.0615 21.1992 12.4368 21.1992H6.78372V21.6703C6.78372 22.4509 7.54294 23.0836 8.47966 23.0836Z" fill="#FDD38D"/>
<path d="M13.5675 23.5547H8.47966C7.23258 23.5547 6.21841 22.7096 6.21841 21.6703V21.1992C6.21841 20.9387 6.47167 20.7281 6.78373 20.7281H12.4369C13.3719 20.7281 14.1328 21.3622 14.1328 22.1414V23.0836C14.1328 23.3441 13.8795 23.5547 13.5675 23.5547ZM7.34904 21.6703C7.34904 22.19 7.85612 22.6125 8.47966 22.6125H13.0022V22.1414C13.0022 21.8814 12.7483 21.6703 12.4369 21.6703H7.34904Z" fill="black"/>
<path d="M9.32762 27.3235C10.1082 27.3235 10.7409 26.7962 10.7409 26.1458C10.7409 25.4953 10.1082 24.968 9.32762 24.968C8.54708 24.968 7.91434 25.4953 7.91434 26.1458C7.91434 26.7962 8.54708 27.3235 9.32762 27.3235Z" fill="#FCB641"/>
<path d="M26.287 27.3235C27.0675 27.3235 27.7003 26.7962 27.7003 26.1458C27.7003 25.4953 27.0675 24.968 26.287 24.968C25.5065 24.968 24.8737 25.4953 24.8737 26.1458C24.8737 26.7962 25.5065 27.3235 26.287 27.3235Z" fill="#FCB641"/>
<path d="M22.0472 24.968H14.1328V28.2657H22.0472V24.968Z" fill="#FDC567"/>
<path d="M20.9165 20.7281H15.2634V21.6703H20.9165V20.7281Z" fill="black"/>
<path d="M20.9165 22.6125H15.2634V23.5547H20.9165V22.6125Z" fill="black"/>
<path d="M19.7859 14.1328H16.394V15.075H19.7859V14.1328Z" fill="black"/>
<path d="M32.2228 24.5835V21.365C32.2228 20.2471 31.4302 19.2328 30.2035 18.7806L29.0966 18.3726H30.5269V17.4304H28.4759L27.2701 14.4993C26.7161 13.1529 25.1705 12.2484 23.4254 12.2484H12.7546C11.0089 12.2484 9.46387 13.1529 8.90987 14.4993L7.70462 17.4304H5.6531V18.3726H6.68197L5.7933 18.7552C4.66098 19.2423 3.95716 20.2047 3.95716 21.267V24.584C3.30084 24.7786 2.82654 25.2968 2.82654 25.9101V26.3812C2.82654 27.1604 3.58745 27.7945 4.52248 27.7945H5.08779V28.7367C5.08779 29.5159 5.8487 30.15 6.78373 30.15H9.04498C9.98 30.15 10.7409 29.5159 10.7409 28.7367V27.7945H13.5675V28.2656C13.5675 28.5261 13.8207 28.7367 14.1328 28.7367H22.0472C22.3598 28.7367 22.6125 28.5261 22.6125 28.2656V27.7945H25.439V28.7367C25.439 29.5159 26.1999 30.15 27.135 30.15H29.3962C30.3313 30.15 31.0922 29.5159 31.0922 28.7367V27.7945H31.6575C32.5925 27.7945 33.3534 27.1604 33.3534 26.3812V25.9101C33.3534 25.2968 32.8791 24.7786 32.2228 24.5835ZM23.5458 18.8437H21.1641L21.6865 17.6721C21.7866 17.5223 21.9737 17.4304 22.1806 17.4304H24.1744C24.3898 17.4304 24.5837 17.5303 24.6804 17.6914L25.1581 18.488L24.3367 18.6836L23.5458 18.8437ZM9.97944 14.805C10.3769 13.8393 11.4922 13.1906 12.7546 13.1906H23.4248C24.6872 13.1906 25.8025 13.8393 26.1994 14.805L27.4866 17.9336L26.2638 18.2247L25.6917 17.2703C25.4029 16.7879 24.8212 16.4883 24.175 16.4883H22.1811C21.5344 16.4883 20.9533 16.7879 20.6638 17.2693C20.6548 17.2844 20.6469 17.3 20.6395 17.316L19.9583 18.8437H16.2222L15.541 17.316C15.5336 17.3004 15.5257 17.2849 15.5167 17.2693C15.2272 16.7879 14.6461 16.4883 13.9994 16.4883H12.0055C11.3588 16.4883 10.7777 16.7879 10.4882 17.2698L9.87938 18.2855L8.65039 18.0363L9.97944 14.805ZM11.006 18.514L11.499 17.691C11.5957 17.5303 11.7896 17.4304 12.0055 17.4304H13.9994C14.2063 17.4304 14.3934 17.5223 14.4929 17.6721L15.0152 18.8437H12.6336L11.006 18.514ZM3.95716 26.3812V25.9101C3.95716 25.6501 4.21099 25.439 4.52248 25.439H7.54746C7.42422 25.6539 7.34904 25.8918 7.34904 26.1457C7.34904 26.3996 7.42422 26.6375 7.54746 26.8523H5.6531H4.52248C4.21099 26.8523 3.95716 26.6413 3.95716 26.3812ZM10.1756 26.1457C10.1756 26.5353 9.79515 26.8523 9.32763 26.8523C8.86012 26.8523 8.47966 26.5353 8.47966 26.1457C8.47966 25.7561 8.86012 25.439 9.32763 25.439C9.79515 25.439 10.1756 25.7561 10.1756 26.1457ZM9.61029 28.7367C9.61029 28.9967 9.35646 29.2078 9.04498 29.2078H6.78373C6.47224 29.2078 6.21841 28.9967 6.21841 28.7367V27.7945H9.61029V28.7367ZM11.1078 26.8523C11.231 26.6375 11.3062 26.3996 11.3062 26.1457C11.3062 25.8918 11.231 25.6539 11.1078 25.439H13.5675V26.8523H11.1078ZM21.4819 27.7945H14.6981V25.439H21.4819V27.7945ZM14.1328 24.4969H5.08779V21.267C5.08779 20.559 5.557 19.9173 6.31169 19.5923L7.98388 18.8729L12.2814 19.7718C12.3266 19.7817 12.373 19.7859 12.4193 19.7859H12.5657H23.6136H23.7431C23.7957 19.7859 23.8482 19.7798 23.898 19.768L24.6256 19.5946L27.8478 18.9422L29.7462 19.6422C30.5636 19.9437 31.0922 20.6202 31.0922 21.3655V24.4969H22.0472H14.1328ZM27.135 26.1457C27.135 26.5353 26.7545 26.8523 26.287 26.8523C25.8195 26.8523 25.439 26.5353 25.439 26.1457C25.439 25.7561 25.8195 25.439 26.287 25.439C26.7545 25.439 27.135 25.7561 27.135 26.1457ZM22.6125 25.439H24.5068C24.3836 25.6539 24.3084 25.8918 24.3084 26.1457C24.3084 26.3996 24.3836 26.6375 24.5068 26.8523H22.6125V25.439ZM29.9615 28.7367C29.9615 28.9967 29.7083 29.2078 29.3962 29.2078H27.135C26.8229 29.2078 26.5697 28.9967 26.5697 28.7367V27.7945H29.9615V28.7367ZM32.2228 26.3812C32.2228 26.6413 31.9695 26.8523 31.6575 26.8523H30.5269H28.0672C28.1904 26.6375 28.2656 26.3996 28.2656 26.1457C28.2656 25.8918 28.1904 25.6539 28.0672 25.439H31.6575C31.9695 25.439 32.2228 25.6501 32.2228 25.9101V26.3812Z" fill="black"/>
</g>
<defs>
<clipPath id="clip0">
<rect width="36.18" height="30.15" fill="white"/>
</clipPath>
</defs>
</svg>
