<svg width="37" height="31" viewBox="0 0 37 31" fill="none" xmlns="http://www.w3.org/2000/svg">
<g clip-path="url(#clip0)">
<path d="M8.47977 29.6784H1.13082C0.818777 29.6784 0.565521 29.4674 0.565521 29.2073V0.942156C0.565521 0.682116 0.818777 0.471069 1.13082 0.471069H24.3083C24.6203 0.471069 24.8736 0.682116 24.8736 0.942156V12.7193L8.47977 29.6784Z" fill="#58B8E2"/>
<path d="M22.0471 26.3809H3.39206C3.08001 26.3809 2.82675 26.1698 2.82675 25.9098V3.29762C2.82675 3.03758 3.08001 2.82654 3.39206 2.82654H22.0471C22.3591 2.82654 22.6124 3.03758 22.6124 3.29762V25.9098C22.6124 26.1698 22.3591 26.3809 22.0471 26.3809Z" fill="#FDC567"/>
<path d="M34.4838 27.323H7.34917C6.72451 27.323 6.21857 26.9013 6.21857 26.3808V25.9097C6.21857 25.3892 6.72451 24.9675 7.34917 24.9675H34.4838C35.1084 24.9675 35.6144 25.3892 35.6144 25.9097V26.3808C35.6144 26.9013 35.1084 27.323 34.4838 27.323Z" fill="#BD252A"/>
<g opacity="0.5">
<path opacity="0.5" d="M7.91448 26.3808V25.9097C7.91448 25.3892 8.42042 24.9675 9.04508 24.9675H7.34917C6.72451 24.9675 6.21857 25.3892 6.21857 25.9097V26.3808C6.21857 26.9013 6.72451 27.323 7.34917 27.323H9.04508C8.42042 27.323 7.91448 26.9013 7.91448 26.3808Z" fill="#8E1C20"/>
</g>
<path d="M10.741 18.3724L15.3929 19.3146H26.4406L31.0919 18.3724L29.5611 14.6522C29.0862 13.4981 27.7532 12.7194 26.2518 12.7194H15.5811C14.0797 12.7194 12.7461 13.4981 12.2713 14.6522L10.741 18.3724Z" fill="#C6D1D6"/>
<g opacity="0.5">
<path opacity="0.5" d="M13.9678 14.6522C14.4426 13.4981 15.7756 12.7194 17.2776 12.7194H15.5817C14.0802 12.7194 12.7467 13.4981 12.2718 14.6522L10.741 18.3724L15.3929 19.3146H17.0888L12.4369 18.3724L13.9678 14.6522Z" fill="#A0B2BA"/>
</g>
<path d="M13.0022 18.8453L13.8202 17.4801C14.0118 17.1607 14.4036 16.9591 14.8321 16.9591H16.8259C17.2544 16.9591 17.6456 17.1607 17.8372 17.4801L18.6552 19.3145" fill="#FCB641"/>
<path d="M28.8307 18.8453L28.0127 17.4801C27.8211 17.1607 27.4293 16.9591 27.0008 16.9591H25.007C24.5785 16.9591 24.1873 17.1607 23.9957 17.4801L23.1777 19.3145" fill="#FCB641"/>
<path d="M16.9593 24.9675H7.34918V21.2662C7.34918 20.3848 7.93936 19.5774 8.87889 19.1732L10.741 18.3723L15.2459 19.3145H26.5695L30.5266 18.3723L32.8008 19.2108C33.824 19.5882 34.4838 20.4328 34.4838 21.3651V24.9675H24.8736" fill="#FD3238"/>
<path d="M10.5748 19.1736L11.8824 18.6112L10.741 18.3723L8.87889 19.1736C7.93936 19.5778 7.34918 20.3853 7.34918 21.2662V24.9675H9.04509V21.2662C9.04509 20.3853 9.63527 19.5778 10.5748 19.1736Z" fill="#BE262A"/>
<path d="M11.8716 29.6784H9.61037C8.98571 29.6784 8.47977 29.2568 8.47977 28.7363V27.323H13.0022V28.7363C13.0022 29.2568 12.4963 29.6784 11.8716 29.6784Z" fill="#50595D"/>
<g opacity="0.5">
<path opacity="0.5" d="M9.61037 28.7363V27.323H8.47977V28.7363C8.47977 29.2568 8.98571 29.6784 9.61037 29.6784H10.741C10.1163 29.6784 9.61037 29.2568 9.61037 28.7363Z" fill="#414547"/>
</g>
<path d="M32.2225 29.6784H29.9613C29.3367 29.6784 28.8307 29.2568 28.8307 28.7363V27.323H33.3531V28.7363C33.3531 29.2568 32.8472 29.6784 32.2225 29.6784Z" fill="#50595D"/>
<path d="M30.5266 23.0832H25.4389V22.141C25.4389 21.6205 25.9449 21.1989 26.5695 21.1989H32.2225V21.6699C32.2225 22.4505 31.4633 23.0832 30.5266 23.0832Z" fill="#FDD38D"/>
<path d="M30.5266 23.5543H25.4389C25.1269 23.5543 24.8736 23.3437 24.8736 23.0832V22.141C24.8736 21.3619 25.6345 20.7278 26.5695 20.7278H32.2225C32.5346 20.7278 32.7878 20.9384 32.7878 21.1989V21.67C32.7878 22.7092 31.7737 23.5543 30.5266 23.5543ZM26.0042 22.6121H30.5266C31.1502 22.6121 31.6572 22.1896 31.6572 21.67H26.5695C26.258 21.67 26.0042 21.881 26.0042 22.141V22.6121Z" fill="black"/>
<path d="M11.3063 23.0832H16.394V22.141C16.394 21.6205 15.8881 21.1989 15.2634 21.1989H9.61038V21.6699C9.61038 22.4505 10.3696 23.0832 11.3063 23.0832Z" fill="#FDD38D"/>
<path d="M16.394 23.5543H11.3063C10.0592 23.5543 9.04507 22.7092 9.04507 21.67V21.1989C9.04507 20.9384 9.29833 20.7278 9.61038 20.7278H15.2634C16.1984 20.7278 16.9593 21.3619 16.9593 22.141V23.0832C16.9593 23.3437 16.7061 23.5543 16.394 23.5543ZM10.1757 21.67C10.1757 22.1896 10.6828 22.6121 11.3063 22.6121H15.8287V22.141C15.8287 21.881 15.5749 21.67 15.2634 21.67H10.1757Z" fill="black"/>
<path d="M12.1543 27.323C12.9348 27.323 13.5675 26.7957 13.5675 26.1452C13.5675 25.4948 12.9348 24.9675 12.1543 24.9675C11.3737 24.9675 10.741 25.4948 10.741 26.1452C10.741 26.7957 11.3737 27.323 12.1543 27.323Z" fill="#FCB641"/>
<path d="M29.1134 27.323C29.8939 27.323 30.5266 26.7957 30.5266 26.1452C30.5266 25.4948 29.8939 24.9675 29.1134 24.9675C28.3328 24.9675 27.7001 25.4948 27.7001 26.1452C27.7001 26.7957 28.3328 27.323 29.1134 27.323Z" fill="#FCB641"/>
<path d="M24.8736 24.9675H16.9593V28.2651H24.8736V24.9675Z" fill="#FDC567"/>
<path d="M23.743 20.7278H18.0899V21.67H23.743V20.7278Z" fill="black"/>
<path d="M23.743 22.6122H18.0899V23.5544H23.743V22.6122Z" fill="black"/>
<path d="M22.6124 14.1326H19.2206V15.0747H22.6124V14.1326Z" fill="black"/>
<path d="M35.0491 24.5832V21.3648C35.0491 20.2469 34.2565 19.2326 33.0298 18.7804L31.9235 18.3724H33.3532V17.4302H31.3017L30.0959 14.4991C29.5419 13.1528 27.9969 12.2483 26.2518 12.2483H15.5811C13.8355 12.2483 12.2905 13.1528 11.7365 14.4991L10.5313 17.4302H8.47978V18.3724H9.50863L8.61998 18.7549C7.48767 19.242 6.78387 20.2045 6.78387 21.2668V24.5837C6.12755 24.7787 5.65326 25.2969 5.65326 25.9103V26.3814C5.65326 27.1605 6.41416 27.7946 7.34917 27.7946H7.91448V28.7368C7.91448 29.516 8.67538 30.15 9.61039 30.15H11.8716C12.8066 30.15 13.5675 29.516 13.5675 28.7368V27.7946H16.394V28.2657C16.394 28.5262 16.6473 28.7368 16.9593 28.7368H24.8736C25.1857 28.7368 25.4389 28.5262 25.4389 28.2657V27.7946H28.2654V28.7368C28.2654 29.516 29.0263 30.15 29.9613 30.15H32.2226C33.1576 30.15 33.9185 29.516 33.9185 28.7368V27.7946H34.4838C35.4188 27.7946 36.1797 27.1605 36.1797 26.3814V25.9103C36.1797 25.2964 35.7054 24.7782 35.0491 24.5832ZM26.3728 18.8435H23.9912L24.5135 17.6719C24.613 17.5221 24.8001 17.4302 25.007 17.4302H27.0008C27.2162 17.4302 27.4107 17.5301 27.5068 17.6912L27.9845 18.4878L27.1597 18.6843L26.3728 18.8435ZM12.8061 14.8049C13.2035 13.8391 14.3188 13.1905 15.5811 13.1905H26.2513C27.5136 13.1905 28.6289 13.8391 29.0263 14.8049L30.3135 17.9329L29.0902 18.224L28.5181 17.2696C28.2292 16.7877 27.6476 16.4881 27.0008 16.4881H25.007C24.3603 16.4881 23.7797 16.7877 23.4903 17.2691C23.4813 17.2842 23.4733 17.2997 23.466 17.3158L22.7848 18.8435H19.0487L18.3675 17.3158C18.3602 17.3002 18.3523 17.2847 18.3432 17.2691C18.0538 16.7877 17.4726 16.4881 16.8259 16.4881H14.8321C14.1854 16.4881 13.6043 16.7877 13.3148 17.2696L12.706 18.2853L11.477 18.0361L12.8061 14.8049ZM13.8326 18.5137L14.3256 17.6908C14.4223 17.5301 14.6162 17.4302 14.8321 17.4302H16.8259C17.0328 17.4302 17.22 17.5221 17.3194 17.6719L17.8418 18.8435H15.4602L13.8326 18.5137ZM6.78387 26.3809V25.9098C6.78387 25.6498 7.03769 25.4387 7.34917 25.4387H10.3741C10.2509 25.6535 10.1757 25.8914 10.1757 26.1453C10.1757 26.3993 10.2509 26.6372 10.3741 26.852H8.47978H7.34917C7.03769 26.852 6.78387 26.6409 6.78387 26.3809ZM13.0022 26.1453C13.0022 26.5349 12.6218 26.852 12.1543 26.852C11.6868 26.852 11.3063 26.5349 11.3063 26.1453C11.3063 25.7557 11.6868 25.4387 12.1543 25.4387C12.6218 25.4387 13.0022 25.7557 13.0022 26.1453ZM12.4369 28.7363C12.4369 28.9964 12.1831 29.2074 11.8716 29.2074H9.61039C9.29891 29.2074 9.04508 28.9964 9.04508 28.7363V27.7941H12.4369V28.7363ZM13.9344 26.852C14.0576 26.6372 14.1328 26.3993 14.1328 26.1453C14.1328 25.8914 14.0576 25.6535 13.9344 25.4387H16.394V26.852H13.9344ZM24.3083 27.7941H17.5246V25.4387H24.3083V27.7941ZM16.9593 24.4965H7.91448V21.2668C7.91448 20.5587 8.38368 19.9171 9.13836 19.5921L10.8105 18.8727L15.108 19.7715C15.1532 19.7814 15.1996 19.7857 15.2459 19.7857H15.3923H26.4401H26.5695C26.6221 19.7857 26.6747 19.7795 26.725 19.7678L27.4537 19.5944L30.6742 18.942L32.5719 19.642C33.3899 19.9435 33.9185 20.62 33.9185 21.3652V24.4965H24.8736H16.9593ZM29.9613 26.1453C29.9613 26.5349 29.5809 26.852 29.1134 26.852C28.6459 26.852 28.2654 26.5349 28.2654 26.1453C28.2654 25.7557 28.6459 25.4387 29.1134 25.4387C29.5809 25.4387 29.9613 25.7557 29.9613 26.1453ZM25.4389 25.4387H27.3332C27.21 25.6535 27.1348 25.8914 27.1348 26.1453C27.1348 26.3993 27.21 26.6372 27.3332 26.852H25.4389V25.4387ZM32.7879 28.7363C32.7879 28.9964 32.534 29.2074 32.2226 29.2074H29.9613C29.6499 29.2074 29.396 28.9964 29.396 28.7363V27.7941H32.7879V28.7363ZM35.0491 26.3809C35.0491 26.6409 34.7953 26.852 34.4838 26.852H33.3532H30.8935C31.0168 26.6372 31.092 26.3993 31.092 26.1453C31.092 25.8914 31.0168 25.6535 30.8935 25.4387H34.4838C34.7953 25.4387 35.0491 25.6498 35.0491 25.9098V26.3809Z" fill="black"/>
<path d="M18.6552 5.18193H7.34917C6.72451 5.18193 6.21857 4.76031 6.21857 4.23976V0.471069H19.7859V4.23976C19.7859 4.76031 19.2799 5.18193 18.6552 5.18193Z" fill="#FD5B60"/>
<path d="M24.3184 0H19.7858H6.21855H1.13082C0.507291 0 0.000213623 0.422564 0.000213623 0.942173V29.2074C0.000213623 29.727 0.507291 30.1495 1.13082 30.1495H6.78386V29.2074H1.13082V0.942173H5.65325V2.35543H3.39204C2.76851 2.35543 2.26143 2.778 2.26143 3.2976V25.9098C2.26143 26.4294 2.76851 26.8519 3.39204 26.8519H4.52264V25.9098H3.39204V3.2976H5.65325V4.23978C5.65325 5.01895 6.41415 5.65304 7.34916 5.65304H18.6552C19.5902 5.65304 20.3511 5.01895 20.3511 4.23978V3.2976H22.0471V11.3061H23.1777V3.2976C23.1777 2.778 22.6706 2.35543 22.0471 2.35543H20.3511V0.942173H24.3184L24.3083 11.3056L25.4389 11.3065L25.4491 0.942644C25.4491 0.422564 24.942 0 24.3184 0ZM19.2205 4.23978C19.2205 4.49982 18.9667 4.71086 18.6552 4.71086H7.34916C7.03768 4.71086 6.78386 4.49982 6.78386 4.23978V0.942173H19.2205V4.23978Z" fill="black"/>
<path d="M27.1348 3.76871V8.27418L31.0919 10.3639L35.049 8.27418V3.76871L31.0919 2.82654L27.1348 3.76871Z" fill="#FD3238"/>
<path d="M27.1348 3.76871V8.27418L31.0919 10.3639L35.049 8.27418V3.76871L31.0919 2.82654L27.1348 3.76871Z" fill="#FD3238"/>
<path d="M31.0919 10.835C30.9868 10.835 30.8816 10.8105 30.7895 10.762L26.8324 8.67226C26.6684 8.58605 26.5695 8.43578 26.5695 8.27419V3.76872C26.5695 3.55862 26.7368 3.37348 26.9793 3.31554L30.9365 2.37337C31.0382 2.34934 31.1456 2.34934 31.2474 2.37337L35.2045 3.31554C35.447 3.37348 35.6143 3.55862 35.6143 3.76872V8.27419C35.6143 8.43578 35.5154 8.58558 35.3515 8.67226L31.3944 10.762C31.3022 10.8105 31.1971 10.835 31.0919 10.835ZM27.7001 8.01557L31.0919 9.80664L34.4837 8.01557V4.12392L31.0919 3.31648L27.7001 4.12392V8.01557Z" fill="black"/>
<path d="M31.0919 10.835C30.9868 10.835 30.8816 10.8105 30.7895 10.762L26.8324 8.67226C26.6684 8.58605 26.5695 8.43578 26.5695 8.27419V3.76872C26.5695 3.55862 26.7368 3.37348 26.9793 3.31554L30.9365 2.37337C31.0382 2.34934 31.1456 2.34934 31.2474 2.37337L35.2045 3.31554C35.447 3.37348 35.6143 3.55862 35.6143 3.76872V8.27419C35.6143 8.43578 35.5154 8.58558 35.3515 8.67226L31.3944 10.762C31.3022 10.8105 31.1971 10.835 31.0919 10.835ZM27.7001 8.01557L31.0919 9.80664L34.4837 8.01557V4.12392L31.0919 3.31648L27.7001 4.12392V8.01557Z" fill="black"/>
<path d="M7.34918 9.89285C7.19994 9.89285 7.05579 9.84385 6.94951 9.75482L5.81891 8.81264L6.61825 8.14653L7.28813 8.70477L8.59285 7.25476L9.49733 7.81959L7.80142 9.70394C7.70306 9.81323 7.55269 9.88154 7.38932 9.89096C7.37575 9.89237 7.36218 9.89285 7.34918 9.89285Z" fill="black"/>
<path d="M7.34918 13.1905C7.19994 13.1905 7.05579 13.1415 6.94951 13.0524L5.81891 12.1103L6.61825 11.4441L7.28813 12.0024L8.59285 10.5524L9.49733 11.1172L7.80142 13.0015C7.70306 13.1108 7.55269 13.1791 7.38932 13.1886C7.37575 13.19 7.36218 13.1905 7.34918 13.1905Z" fill="black"/>
<path d="M7.34918 16.4881C7.19994 16.4881 7.05579 16.4391 6.94951 16.35L5.81891 15.4079L6.61825 14.7417L7.28813 15.3L8.59285 13.85L9.49733 14.4148L7.80142 16.2992C7.70306 16.4085 7.55269 16.4768 7.38932 16.4862C7.37575 16.4876 7.36218 16.4881 7.34918 16.4881Z" fill="black"/>
<path d="M19.7859 8.00842H10.741V8.95059H19.7859V8.00842Z" fill="black"/>
<path d="M13.0022 11.306H10.741V12.2482H13.0022V11.306Z" fill="black"/>
<path d="M9.61037 2.35547H8.47977V3.29764H9.61037V2.35547Z" fill="black"/>
<path d="M17.5246 2.35547H16.394V3.29764H17.5246V2.35547Z" fill="black"/>
<path d="M13.5675 2.35547H12.4369V3.29764H13.5675V2.35547Z" fill="black"/>
<path d="M31.6572 4.71082H30.5266V6.59516H31.6572V4.71082Z" fill="black"/>
<path d="M31.6572 7.53735H30.5266V8.47953H31.6572V7.53735Z" fill="black"/>
</g>
<defs>
<clipPath id="clip0">
<rect width="36.18" height="30.15" fill="white"/>
</clipPath>
</defs>
</svg>
