<svg width="37" height="31" viewBox="0 0 37 31" fill="none" xmlns="http://www.w3.org/2000/svg">
<g clip-path="url(#clip0)">
<path d="M35.6147 16.9594H0.565312V1.41326C0.565312 0.892698 1.07127 0.471069 1.69594 0.471069H34.4841C35.1087 0.471069 35.6147 0.892698 35.6147 1.41326V16.9594Z" fill="#C6D1D6"/>
<g opacity="0.5">
<path opacity="0.5" d="M3.39187 0.471069H1.69594C1.07127 0.471069 0.565312 0.892698 0.565312 1.41326V16.9594H2.26125V1.41326C2.26125 0.892698 2.7672 0.471069 3.39187 0.471069Z" fill="#A0B2BA"/>
</g>
<path d="M35.6147 16.9594H0.565312V19.7859C0.565312 20.3065 1.07127 20.7281 1.69594 20.7281H34.4841C35.1087 20.7281 35.6147 20.3065 35.6147 19.7859V16.9594Z" fill="#FCB847"/>
<g opacity="0.5">
<path opacity="0.5" d="M2.26125 19.7859V16.9594H0.565312V19.7859C0.565312 20.3065 1.07127 20.7281 1.69594 20.7281H3.39187C2.7672 20.7281 2.26125 20.3065 2.26125 19.7859Z" fill="#BD8931"/>
</g>
<path d="M19.7859 18.3727H16.3941V19.3149H19.7859V18.3727Z" fill="black"/>
<path d="M22.0472 25.9102H14.1328L14.6981 20.7281H21.4819L22.0472 25.9102Z" fill="#FCB641"/>
<path d="M25.4391 29.6789H0.565312V28.7367C0.565312 28.2162 1.07127 27.7946 1.69594 27.7946H24.3084C24.9331 27.7946 25.4391 28.2162 25.4391 28.7367V29.6789Z" fill="#2EA6DB"/>
<g opacity="0.5">
<path opacity="0.5" d="M3.39187 27.7946H1.69594C1.07127 27.7946 0.565312 28.2162 0.565312 28.7367V29.6789H2.26125V28.7367C2.26125 28.2162 2.7672 27.7946 3.39187 27.7946Z" fill="#237DA4"/>
</g>
<path d="M25.4391 30.15H0.565313C0.252695 30.15 0 29.9395 0 29.679V28.7368C0 27.9576 0.760911 27.3235 1.69594 27.3235H24.3084C25.2435 27.3235 26.0044 27.9576 26.0044 28.7368V29.679C26.0044 29.9395 25.7517 30.15 25.4391 30.15ZM1.13063 29.2079H24.8738V28.7368C24.8738 28.4767 24.6205 28.2657 24.3084 28.2657H1.69594C1.38389 28.2657 1.13063 28.4767 1.13063 28.7368V29.2079Z" fill="black"/>
<path d="M35.6147 29.6789H28.8309V28.7367C28.8309 28.2162 29.3369 27.7946 29.9616 27.7946H34.4841C35.1087 27.7946 35.6147 28.2162 35.6147 28.7367V29.6789Z" fill="#2EA6DB"/>
<path d="M35.6147 30.15H28.8309C28.5183 30.15 28.2656 29.9395 28.2656 29.679V28.7368C28.2656 27.9576 29.0265 27.3235 29.9616 27.3235H34.4841C35.4191 27.3235 36.18 27.9576 36.18 28.7368V29.679C36.18 29.9395 35.9273 30.15 35.6147 30.15ZM29.3963 29.2079H35.0494V28.7368C35.0494 28.4767 34.7961 28.2657 34.4841 28.2657H29.9616C29.6495 28.2657 29.3963 28.4767 29.3963 28.7368V29.2079Z" fill="black"/>
<path d="M34.4841 0H1.69594C0.760911 0 0 0.634092 0 1.41328V16.9594V19.7859C0 20.5651 0.760911 21.1992 1.69594 21.1992H14.0791L13.6167 25.4391H9.61031C9.2977 25.4391 9.045 25.6496 9.045 25.9102C9.045 26.1707 9.2977 26.3813 9.61031 26.3813H14.1328H22.0472H26.5697C26.8823 26.3813 27.135 26.1707 27.135 25.9102C27.135 25.6496 26.8823 25.4391 26.5697 25.4391H22.5633L22.1009 21.1992H34.4841C35.4191 21.1992 36.18 20.5651 36.18 19.7859V16.9594V1.41328C36.18 0.634092 35.4191 0 34.4841 0ZM1.13063 1.41328C1.13063 1.15324 1.38389 0.942187 1.69594 0.942187H34.4841C34.7961 0.942187 35.0494 1.15324 35.0494 1.41328V16.4883H1.13063V1.41328ZM21.4282 25.4391H14.7518L15.2143 21.1992H20.9657L21.4282 25.4391ZM35.0494 19.7859C35.0494 20.046 34.7961 20.257 34.4841 20.257H21.4819H14.6981H1.69594C1.38389 20.257 1.13063 20.046 1.13063 19.7859V17.4305H35.0494V19.7859Z" fill="black"/>
<path d="M31.6575 22.6125H30.5269V23.5547H31.6575V22.6125Z" fill="black"/>
<path d="M33.9188 22.6125H32.7881V23.5547H33.9188V22.6125Z" fill="black"/>
<path d="M29.3962 22.6125H28.2656V23.5547H29.3962V22.6125Z" fill="black"/>
<path d="M27.135 22.6125H26.0044V23.5547H27.135V22.6125Z" fill="black"/>
<path d="M7.91438 22.6125H6.78375V23.5547H7.91438V22.6125Z" fill="black"/>
<path d="M10.1756 22.6125H9.045V23.5547H10.1756V22.6125Z" fill="black"/>
<path d="M5.65312 22.6125H4.5225V23.5547H5.65312V22.6125Z" fill="black"/>
<path d="M3.39187 22.6125H2.26125V23.5547H3.39187V22.6125Z" fill="black"/>
<path d="M18.6553 22.6125H17.5247V23.5547H18.6553V22.6125Z" fill="black"/>
<path d="M29.2736 6.7597L27.9581 3.47099C27.8043 3.08611 27.3719 2.82654 26.8851 2.82654H15.303C14.9248 2.82654 14.5721 2.98388 14.3623 3.24628L11.5725 6.73379C11.4024 6.94625 11.1361 7.09229 10.8342 7.13799L6.01662 7.86818C5.47844 7.94921 5.08781 8.33975 5.08781 8.79483V10.8351C5.08781 11.3557 5.59377 11.7773 6.21844 11.7773H7.16873C7.60345 11.7773 7.99917 11.5691 8.18516 11.2417C8.63797 10.4441 9.61201 9.89294 10.7409 9.89294C11.8699 9.89294 12.8439 10.4441 13.2967 11.2417C13.4827 11.5691 13.8779 11.7773 14.3131 11.7773H21.8674C22.3021 11.7773 22.6979 11.5691 22.8839 11.2417C23.3361 10.4441 24.3101 9.89294 25.4391 9.89294C26.568 9.89294 27.542 10.4441 27.9948 11.2417C28.1808 11.5691 28.576 11.7773 29.0113 11.7773H29.9616C30.5862 11.7773 31.0922 11.3557 31.0922 10.8351V8.51264C31.0922 8.19748 30.9034 7.90352 30.5885 7.72874L29.719 7.2454C29.5099 7.12951 29.3533 6.9585 29.2736 6.7597Z" fill="#E64C3C"/>
<path d="M10.7409 14.6039C12.302 14.6039 13.5675 13.5493 13.5675 12.2484C13.5675 10.9475 12.302 9.89294 10.7409 9.89294C9.17987 9.89294 7.91438 10.9475 7.91438 12.2484C7.91438 13.5493 9.17987 14.6039 10.7409 14.6039Z" fill="#50595D"/>
<path d="M11.3062 11.7773H10.1756V12.7195H11.3062V11.7773Z" fill="black"/>
<path d="M25.4391 14.6039C27.0001 14.6039 28.2656 13.5493 28.2656 12.2484C28.2656 10.9475 27.0001 9.89294 25.4391 9.89294C23.878 9.89294 22.6125 10.9475 22.6125 12.2484C22.6125 13.5493 23.878 14.6039 25.4391 14.6039Z" fill="#50595D"/>
<path d="M26.0044 11.7773H24.8738V12.7195H26.0044V11.7773Z" fill="black"/>
<path d="M6.78375 8.95081H5.08781V9.89299H6.78375V8.95081Z" fill="black"/>
<path d="M29.4895 7.06638C29.3968 6.97546 29.3194 6.87465 29.2736 6.7597L27.9581 3.47099C27.8043 3.08611 27.3719 2.82654 26.8851 2.82654H22.0472V7.06638H29.4895Z" fill="#A0B2BA"/>
<path d="M15.303 2.82654C14.9248 2.82654 14.5721 2.98388 14.3623 3.24628L11.5725 6.73379C11.4544 6.88171 11.2876 6.9943 11.0965 7.06638H19.7859V2.82654H15.303Z" fill="#A0B2BA"/>
<path d="M22.0472 2.82654H19.7859V7.06638H22.0472V2.82654Z" fill="#BE262A"/>
<path d="M19.2206 8.47974H16.9594V9.42192H19.2206V8.47974Z" fill="black"/>
<path d="M21.4819 12.7195H14.6981V13.6617H21.4819V12.7195Z" fill="black"/>
<path d="M19.7859 4.71094H18.09C17.4653 4.71094 16.9594 5.13257 16.9594 5.65312V7.06641H19.7859V4.71094Z" fill="#FCB641"/>
<path d="M29.3962 7.06641H26.5697V5.65312C26.5697 5.13257 27.0756 4.71094 27.7003 4.71094H28.2656L29.3962 7.06641Z" fill="#FCB641"/>
<path d="M30.9022 7.33681L30.0334 6.85394C29.9932 6.8318 29.961 6.80212 29.9288 6.77197C29.9254 6.76867 29.9243 6.76444 29.9209 6.76114C29.8649 6.70649 29.8287 6.65703 29.8101 6.61039L28.6342 3.67076L29.6495 3.24772L29.1436 2.40493L28.1401 2.82279C27.8258 2.53307 27.3764 2.35547 26.8857 2.35547H22.0472H19.7859H15.303C14.7349 2.35547 14.2074 2.59054 13.892 2.98485L11.2706 6.26131L7.79509 2.53731C7.68825 2.42284 7.52374 2.35547 7.34906 2.35547H4.5225V3.29766H7.07262L10.2876 6.74229L5.91543 7.40465C5.10816 7.52667 4.5225 8.11129 4.5225 8.79485V10.8352C4.5225 11.6143 5.28341 12.2484 6.21844 12.2484H7.16929C7.23035 12.2484 7.29027 12.2428 7.35019 12.2376C7.34963 12.2414 7.34906 12.2447 7.34906 12.2484C7.34906 13.8073 8.87032 15.075 10.7409 15.075C12.6116 15.075 14.1328 13.8073 14.1328 12.2484C14.1328 12.2447 14.1322 12.2414 14.1322 12.2376C14.1922 12.2428 14.2521 12.2484 14.3126 12.2484H21.8669C21.9279 12.2484 21.9878 12.2428 22.0478 12.2376C22.0478 12.2414 22.0472 12.2447 22.0472 12.2484C22.0472 13.8073 23.5684 15.075 25.4391 15.075C27.3097 15.075 28.8309 13.8073 28.8309 12.2484C28.8309 12.2447 28.8304 12.2414 28.8304 12.2376C28.8903 12.2428 28.9502 12.2484 29.0107 12.2484H29.9616C30.8966 12.2484 31.6575 11.6143 31.6575 10.8352V8.51266C31.6575 8.03921 31.3754 7.59968 30.9022 7.33681ZM27.8829 5.18203L28.5613 6.59531H27.135V5.65313C27.135 5.39308 27.3883 5.18203 27.7003 5.18203H27.8829ZM27.4222 3.61988L27.6715 4.24267C26.7495 4.25586 26.0044 4.88194 26.0044 5.65313V6.59531H22.6125V3.29766H26.8857C27.1288 3.29766 27.3447 3.42674 27.4222 3.61988ZM21.4819 6.59531H20.3513V4.71094V3.29766H21.4819V6.59531ZM17.5247 6.59531V5.65313C17.5247 5.39308 17.7779 5.18203 18.09 5.18203H19.2206V6.59531H17.5247ZM15.303 3.29766H19.2206V4.23984H18.09C17.155 4.23984 16.3941 4.87394 16.3941 5.65313V6.59531H12.3623L14.8327 3.50729C14.9378 3.37586 15.1136 3.29766 15.303 3.29766ZM10.7409 14.1328C9.49386 14.1328 8.47969 13.2877 8.47969 12.2484C8.47969 11.8607 8.62158 11.5003 8.86353 11.2003C8.87088 11.1913 8.87936 11.1838 8.88671 11.1753C8.95342 11.0957 9.02804 11.0217 9.10832 10.9515C9.13715 10.9265 9.16711 10.9025 9.19764 10.879C9.26434 10.8267 9.33557 10.7782 9.40963 10.7329C9.44298 10.7127 9.47464 10.6905 9.50969 10.6717C9.61144 10.6166 9.71885 10.5676 9.83078 10.5261C9.86866 10.5125 9.90823 10.5021 9.94667 10.4903C10.0337 10.463 10.1231 10.4394 10.2146 10.4211C10.2565 10.4126 10.2983 10.4046 10.3407 10.398C10.4713 10.3782 10.6041 10.3641 10.7409 10.3641C10.8777 10.3641 11.0106 10.3782 11.1412 10.398C11.1836 10.4046 11.2254 10.4126 11.2672 10.4211C11.3588 10.4394 11.4481 10.463 11.5352 10.4903C11.5736 10.5026 11.6132 10.5125 11.6511 10.5261C11.763 10.5676 11.8704 10.6161 11.9722 10.6717C12.0067 10.6905 12.0389 10.7127 12.0722 10.7329C12.1463 10.7782 12.2175 10.8267 12.2842 10.879C12.3148 10.9025 12.3447 10.9265 12.3736 10.9515C12.4538 11.0217 12.5285 11.0957 12.5952 11.1753C12.6025 11.1838 12.6116 11.1918 12.6183 11.2003C12.8603 11.5003 13.0022 11.8607 13.0022 12.2484C13.0022 13.2877 11.988 14.1328 10.7409 14.1328ZM25.4391 14.1328C24.192 14.1328 23.1778 13.2877 23.1778 12.2484C23.1778 11.8607 23.3197 11.5003 23.5617 11.2003C23.569 11.1913 23.5775 11.1838 23.5848 11.1753C23.6515 11.0957 23.7262 11.0217 23.8064 10.9515C23.8353 10.9265 23.8652 10.9025 23.8958 10.879C23.9625 10.8267 24.0337 10.7782 24.1078 10.7329C24.1411 10.7127 24.1728 10.6905 24.2078 10.6717C24.3096 10.6166 24.417 10.5676 24.5289 10.5261C24.5668 10.5125 24.6064 10.5021 24.6448 10.4903C24.7319 10.463 24.8212 10.4394 24.9128 10.4211C24.9546 10.4126 24.9964 10.4046 25.0388 10.398C25.1694 10.3782 25.3023 10.3641 25.4391 10.3641C25.5759 10.3641 25.7087 10.3782 25.8393 10.398C25.8817 10.4046 25.9235 10.4126 25.9654 10.4211C26.057 10.4394 26.1463 10.463 26.2333 10.4903C26.2718 10.5026 26.3113 10.5125 26.3492 10.5261C26.4612 10.5676 26.5686 10.6161 26.6703 10.6717C26.7048 10.6905 26.737 10.7127 26.7704 10.7329C26.8444 10.7782 26.9157 10.8267 26.9824 10.879C27.0129 10.9025 27.0429 10.9265 27.0717 10.9515C27.152 11.0217 27.2266 11.0957 27.2933 11.1753C27.3006 11.1838 27.3097 11.1918 27.3165 11.2003C27.5584 11.5003 27.7003 11.8607 27.7003 12.2484C27.7003 13.2877 26.6861 14.1328 25.4391 14.1328ZM29.9616 11.3062H29.0107C28.7953 11.3062 28.5975 11.2017 28.5053 11.0401C28.4951 11.0222 28.481 11.0066 28.4703 10.9887C28.4177 10.9016 28.3606 10.8168 28.2979 10.7348C28.2832 10.7155 28.2702 10.6952 28.2549 10.6759C28.178 10.5808 28.0926 10.4908 28.0028 10.4041C27.9779 10.3806 27.953 10.3579 27.9276 10.3349C27.8422 10.2581 27.7529 10.1846 27.6579 10.1163C27.646 10.1078 27.6353 10.0984 27.6234 10.0899C27.5104 10.0103 27.39 9.93725 27.2645 9.87036C27.2515 9.86376 27.2385 9.85717 27.2255 9.85057C27.105 9.78791 26.9807 9.73185 26.8512 9.68192C26.8427 9.67862 26.8343 9.67485 26.8252 9.67156C26.6861 9.61926 26.5431 9.57451 26.395 9.53823C26.3871 9.53635 26.3786 9.53494 26.3707 9.53305C26.2412 9.50196 26.109 9.47841 25.9738 9.46051C25.9422 9.45626 25.9105 9.45202 25.8783 9.44826C25.7347 9.43271 25.5889 9.42188 25.4391 9.42188C25.2893 9.42188 25.1434 9.43271 24.9987 9.44873C24.9665 9.4525 24.9348 9.45674 24.9031 9.46098C24.768 9.47888 24.6358 9.50243 24.5063 9.53352C24.4984 9.53541 24.4899 9.53682 24.482 9.53871C24.3339 9.57498 24.1903 9.62021 24.0518 9.67203C24.0433 9.67532 24.0348 9.67909 24.0258 9.68239C23.8963 9.73233 23.7714 9.78839 23.6515 9.85104C23.6385 9.85764 23.6255 9.86376 23.6125 9.87083C23.487 9.93772 23.3672 10.0107 23.2536 10.0904C23.2417 10.0988 23.231 10.1083 23.2191 10.1167C23.1241 10.1855 23.0348 10.2585 22.9494 10.3353C22.924 10.3584 22.8986 10.381 22.8742 10.4046C22.7844 10.4913 22.699 10.5808 22.6221 10.6764C22.6068 10.6952 22.5938 10.716 22.5792 10.7353C22.5164 10.8173 22.4593 10.9021 22.4067 10.9892C22.396 11.0071 22.3819 11.0227 22.3717 11.0406C22.2807 11.2017 22.0822 11.3062 21.8674 11.3062H14.3126C14.0972 11.3062 13.8993 11.2017 13.8072 11.0401C13.797 11.0222 13.7829 11.0066 13.7721 10.9887C13.7196 10.9016 13.6625 10.8168 13.5997 10.7348C13.585 10.7155 13.572 10.6952 13.5568 10.6759C13.4799 10.5808 13.3945 10.4908 13.3046 10.4041C13.2798 10.3806 13.2549 10.3579 13.2294 10.3349C13.1441 10.2581 13.0548 10.1846 12.9598 10.1163C12.9479 10.1078 12.9372 10.0984 12.9253 10.0899C12.8122 10.0103 12.6918 9.93725 12.5663 9.87036C12.5533 9.86376 12.5403 9.85717 12.5273 9.85057C12.4069 9.78791 12.2825 9.73185 12.1531 9.68192C12.1446 9.67862 12.1361 9.67485 12.1271 9.67156C11.988 9.61926 11.845 9.57451 11.6969 9.53823C11.689 9.53635 11.6805 9.53494 11.6726 9.53305C11.5431 9.50196 11.4108 9.47841 11.2757 9.46051C11.2441 9.45626 11.2124 9.45202 11.1802 9.44826C11.0366 9.43271 10.8907 9.42188 10.7409 9.42188C10.5911 9.42188 10.4453 9.43271 10.3006 9.44873C10.2683 9.4525 10.2367 9.45674 10.205 9.46098C10.0699 9.47888 9.93763 9.50243 9.80817 9.53352C9.80026 9.53541 9.79178 9.53682 9.78386 9.53871C9.63575 9.57498 9.49216 9.62021 9.35366 9.67203C9.34518 9.67532 9.3367 9.67909 9.32766 9.68239C9.1982 9.73233 9.07327 9.78839 8.95342 9.85104C8.94042 9.85764 8.92742 9.86376 8.91441 9.87083C8.78891 9.93772 8.66907 10.0107 8.55544 10.0904C8.54357 10.0988 8.53283 10.1083 8.52096 10.1167C8.42598 10.1855 8.33666 10.2585 8.2513 10.3353C8.22586 10.3584 8.20042 10.381 8.17612 10.4046C8.08623 10.4913 8.00087 10.5808 7.92399 10.6764C7.90872 10.6952 7.89572 10.716 7.88102 10.7353C7.81827 10.8173 7.76118 10.9021 7.7086 10.9892C7.69786 11.0071 7.68373 11.0227 7.67355 11.0406C7.58254 11.2017 7.38411 11.3062 7.16929 11.3062H6.21844C5.90639 11.3062 5.65313 11.0952 5.65313 10.8352V8.79485C5.65313 8.56731 5.84872 8.37228 6.11725 8.33176L10.9354 7.60157C11.0264 7.58791 11.1135 7.56341 11.2 7.5375H16.9594H19.7859H22.0472H26.5697H29.2544C29.3035 7.57236 29.3516 7.60769 29.4059 7.63784L30.2753 8.12071C30.433 8.20834 30.5269 8.35485 30.5269 8.51266V8.95078H29.3963V9.89297H30.5269V10.8352C30.5269 11.0952 30.2736 11.3062 29.9616 11.3062Z" fill="black"/>
</g>
<defs>
<clipPath id="clip0">
<rect width="36.18" height="30.15" fill="white"/>
</clipPath>
</defs>
</svg>
