<svg width="37" height="31" viewBox="0 0 37 31" fill="none" xmlns="http://www.w3.org/2000/svg">
<g clip-path="url(#clip0)">
<path d="M6.02793 16.9589C5.06577 15.4066 4.5225 13.6447 4.5225 11.7773C4.5225 5.53297 10.5968 0.471069 18.09 0.471069C25.5832 0.471069 31.6575 5.53297 31.6575 11.7773C31.6575 13.6452 31.1142 15.4071 30.1515 16.9598" fill="#737A7D"/>
<g opacity="0.5">
<path opacity="0.5" d="M7.72386 16.9594C6.7617 15.4066 6.21844 13.6447 6.21844 11.7773C6.21844 5.7704 11.8405 0.860193 18.938 0.495095C18.657 0.480962 18.3749 0.471069 18.09 0.471069C10.5968 0.471069 4.5225 5.53297 4.5225 11.7773C4.5225 13.6447 5.06577 15.4066 6.02793 16.4883L30.1515 16.9594H7.72386Z" fill="#565C5E"/>
</g>
<path d="M12.5528 16.4897C11.0858 15.2926 10.1756 13.6235 10.1756 11.7773C10.1756 8.13482 13.719 5.18201 18.09 5.18201C22.461 5.18201 26.0044 8.13482 26.0044 11.7773C26.0044 13.5745 25.1417 15.2036 23.7431 16.3931" fill="#A0B2BA"/>
<path d="M18.09 14.1328C19.6511 14.1328 20.9166 13.0782 20.9166 11.7773C20.9166 10.4765 19.6511 9.42188 18.09 9.42188C16.5289 9.42188 15.2634 10.4765 15.2634 11.7773C15.2634 13.0782 16.5289 14.1328 18.09 14.1328Z" fill="#FD3238"/>
<path d="M18.09 12.7196C18.7144 12.7196 19.2206 12.2977 19.2206 11.7774C19.2206 11.257 18.7144 10.8352 18.09 10.8352C17.4656 10.8352 16.9594 11.257 16.9594 11.7774C16.9594 12.2977 17.4656 12.7196 18.09 12.7196Z" fill="black"/>
<path d="M15.8288 5.65308L16.9594 9.42183H19.2206L20.3512 5.65308" fill="#FCB641"/>
<path d="M25.4391 13.6617L20.9166 12.7195V10.8351L25.4391 9.89294" fill="#FCB641"/>
<path d="M10.7409 13.6617L15.2634 12.7195V10.8351L10.7409 9.89294" fill="#FCB641"/>
<path d="M16.3941 16.4883L16.9594 14.1328H19.2206L19.7859 16.4883" fill="#FCB641"/>
<path d="M13.0022 11.3063H11.8716V12.2485H13.0022V11.3063Z" fill="black"/>
<path d="M18.6553 6.59534H17.5247V7.53752H18.6553V6.59534Z" fill="black"/>
<path d="M24.3084 11.3063H23.1778V12.2485H24.3084V11.3063Z" fill="black"/>
<path d="M28.8309 29.6789H7.34906C5.78823 29.6789 4.5225 28.6242 4.5225 27.3235V25.4391C4.5225 24.1384 5.78823 23.0836 7.34906 23.0836H28.8309C30.3918 23.0836 31.6575 24.1384 31.6575 25.4391V27.3235C31.6575 28.6242 30.3918 29.6789 28.8309 29.6789Z" fill="#50595D"/>
<g opacity="0.5">
<path opacity="0.5" d="M6.21844 27.3235V25.4391C6.21844 24.1384 7.48417 23.0836 9.045 23.0836H7.34906C5.78823 23.0836 4.5225 24.1384 4.5225 25.4391V27.3235C4.5225 28.6242 5.78823 29.6789 7.34906 29.6789H9.045C7.48417 29.6789 6.21844 28.6242 6.21844 27.3235Z" fill="#414547"/>
</g>
<path d="M28.8309 23.0836H7.34906C5.78823 23.0836 4.5225 22.0288 4.5225 20.7281V18.8437C4.5225 17.5431 5.78823 16.4883 7.34906 16.4883H28.8309C30.3918 16.4883 31.6575 17.5431 31.6575 18.8437V20.7281C31.6575 22.0288 30.3918 23.0836 28.8309 23.0836Z" fill="#50595D"/>
<g opacity="0.5">
<path opacity="0.5" d="M6.21844 20.7281V18.8437C6.21844 17.5431 7.48417 16.4883 9.045 16.4883H7.34906C5.78823 16.4883 4.5225 17.5431 4.5225 18.8437V20.7281C4.5225 22.0288 5.78823 23.0836 7.34906 23.0836H9.045C7.48417 23.0836 6.21844 22.0288 6.21844 20.7281Z" fill="#414547"/>
</g>
<path d="M30.9582 16.6456C31.7853 15.1263 32.2228 13.4563 32.2228 11.7773C32.2228 5.28332 25.8828 0 18.09 0C10.2972 0 3.95719 5.28332 3.95719 11.7773C3.95719 13.4563 4.39474 15.1263 5.22179 16.6456C4.45127 17.1638 3.95719 17.9562 3.95719 18.8438V20.7281C3.95719 21.7108 4.56264 22.5767 5.47788 23.0836C4.56264 23.5905 3.95719 24.4564 3.95719 25.4391V27.3234C3.95719 28.8823 5.47844 30.15 7.34906 30.15H28.8309C30.7016 30.15 32.2228 28.8823 32.2228 27.3234V25.4391C32.2228 24.4564 31.6174 23.5905 30.7021 23.0836C31.6179 22.5767 32.2228 21.7108 32.2228 20.7281V18.8438C32.2228 17.9562 31.7287 17.1638 30.9582 16.6456ZM31.0922 20.1939L30.42 20.4398L29.4098 20.0705C29.2645 20.0172 29.1 20.0182 28.9553 20.0705L27.9474 20.4393L26.9394 20.0705C26.7941 20.0177 26.6296 20.0177 26.4843 20.0705L25.4769 20.4393L24.4707 20.0705C24.3254 20.0177 24.1603 20.0172 24.015 20.0705L23.011 20.4389L22.0048 20.07C21.8601 20.0172 21.695 20.0172 21.5497 20.07L20.5435 20.4389L19.5378 20.07C19.3925 20.0172 19.2274 20.0172 19.0827 20.07L18.0759 20.4389L17.0707 20.07C16.9255 20.0168 16.7604 20.0168 16.6151 20.07L15.6094 20.4389L14.6048 20.0705C14.4601 20.0172 14.2945 20.0172 14.1492 20.0705L13.1435 20.4393L12.139 20.0709C11.9937 20.0177 11.8286 20.0177 11.6833 20.0709L10.6799 20.4393L9.67532 20.0709C9.53004 20.0177 9.36497 20.0177 9.21968 20.0709L8.21512 20.4393L7.21226 20.0709C7.06697 20.0177 6.9019 20.0177 6.75605 20.0709L5.75432 20.4393L5.08781 20.1948V19.3403L5.52536 19.5009C5.67065 19.5542 5.83572 19.5542 5.98157 19.5009L6.98331 19.1325L7.98617 19.5009C8.13089 19.5542 8.29596 19.5542 8.44181 19.5009L9.44694 19.1325L10.4515 19.5009C10.5968 19.5542 10.7619 19.5542 10.9071 19.5009L11.9106 19.1325L12.9151 19.5009C13.0604 19.5542 13.2255 19.5542 13.3708 19.5009L14.3765 19.1321L15.381 19.5005C15.5263 19.5537 15.6914 19.5537 15.8367 19.5005L16.8424 19.1316L17.8475 19.5C17.9928 19.5532 18.1578 19.5532 18.3026 19.5L19.3094 19.1311L20.3151 19.5C20.4604 19.5527 20.6254 19.5527 20.7707 19.5L21.777 19.1311L22.7838 19.5C22.9285 19.5527 23.0941 19.5532 23.2394 19.5L24.2434 19.1316L25.2491 19.5005C25.3944 19.5532 25.5589 19.5532 25.7042 19.5005L26.7121 19.1316L27.7201 19.5005C27.8654 19.5532 28.0299 19.5532 28.1752 19.5005L29.1837 19.1316L30.1939 19.5009C30.2663 19.5273 30.3437 19.5405 30.4212 19.5405C30.4986 19.5405 30.5755 19.5273 30.6484 19.5009L31.0922 19.3389V20.1939ZM30.42 18.5554L29.4098 18.1861C29.2645 18.1333 29.1 18.1333 28.9553 18.1861L27.9474 18.555L26.9394 18.1861C26.7941 18.1333 26.6296 18.1333 26.4843 18.1861L25.4769 18.555L24.4707 18.1861C24.3254 18.1333 24.1603 18.1329 24.015 18.1861L23.011 18.5545L22.0048 18.1856C21.8601 18.1329 21.695 18.1329 21.5497 18.1856L20.5435 18.5545L19.5378 18.1856C19.3925 18.1329 19.2274 18.1329 19.0827 18.1856L18.0759 18.5545L17.0707 18.1856C16.9255 18.1324 16.7604 18.1324 16.6151 18.1856L15.6094 18.5545L14.6048 18.1861C14.4601 18.1329 14.2945 18.1329 14.1492 18.1861L13.1435 18.555L12.139 18.1866C11.9937 18.1333 11.8286 18.1333 11.6833 18.1866L10.6799 18.555L9.67532 18.1866C9.53004 18.1333 9.36497 18.1333 9.21968 18.1866L8.21512 18.555L7.21226 18.1866C7.06697 18.1333 6.9019 18.1333 6.75605 18.1866L5.75432 18.555L5.17996 18.3439C5.44339 17.5482 6.31115 16.9594 7.34906 16.9594H28.8309C29.8683 16.9594 30.736 17.5478 31.0012 18.343L30.42 18.5554ZM20.2495 16.0172L19.8148 14.2068C20.3015 13.966 20.7091 13.6273 20.9997 13.2227L24.9201 14.0395C24.573 14.7674 24.0569 15.4382 23.3887 16.0177H20.2495V16.0172ZM18.09 9.89297C19.3371 9.89297 20.3512 10.7381 20.3512 11.7773C20.3512 12.8166 19.3371 13.6617 18.09 13.6617C16.8429 13.6617 15.8288 12.8166 15.8288 11.7773C15.8288 10.7381 16.8429 9.89297 18.09 9.89297ZM18.7571 14.6039L19.0963 16.0172H17.0837L17.4229 14.6039H18.7571ZM25.4391 11.7773C25.4391 12.2409 25.3707 12.695 25.2508 13.1369L21.4819 12.3516V11.2031L25.2502 10.4182C25.3701 10.8559 25.4391 11.3095 25.4391 11.7773ZM20.9997 10.332C20.7108 9.92971 20.3066 9.59288 19.8244 9.35262L20.8029 6.09077C22.6747 6.71309 24.1671 7.95677 24.9139 9.51656L20.9997 10.332ZM18.7791 8.95078H17.4009L16.4591 5.81047C16.9842 5.7106 17.5286 5.65312 18.09 5.65312C18.6514 5.65312 19.1958 5.7106 19.7215 5.81047L18.7791 8.95078ZM15.3771 6.09077L16.3556 9.35262C15.8728 9.59335 15.4686 9.93018 15.1803 10.332L11.2661 9.51656C12.0129 7.95677 13.5053 6.71309 15.3771 6.09077ZM10.7409 11.7773C10.7409 11.3095 10.8099 10.8559 10.9298 10.4178L14.6981 11.2031V12.3516L10.9281 13.1369C10.8088 12.696 10.7409 12.2414 10.7409 11.7773ZM15.1803 13.2227C15.4709 13.6273 15.8785 13.966 16.3652 14.2068L15.9305 16.0172H12.797C12.1265 15.4368 11.6081 14.7674 11.261 14.0391L15.1803 13.2227ZM5.08781 11.7773C5.08781 5.80293 10.9207 0.942187 18.09 0.942187C25.2593 0.942187 31.0922 5.80293 31.0922 11.7773C31.0922 13.3192 30.7146 14.7989 29.9712 16.1849C29.6139 16.0784 29.2312 16.0172 28.8309 16.0172H24.8641C25.9654 14.7994 26.5697 13.3263 26.5697 11.7773C26.5697 7.88093 22.7657 4.71094 18.09 4.71094C13.4143 4.71094 9.61031 7.88093 9.61031 11.7773C9.61031 13.3315 10.2152 14.8004 11.317 16.0172H7.34906C6.94882 16.0172 6.5661 16.0784 6.20939 16.1849C5.46544 14.7989 5.08781 13.3192 5.08781 11.7773ZM31.0922 26.7892L30.42 27.0351L29.4098 26.6658C29.2645 26.6126 29.1 26.6135 28.9553 26.6658L27.9474 27.0347L26.9394 26.6658C26.7941 26.613 26.6296 26.613 26.4843 26.6658L25.4769 27.0347L24.4707 26.6658C24.3254 26.613 24.1603 26.6126 24.015 26.6658L23.011 27.0342L22.0048 26.6653C21.8601 26.6126 21.695 26.6126 21.5497 26.6653L20.5435 27.0342L19.5378 26.6653C19.3925 26.6126 19.2274 26.6126 19.0827 26.6653L18.0759 27.0342L17.0707 26.6653C16.9255 26.6121 16.7604 26.6121 16.6151 26.6653L15.6094 27.0342L14.6048 26.6658C14.4601 26.6126 14.2945 26.6126 14.1492 26.6658L13.1435 27.0347L12.139 26.6663C11.9937 26.613 11.8286 26.613 11.6833 26.6663L10.6799 27.0347L9.67532 26.6663C9.53004 26.613 9.36497 26.613 9.21968 26.6663L8.21512 27.0347L7.21226 26.6663C7.06697 26.613 6.9019 26.613 6.75605 26.6663L5.75432 27.0347L5.08781 26.7902V25.9356L5.52536 26.0962C5.67065 26.1495 5.83572 26.1495 5.98157 26.0962L6.98331 25.7278L7.98617 26.0962C8.13089 26.1495 8.29596 26.1495 8.44181 26.0962L9.44694 25.7278L10.4515 26.0962C10.5968 26.1495 10.7619 26.1495 10.9071 26.0962L11.9106 25.7278L12.9151 26.0962C13.0604 26.1495 13.2255 26.1495 13.3708 26.0962L14.3765 25.7274L15.381 26.0958C15.5263 26.149 15.6914 26.149 15.8367 26.0958L16.8424 25.7269L17.8475 26.0953C17.9928 26.1485 18.1578 26.1485 18.3026 26.0953L19.3094 25.7264L20.3151 26.0953C20.4604 26.1481 20.6254 26.1481 20.7707 26.0953L21.777 25.7264L22.7838 26.0953C22.9285 26.1481 23.0941 26.1485 23.2394 26.0953L24.2434 25.7269L25.2491 26.0958C25.3944 26.1485 25.5589 26.1485 25.7042 26.0958L26.7121 25.7269L27.7201 26.0958C27.8654 26.1485 28.0299 26.1485 28.1752 26.0958L29.1837 25.7269L30.1939 26.0962C30.2663 26.1226 30.3437 26.1358 30.4212 26.1358C30.4986 26.1358 30.5755 26.1226 30.6484 26.0962L31.0922 25.9342V26.7892ZM28.8309 29.2078H7.34906C6.32641 29.2078 5.47053 28.6359 5.19183 27.8581L5.52536 27.9806C5.67065 28.0338 5.83572 28.0338 5.98157 27.9806L6.98331 27.6122L7.98617 27.9806C8.13089 28.0334 8.29596 28.0338 8.44181 27.9806L9.44694 27.6122L10.4515 27.9806C10.5968 28.0338 10.7619 28.0338 10.9071 27.9806L11.9106 27.6122L12.9151 27.9806C13.0604 28.0338 13.2255 28.0338 13.3708 27.9806L14.3765 27.6117L15.381 27.9801C15.5263 28.0334 15.6914 28.0334 15.8367 27.9801L16.8424 27.6113L17.8475 27.9797C17.9928 28.0329 18.1578 28.0329 18.3026 27.9797L19.3094 27.6108L20.3151 27.9797C20.4604 28.0324 20.6254 28.0324 20.7707 27.9797L21.777 27.6108L22.7838 27.9797C22.9285 28.0324 23.0941 28.0329 23.2394 27.9797L24.2434 27.6113L25.2491 27.9801C25.3944 28.0329 25.5589 28.0329 25.7042 27.9801L26.7121 27.6113L27.7201 27.9801C27.8654 28.0329 28.0299 28.0329 28.1752 27.9801L29.1837 27.6113L30.1939 27.9806C30.2663 28.007 30.3437 28.0202 30.4212 28.0202C30.4986 28.0202 30.5755 28.007 30.6484 27.9806L30.9899 27.8558C30.7112 28.635 29.8542 29.2078 28.8309 29.2078ZM31.0012 24.9383L30.4206 25.1508L29.4104 24.7814C29.2651 24.7287 29.1006 24.7287 28.9559 24.7814L27.9479 25.1503L26.94 24.7814C26.7947 24.7287 26.6302 24.7287 26.4849 24.7814L25.4775 25.1503L24.4712 24.7814C24.326 24.7287 24.1609 24.7282 24.0156 24.7814L23.0116 25.1498L22.0054 24.7809C21.8606 24.7282 21.6956 24.7282 21.5503 24.7809L20.544 25.1498L19.5383 24.7809C19.393 24.7282 19.228 24.7282 19.0833 24.7809L18.0764 25.1498L17.0713 24.7809C16.926 24.7277 16.761 24.7277 16.6157 24.7809L15.61 25.1498L14.6054 24.7814C14.4607 24.7282 14.2951 24.7282 14.1498 24.7814L13.1441 25.1503L12.1395 24.7819C11.9942 24.7287 11.8292 24.7287 11.6839 24.7819L10.6804 25.1503L9.67589 24.7819C9.5306 24.7287 9.36553 24.7287 9.22025 24.7819L8.21569 25.1503L7.21282 24.7819C7.06754 24.7287 6.90247 24.7287 6.75661 24.7819L5.75488 25.1503L5.18052 24.9392C5.44339 24.1436 6.31115 23.5547 7.34906 23.5547H28.8309C29.8683 23.5547 30.736 24.1431 31.0012 24.9383ZM7.34906 22.6125C6.32641 22.6125 5.47053 22.0406 5.19183 21.2628L5.52536 21.3853C5.67065 21.4385 5.83572 21.4385 5.98157 21.3853L6.98331 21.0169L7.98617 21.3853C8.13089 21.4381 8.29596 21.4385 8.44181 21.3853L9.44694 21.0169L10.4515 21.3853C10.5968 21.4385 10.7619 21.4385 10.9071 21.3853L11.9106 21.0169L12.9151 21.3853C13.0604 21.4385 13.2255 21.4385 13.3708 21.3853L14.3765 21.0164L15.381 21.3848C15.5263 21.4381 15.6914 21.4381 15.8367 21.3848L16.8424 21.016L17.8475 21.3844C17.9928 21.4376 18.1578 21.4376 18.3026 21.3844L19.3094 21.0155L20.3151 21.3844C20.4604 21.4371 20.6254 21.4371 20.7707 21.3844L21.777 21.0155L22.7838 21.3844C22.9285 21.4371 23.0941 21.4376 23.2394 21.3844L24.2434 21.016L25.2491 21.3848C25.3944 21.4376 25.5589 21.4376 25.7042 21.3848L26.7121 21.016L27.7201 21.3848C27.8654 21.4376 28.0299 21.4376 28.1752 21.3848L29.1837 21.016L30.1939 21.3853C30.2663 21.4117 30.3437 21.4249 30.4212 21.4249C30.4986 21.4249 30.5755 21.4117 30.6484 21.3853L30.9899 21.2605C30.7112 22.0396 29.8542 22.6125 28.8309 22.6125H7.34906Z" fill="black"/>
</g>
<defs>
<clipPath id="clip0">
<rect width="36.18" height="30.15" fill="white"/>
</clipPath>
</defs>
</svg>
