<svg width="37" height="31" viewBox="0 0 37 31" fill="none" xmlns="http://www.w3.org/2000/svg">
<g clip-path="url(#clip0)">
<path d="M5.65313 5.18201H14.6981L16.8995 1.51266C17.2827 0.874326 18.0657 0.471069 18.9221 0.471069H28.2656C30.7632 0.471069 32.7881 2.15853 32.7881 4.23982V25.9101C32.7881 27.9914 30.7632 29.6789 28.2656 29.6789H4.5225C3.89783 29.6789 3.39188 29.2573 3.39188 28.7367V7.06638C3.39188 6.02574 4.40435 5.18201 5.65313 5.18201Z" fill="#FD3238"/>
<path d="M4.5225 28.7367V7.06638C4.5225 6.02574 5.53497 5.18201 6.78375 5.18201H5.65313C4.40435 5.18201 3.39188 6.02574 3.39188 7.06638V28.7367C3.39188 29.2573 3.89783 29.6789 4.5225 29.6789H5.65313C5.02845 29.6789 4.5225 29.2573 4.5225 28.7367Z" fill="#BE262A"/>
<path d="M11.8716 17.4304C14.9937 17.4304 17.5247 15.3213 17.5247 12.7195C17.5247 10.1177 14.9937 8.00854 11.8716 8.00854C8.74943 8.00854 6.21844 10.1177 6.21844 12.7195C6.21844 15.3213 8.74943 17.4304 11.8716 17.4304Z" fill="#FCB641"/>
<path d="M28.8309 25.439H27.135C26.5103 25.439 26.0044 25.0174 26.0044 24.4969V12.5094C26.0044 12.3384 26.0603 12.1712 26.1655 12.0246L27.3707 10.3504C27.5754 10.0668 27.9434 9.89294 28.3402 9.89294H28.8309C29.4556 9.89294 29.9616 10.3146 29.9616 10.8351V24.4969C29.9616 25.0174 29.4556 25.439 28.8309 25.439Z" fill="white"/>
<path d="M28.8309 25.9102H27.135C26.2 25.9102 25.4391 25.2761 25.4391 24.4969V12.5094C25.4391 12.2536 25.5222 12.0021 25.681 11.7825L26.8863 10.1083C27.1915 9.68475 27.7489 9.42188 28.3408 9.42188H28.8309C29.766 9.42188 30.5269 10.056 30.5269 10.8352V24.4969C30.5269 25.2761 29.766 25.9102 28.8309 25.9102ZM28.3408 10.3641C28.143 10.3641 27.957 10.4522 27.8558 10.593L26.6505 12.2668C26.598 12.3398 26.5697 12.4242 26.5697 12.5094V24.4969C26.5697 24.7564 26.8229 24.968 27.135 24.968H28.8309C29.143 24.968 29.3962 24.7564 29.3962 24.4969V10.8352C29.3962 10.5756 29.143 10.3641 28.8309 10.3641H28.3408Z" fill="black"/>
<path d="M13.0022 5.18203H6.21844L6.78375 2.35547H12.4369L13.0022 5.18203Z" fill="#A0B2BA"/>
<g opacity="0.5">
<path opacity="0.5" d="M6.78375 2.35547L6.21844 5.18203H7.34906L7.91437 2.35547H6.78375Z" fill="#78858B"/>
</g>
<path d="M11.8716 2.35544H7.34906L7.91438 0.471069H11.3063L11.8716 2.35544Z" fill="#FCB641"/>
<g opacity="0.5">
<path opacity="0.5" d="M7.91438 0.471069L7.34906 2.35544H8.47969L9.045 0.471069H7.91438Z" fill="#BD8931"/>
</g>
<path d="M14.6981 13.5048C14.6981 14.8055 13.4324 15.8603 11.8716 15.8603C10.3107 15.8603 9.045 14.8055 9.045 13.5048C9.045 12.2042 11.8716 9.57922 11.8716 9.57922C11.8716 9.57922 14.6981 12.2037 14.6981 13.5048Z" fill="#2EA6DB"/>
<path d="M11.8716 16.3313C10.0009 16.3313 8.47969 15.0636 8.47969 13.5048C8.47969 12.0651 11.1468 9.5471 11.451 9.26444C11.6652 9.06517 12.0779 9.06517 12.2922 9.26444C12.5963 9.5471 15.2634 12.0651 15.2634 13.5048C15.2634 15.0631 13.7422 16.3313 11.8716 16.3313ZM11.8716 10.2994C10.8636 11.3066 9.61031 12.7929 9.61031 13.5043C9.61031 14.5435 10.6245 15.3887 11.8716 15.3887C13.1186 15.3887 14.1328 14.5435 14.1328 13.5043C14.1328 12.792 12.8801 11.3062 11.8716 10.2994Z" fill="black"/>
<path d="M11.8716 17.9015C8.44294 17.9015 5.65312 15.5767 5.65312 12.7195C5.65312 9.86232 8.44294 7.53748 11.8716 7.53748C15.3002 7.53748 18.09 9.86232 18.09 12.7195C18.09 15.5767 15.3002 17.9015 11.8716 17.9015ZM11.8716 8.47966C9.06648 8.47966 6.78375 10.3819 6.78375 12.7195C6.78375 15.0571 9.06648 16.9593 11.8716 16.9593C14.6766 16.9593 16.9594 15.0571 16.9594 12.7195C16.9594 10.3819 14.6766 8.47966 11.8716 8.47966Z" fill="black"/>
<path d="M22.0472 27.7946H11.8716V21.1993C11.8716 20.6787 12.3775 20.2571 13.0022 20.2571H23.1778V26.8524C23.1778 27.373 22.6719 27.7946 22.0472 27.7946Z" fill="#FCB641"/>
<path d="M22.0472 28.2656H11.8716C11.5595 28.2656 11.3062 28.0545 11.3062 27.7945V21.1992C11.3062 20.42 12.0672 19.7859 13.0022 19.7859H23.1778C23.4904 19.7859 23.7431 19.9969 23.7431 20.257V26.8523C23.7431 27.6315 22.9822 28.2656 22.0472 28.2656ZM12.4369 27.3234H22.0472C22.3592 27.3234 22.6125 27.1119 22.6125 26.8523V20.7281H13.0022C12.6907 20.7281 12.4369 20.9396 12.4369 21.1992V27.3234Z" fill="black"/>
<path d="M18.6553 21.6703H13.5675V22.6125H18.6553V21.6703Z" fill="black"/>
<path d="M21.4819 21.6703H19.7859V22.6125H21.4819V21.6703Z" fill="black"/>
<path d="M18.6553 25.4391H13.5675V26.3813H18.6553V25.4391Z" fill="black"/>
<path d="M21.4819 25.4391H19.7859V26.3813H21.4819V25.4391Z" fill="black"/>
<path d="M15.8288 23.5547H13.5675V24.4969H15.8288V23.5547Z" fill="black"/>
<path d="M21.4819 23.5547H16.9594V24.4969H21.4819V23.5547Z" fill="black"/>
<path d="M28.4064 5.46464L26.3142 6.85955C26.1135 6.99334 25.8647 7.06636 25.6081 7.06636H19.7859C19.1613 7.06636 18.6553 6.64473 18.6553 6.12417V4.23979C18.6553 3.71924 19.1613 3.29761 19.7859 3.29761H27.7003C28.325 3.29761 28.8309 3.71924 28.8309 4.23979V4.72926C28.8309 5.01522 28.6749 5.28609 28.4064 5.46464Z" fill="white"/>
<path d="M25.6081 7.53748H19.7859C18.8509 7.53748 18.09 6.90338 18.09 6.12419V4.23982C18.09 3.46063 18.8509 2.82654 19.7859 2.82654H27.7003C28.6353 2.82654 29.3962 3.46063 29.3962 4.23982V4.72929C29.3962 5.16081 29.1645 5.56312 28.7597 5.83306L26.6675 7.22797C26.3679 7.42771 25.9919 7.53748 25.6081 7.53748ZM19.7859 3.76873C19.4739 3.76873 19.2206 3.98025 19.2206 4.23982V6.12419C19.2206 6.38377 19.4739 6.59529 19.7859 6.59529H25.6081C25.7359 6.59529 25.8608 6.55854 25.9608 6.49212L28.0531 5.09721C28.1882 5.00723 28.2656 4.87297 28.2656 4.72929V4.23982C28.2656 3.98025 28.0124 3.76873 27.7003 3.76873H19.7859Z" fill="black"/>
<path d="M23.7431 9.42188H20.3512V10.3641H23.7431V9.42188Z" fill="black"/>
<path d="M23.7431 11.3063H20.3512V12.2485H23.7431V11.3063Z" fill="black"/>
<path d="M23.7431 13.1907H20.3512V14.1329H23.7431V13.1907Z" fill="black"/>
<path d="M23.7431 15.075H20.3512V16.0171H23.7431V15.075Z" fill="black"/>
<path d="M23.7431 16.9594H20.3512V17.9015H23.7431V16.9594Z" fill="black"/>
<path d="M9.045 29.679H6.21844V20.7282C6.21844 20.4681 6.4717 20.2571 6.78375 20.2571H8.47969C8.79174 20.2571 9.045 20.4681 9.045 20.7282V29.679Z" fill="#A0B2BA"/>
<path d="M28.2656 0H18.9221C17.8441 0 16.8757 0.498888 16.3941 1.3021L14.3488 4.71094H13.481L12.9943 2.27774C12.949 2.05114 12.7133 1.88437 12.4369 1.88437H12.3131L11.8546 0.356618C11.7919 0.146981 11.5657 0 11.3063 0H7.91438C7.6549 0 7.42877 0.146981 7.36602 0.356618L6.90755 1.88437H6.78375C6.50731 1.88437 6.27158 2.05114 6.22635 2.27774L5.73962 4.71094H5.65313C4.09456 4.71094 2.82656 5.7676 2.82656 7.06641V28.7367C2.82656 29.5159 3.58747 30.15 4.5225 30.15H6.21844H9.045H28.2656C31.0713 30.15 33.3534 28.2477 33.3534 25.9102V4.23984C33.3534 1.90228 31.0713 0 28.2656 0ZM8.35588 0.942187H10.8647L11.1474 1.88437H8.07323L8.35588 0.942187ZM7.26257 2.82656H7.34906H11.8716H11.9581L12.3351 4.71094H10.1756V3.76875H9.045V4.71094H6.88607L7.26257 2.82656ZM6.78375 29.2078V28.2656H7.34906V27.3234H6.78375V26.3813H7.34906V25.4391H6.78375V24.4969H7.34906V23.5547H6.78375V22.6125H7.34906V21.6703H6.78375V20.7281H8.47969V29.2078H6.78375ZM32.2228 25.9102C32.2228 27.7286 30.4472 29.2078 28.2656 29.2078H9.61031V20.7281C9.61031 20.2085 9.10323 19.7859 8.47969 19.7859H6.78375C6.16021 19.7859 5.65313 20.2085 5.65313 20.7281V29.2078H4.5225C4.21101 29.2078 3.95719 28.9963 3.95719 28.7367V7.06641C3.95719 6.28722 4.7181 5.65312 5.65313 5.65312H6.21844H13.0022H14.6981C14.9124 5.65312 15.108 5.55231 15.2041 5.39261L17.406 1.72326C17.6943 1.24133 18.2754 0.942187 18.9221 0.942187H28.2656C30.4472 0.942187 32.2228 2.42142 32.2228 4.23984V25.9102Z" fill="black"/>
</g>
<defs>
<clipPath id="clip0">
<rect width="36.18" height="30.15" fill="white"/>
</clipPath>
</defs>
</svg>
