<svg width="37" height="31" viewBox="0 0 37 31" fill="none" xmlns="http://www.w3.org/2000/svg">
<g clip-path="url(#clip0)">
<path d="M24.3084 7.06641H11.8716V9.89297H24.3084V7.06641Z" fill="#737A7D"/>
<g opacity="0.5">
<path opacity="0.5" d="M14.1328 7.06641H11.8716V9.89297H14.1328V7.06641Z" fill="#606060"/>
</g>
<path d="M22.0472 7.06641H14.1328V9.89297H22.0472V7.06641Z" fill="#FD3238"/>
<path d="M34.4841 28.7367H1.69594C1.07127 28.7367 0.565312 28.3151 0.565312 27.7945V12.7195C0.565312 12.199 1.07127 11.7773 1.69594 11.7773H34.4841C35.1087 11.7773 35.6147 12.199 35.6147 12.7195V27.7945C35.6147 28.3151 35.1087 28.7367 34.4841 28.7367Z" fill="#2EA6DB"/>
<g opacity="0.5">
<path opacity="0.5" d="M2.26125 27.7945V12.7195C2.26125 12.199 2.7672 11.7773 3.39187 11.7773H1.69594C1.07127 11.7773 0.565312 12.199 0.565312 12.7195V27.7945C0.565312 28.3151 1.07127 28.7367 1.69594 28.7367H3.39187C2.7672 28.7367 2.26125 28.3151 2.26125 27.7945Z" fill="#237DA4"/>
</g>
<path d="M24.3084 5.18208H11.8716C11.2469 5.18208 10.7409 4.76045 10.7409 4.23989V2.35552C10.7409 1.83496 11.2469 1.41333 11.8716 1.41333H24.3084C24.9331 1.41333 25.4391 1.83496 25.4391 2.35552V4.23989C25.4391 4.76045 24.9331 5.18208 24.3084 5.18208Z" fill="#50595D"/>
<g opacity="0.5">
<path opacity="0.5" d="M12.4369 4.23989V2.35552C12.4369 1.83496 12.9428 1.41333 13.5675 1.41333H11.8716C11.2469 1.41333 10.7409 1.83496 10.7409 2.35552V4.23989C10.7409 4.76045 11.2469 5.18208 11.8716 5.18208H13.5675C12.9428 5.18208 12.4369 4.76045 12.4369 4.23989Z" fill="#414547"/>
</g>
<path d="M15.8288 5.18201H13.5675V7.06638H15.8288V5.18201Z" fill="#A0B2BA"/>
<path d="M22.6125 5.18201H20.3512V7.06638H22.6125V5.18201Z" fill="#A0B2BA"/>
<path d="M27.7003 26.8524H8.47969C7.85502 26.8524 7.34906 26.4307 7.34906 25.9102V14.6039C7.34906 14.0834 7.85502 13.6617 8.47969 13.6617H27.7003C28.325 13.6617 28.8309 14.0834 28.8309 14.6039V25.9102C28.8309 26.4307 28.325 26.8524 27.7003 26.8524Z" fill="#C6D1D6"/>
<path d="M27.7003 27.3235H8.47969C7.54466 27.3235 6.78375 26.6894 6.78375 25.9102V14.604C6.78375 13.8248 7.54466 13.1907 8.47969 13.1907H27.7003C28.6353 13.1907 29.3962 13.8248 29.3962 14.604V25.9102C29.3962 26.6894 28.6353 27.3235 27.7003 27.3235ZM8.47969 14.1329C8.1682 14.1329 7.91438 14.3439 7.91438 14.604V25.9102C7.91438 26.1702 8.1682 26.3813 8.47969 26.3813H27.7003C28.0118 26.3813 28.2656 26.1702 28.2656 25.9102V14.604C28.2656 14.3439 28.0118 14.1329 27.7003 14.1329H8.47969Z" fill="black"/>
<path d="M18.09 9.89297C19.0266 9.89297 19.7859 9.26022 19.7859 8.47969C19.7859 7.69915 19.0266 7.06641 18.09 7.06641C17.1534 7.06641 16.3941 7.69915 16.3941 8.47969C16.3941 9.26022 17.1534 9.89297 18.09 9.89297Z" fill="#FCB641"/>
<path d="M16.3941 9.89294H13.0022V11.7773H16.3941V9.89294Z" fill="#A0B2BA"/>
<path d="M23.1778 9.89294H19.7859V11.7773H23.1778V9.89294Z" fill="#A0B2BA"/>
<path d="M34.4841 11.3062H23.7431V10.364H24.3084C24.6205 10.364 24.8738 10.1534 24.8738 9.89292H25.4391V8.95073H24.8738V8.00854H25.4391V7.06636H24.8738C24.8738 6.80584 24.6205 6.59526 24.3084 6.59526H23.1778V5.65308H24.3084C25.2435 5.65308 26.0044 5.01898 26.0044 4.23979V2.35542C26.0044 1.57623 25.2435 0.942139 24.3084 0.942139H11.8716C10.9365 0.942139 10.1756 1.57623 10.1756 2.35542V4.23979C10.1756 5.01898 10.9365 5.65308 11.8716 5.65308H13.0022V6.59526H11.8716C11.5595 6.59526 11.3062 6.80584 11.3062 7.06636H10.7409V8.00854H11.3062V8.95073H10.7409V9.89292H11.3062C11.3062 10.1534 11.5595 10.364 11.8716 10.364H12.4369V11.3062H1.69594C0.760911 11.3062 0 11.9403 0 12.7195V27.7945C0 28.5737 0.760911 29.2078 1.69594 29.2078H34.4841C35.4191 29.2078 36.18 28.5737 36.18 27.7945V12.7195C36.18 11.9403 35.4191 11.3062 34.4841 11.3062ZM16.9594 11.3062V10.364H19.2206V11.3062H16.9594ZM14.6981 7.53745H15.8288H16.1431C15.9486 7.81587 15.8288 8.1348 15.8288 8.47964C15.8288 8.82448 15.9486 9.14341 16.1431 9.42183H14.6981V7.53745ZM14.1328 6.59526V5.65308H15.2634V6.59526H14.1328ZM16.3941 6.59526V5.65308H19.7859V6.59526H16.3941ZM19.2206 8.47964C19.2206 8.99925 18.7135 9.42183 18.09 9.42183C17.4665 9.42183 16.9594 8.99925 16.9594 8.47964C16.9594 7.96002 17.4665 7.53745 18.09 7.53745C18.7135 7.53745 19.2206 7.96002 19.2206 8.47964ZM20.0369 7.53745H20.3512H21.4819V9.42183H20.0369C20.2314 9.14341 20.3512 8.82448 20.3512 8.47964C20.3512 8.1348 20.2314 7.81587 20.0369 7.53745ZM20.9166 6.59526V5.65308H22.0472V6.59526H20.9166ZM20.3512 10.364H22.0472H22.6125V11.3062H20.3512V10.364ZM23.7431 7.53745V9.42183H23.1778H22.6125V7.53745H23.7431ZM11.8716 4.71089C11.5601 4.71089 11.3062 4.49984 11.3062 4.23979V2.35542C11.3062 2.09538 11.5601 1.88433 11.8716 1.88433H24.3084C24.6199 1.88433 24.8738 2.09538 24.8738 2.35542V4.23979C24.8738 4.49984 24.6199 4.71089 24.3084 4.71089H22.6125V3.7687H20.3512V4.71089H15.8288V3.7687H13.5675V4.71089H11.8716ZM12.4369 7.53745H13.5675V9.42183H13.0022H12.4369V7.53745ZM13.5675 10.364H14.1328H15.8288V11.3062H13.5675V10.364ZM35.0494 27.7945C35.0494 28.0545 34.7956 28.2656 34.4841 28.2656H1.69594C1.38445 28.2656 1.13063 28.0545 1.13063 27.7945V12.7195C1.13063 12.4594 1.38445 12.2484 1.69594 12.2484H13.0022H16.3941H19.7859H23.1778H34.4841C34.7956 12.2484 35.0494 12.4594 35.0494 12.7195V27.7945Z" fill="black"/>
<path d="M32.8475 17.641L32.2228 16.5994L31.5981 17.641L30.5868 17.2194L31.7174 15.335C31.909 15.0156 32.5371 15.0156 32.7287 15.335L33.8594 17.2194L32.8475 17.641Z" fill="black"/>
<path d="M32.2228 25.4391C32.0086 25.4391 31.813 25.3383 31.7169 25.1786L30.5863 23.2942L31.5976 22.8726L32.2228 23.9146L32.8475 22.873L33.8589 23.2947L32.7282 25.179C32.6327 25.3383 32.4371 25.4391 32.2228 25.4391Z" fill="black"/>
<path d="M3.95719 16.9593C4.58161 16.9593 5.08781 16.5375 5.08781 16.0171C5.08781 15.4968 4.58161 15.075 3.95719 15.075C3.33276 15.075 2.82656 15.4968 2.82656 16.0171C2.82656 16.5375 3.33276 16.9593 3.95719 16.9593Z" fill="#FCB641"/>
<path d="M3.95719 17.4304C3.02216 17.4304 2.26125 16.7964 2.26125 16.0172C2.26125 15.238 3.02216 14.6039 3.95719 14.6039C4.89221 14.6039 5.65312 15.238 5.65312 16.0172C5.65312 16.7964 4.89221 17.4304 3.95719 17.4304ZM3.95719 15.5461C3.6457 15.5461 3.39187 15.7571 3.39187 16.0172C3.39187 16.2772 3.6457 16.4883 3.95719 16.4883C4.26867 16.4883 4.5225 16.2772 4.5225 16.0172C4.5225 15.7571 4.26867 15.5461 3.95719 15.5461Z" fill="black"/>
<path d="M3.95719 21.1992C4.58161 21.1992 5.08781 20.7774 5.08781 20.257C5.08781 19.7367 4.58161 19.3148 3.95719 19.3148C3.33276 19.3148 2.82656 19.7367 2.82656 20.257C2.82656 20.7774 3.33276 21.1992 3.95719 21.1992Z" fill="#FD3238"/>
<path d="M3.95719 21.6703C3.02216 21.6703 2.26125 21.0362 2.26125 20.257C2.26125 19.4778 3.02216 18.8438 3.95719 18.8438C4.89221 18.8438 5.65312 19.4778 5.65312 20.257C5.65312 21.0362 4.89221 21.6703 3.95719 21.6703ZM3.95719 19.7859C3.6457 19.7859 3.39187 19.997 3.39187 20.257C3.39187 20.5171 3.6457 20.7281 3.95719 20.7281C4.26867 20.7281 4.5225 20.5171 4.5225 20.257C4.5225 19.997 4.26867 19.7859 3.95719 19.7859Z" fill="black"/>
<path d="M3.95719 25.4391C4.58161 25.4391 5.08781 25.0172 5.08781 24.4969C5.08781 23.9765 4.58161 23.5547 3.95719 23.5547C3.33276 23.5547 2.82656 23.9765 2.82656 24.4969C2.82656 25.0172 3.33276 25.4391 3.95719 25.4391Z" fill="#E65039"/>
<path d="M3.95719 25.9102C3.02216 25.9102 2.26125 25.2761 2.26125 24.4969C2.26125 23.7177 3.02216 23.0836 3.95719 23.0836C4.89221 23.0836 5.65312 23.7177 5.65312 24.4969C5.65312 25.2761 4.89221 25.9102 3.95719 25.9102ZM3.95719 24.0258C3.6457 24.0258 3.39187 24.2369 3.39187 24.4969C3.39187 24.7569 3.6457 24.968 3.95719 24.968C4.26867 24.968 4.5225 24.7569 4.5225 24.4969C4.5225 24.2369 4.26867 24.0258 3.95719 24.0258Z" fill="black"/>
<path d="M33.3534 18.8438H31.0922V19.7859H33.3534V18.8438Z" fill="black"/>
<path d="M33.3534 20.7281H31.0922V21.6703H33.3534V20.7281Z" fill="black"/>
<path d="M11.3062 24.4968H9.045V25.439H11.3062V24.4968Z" fill="black"/>
<path d="M22.6125 24.4968H20.3512V25.439H22.6125V24.4968Z" fill="black"/>
<path d="M13.5675 24.4968H12.4369V25.439H13.5675V24.4968Z" fill="black"/>
<path d="M15.8288 24.4968H14.6981V25.439H15.8288V24.4968Z" fill="black"/>
<path d="M24.8738 24.4968H23.7431V25.439H24.8738V24.4968Z" fill="black"/>
<path d="M27.135 24.4968H26.0044V25.439H27.135V24.4968Z" fill="black"/>
<path d="M27.135 15.075H26.0044V16.0171H27.135V15.075Z" fill="black"/>
<path d="M23.6165 21.1992H12.5635C12.2062 21.1992 11.9383 20.926 12.0095 20.6339L12.4702 18.7496C12.5239 18.53 12.7557 18.3727 13.0242 18.3727H23.1558C23.4243 18.3727 23.6561 18.5305 23.7098 18.7496L24.1705 20.6339C24.2417 20.926 23.9738 21.1992 23.6165 21.1992Z" fill="#FD3238"/>
<path d="M22.9268 18.3727H13.2532L13.8519 15.923C13.9056 15.7035 14.1373 15.5461 14.4059 15.5461H21.7736C22.0421 15.5461 22.2739 15.704 22.3276 15.923L22.9268 18.3727Z" fill="#FCB641"/>
<path d="M15.2634 23.0836H13.5675C13.2554 23.0836 13.0022 22.8725 13.0022 22.6125V21.1992H15.8288V22.6125C15.8288 22.8725 15.5755 23.0836 15.2634 23.0836Z" fill="#5F1315"/>
<path d="M22.6125 23.0836H20.9166C20.6045 23.0836 20.3512 22.8725 20.3512 22.6125V21.1992H23.1778V22.6125C23.1778 22.8725 22.9246 23.0836 22.6125 23.0836Z" fill="#5F1315"/>
<path d="M15.2634 19.3148H14.1328V20.257H15.2634V19.3148Z" fill="black"/>
<path d="M22.0472 19.3148H20.9166V20.257H22.0472V19.3148Z" fill="black"/>
<path d="M24.7245 20.5406L24.2638 18.6557C24.1728 18.2855 23.8234 18.0037 23.3943 17.9255L23.3887 17.9015H24.3084V16.9593H23.158L22.8816 15.8292C22.7747 15.392 22.3084 15.075 21.7741 15.075H14.4058C13.8711 15.075 13.4052 15.392 13.2978 15.8296L13.022 16.9593H11.8715V17.9015H12.7919L12.7862 17.9255C12.3572 18.0037 12.0078 18.2855 11.9168 18.6562L11.456 20.5406C11.3882 20.819 11.473 21.1045 11.6884 21.3245C11.8766 21.5167 12.1457 21.6312 12.4374 21.6585V22.6125C12.4374 23.1321 12.9445 23.5546 13.5681 23.5546H15.264C15.8875 23.5546 16.3946 23.1321 16.3946 22.6125V21.6703H19.7865V22.6125C19.7865 23.1321 20.2936 23.5546 20.9171 23.5546H22.6131C23.2366 23.5546 23.7437 23.1321 23.7437 22.6125V21.6585C24.0354 21.6312 24.3045 21.5162 24.4927 21.3245C24.7075 21.1045 24.7923 20.8185 24.7245 20.5406ZM14.4058 16.0171H21.7736L22.2343 17.9015H13.9451L14.4058 16.0171ZM13.0242 18.8437H13.2532H22.9262H23.1552L23.6171 20.7281H23.1778H20.3512H15.8287H13.0022H12.5635L13.0242 18.8437ZM15.264 22.6125H13.5675V21.6703H15.2634L15.264 22.6125ZM20.9166 22.6125V21.6703H22.6125L22.6131 22.6125H20.9166Z" fill="black"/>
<path d="M11.3062 15.075H9.045V16.0171H11.3062V15.075Z" fill="black"/>
</g>
<defs>
<clipPath id="clip0">
<rect width="36.18" height="30.15" fill="white"/>
</clipPath>
</defs>
</svg>
