<svg width="60" height="60" viewBox="0 0 60 60" fill="none" xmlns="http://www.w3.org/2000/svg">
<g clip-path="url(#clip0)">
<path d="M33.268 48.4104L23.1103 52.0321L22.7252 53.3782C22.1783 55.2941 20.1006 56.8611 18.1087 56.8611V57.7665H39.1751L33.268 48.4104Z" fill="#ADACA7"/>
<path d="M37.2749 53.3782L35.8551 48.4104L30 44.7886L24.1449 48.4104L23.1103 52.0321H33.268L33.6531 53.3782C34.2 55.2941 36.2777 56.8611 38.2696 56.8611L40.0805 57.7665L41.8913 56.8611C39.8994 56.8611 37.8217 55.2941 37.2749 53.3782Z" fill="#8F8F8B"/>
<path d="M52.7566 48.4105H56.3783C58.3702 48.4105 60 46.7807 60 44.7887V37.5453L52.7566 30.3018V48.4105Z" fill="#ADACA7"/>
<path d="M1.52588e-05 44.7887C1.52588e-05 46.7806 1.62979 48.4104 3.62175 48.4104H52.7565C54.7485 48.4104 56.3783 46.7806 56.3783 44.7887V23.0583L1.52588e-05 37.5452V44.7887Z" fill="#CBC9C2"/>
<path d="M56.3783 1.32794H52.7566L56.3783 37.5452H60V4.94967C60 2.95772 58.3702 1.32794 56.3783 1.32794Z" fill="#404242"/>
<path d="M56.3783 4.94967C56.3783 2.95772 54.7485 1.32794 52.7565 1.32794H3.62175C1.62979 1.32794 1.52588e-05 2.95772 1.52588e-05 4.94967V37.5452H56.3783V33.9235L30 19.435L56.3783 4.94967Z" fill="#565959"/>
<path d="M56.3783 4.94907L52.7573 4.94653C52.7573 4.94714 30 19.435 30 19.435C30 19.435 52.7568 33.9233 52.7565 33.9235L56.3781 33.9211C56.3783 33.9211 56.3779 4.94955 56.3783 4.94907Z" fill="#4B88D5"/>
<path d="M52.7566 4.94907L3.63237 4.94641C3.62936 4.94786 3.62682 33.9229 3.62175 33.9235C3.62175 33.9235 52.7541 33.9211 52.7553 33.9211C52.756 33.9211 52.7515 4.94955 52.7566 4.94907Z" fill="#69A7FF"/>
<path d="M30 44.7887C31.0001 44.7887 31.8109 43.978 31.8109 42.9779C31.8109 41.9777 31.0001 41.167 30 41.167C28.9999 41.167 28.1891 41.9777 28.1891 42.9779C28.1891 43.978 28.9999 44.7887 30 44.7887Z" fill="white"/>
<path d="M48.7123 58.672H11.2877C10.7877 58.672 10.3823 58.2667 10.3823 57.7665C10.3823 57.2664 10.7877 56.8611 11.2877 56.8611H48.7123C49.2123 56.8611 49.6177 57.2664 49.6177 57.7665C49.6177 58.2667 49.2123 58.672 48.7123 58.672Z" fill="#8F8F8B"/>
</g>
<defs>
<clipPath id="clip0">
<rect width="60" height="60" fill="white"/>
</clipPath>
</defs>
</svg>
