<svg width="60" height="60" viewBox="0 0 60 60" fill="none" xmlns="http://www.w3.org/2000/svg">
<g clip-path="url(#clip0)">
<path d="M45.5717 7.14844L58.8281 20.4071L52.9033 26.3333L39.6455 12.7313L45.5717 7.14844Z" fill="#5C9CEE"/>
<path d="M22.3476 14.8311L7.33475 29.8466L1.17188 23.6884L16.1884 8.67188C16.1884 8.67188 19.9173 12.4008 22.3476 14.8311Z" fill="#E64C3C"/>
<path d="M52.9033 26.3333L39.6455 12.7313C38.3647 14.0121 36.9704 14.7318 35.1585 14.7318C32.7255 14.7318 30.7077 15.3644 28.9874 17.0847L28.3594 17.7127L27.7313 17.0847C26.1818 15.5356 24.5169 14.9954 22.3476 14.8311L7.33475 29.8466L11.7865 34.2856L10.5432 35.5289C9.39972 36.6728 9.39972 38.5277 10.5432 39.6716C11.6881 40.8151 13.542 40.8151 14.6869 39.6716C13.542 40.8151 13.542 42.6704 14.6869 43.8153C15.8308 44.9593 17.6857 44.9593 18.8296 43.8153C17.6857 44.9593 17.6857 46.8141 18.8296 47.9581C19.9745 49.1016 21.8285 49.1016 22.9733 47.9581C21.8285 49.1016 21.8285 50.9569 22.9733 52.1017C24.1173 53.2452 25.9721 53.2452 27.1161 52.1017L28.3594 50.8585L29.6027 52.1017C30.7466 53.2452 32.6015 53.2452 33.7454 52.1017C34.8903 50.9569 34.8903 49.1016 33.7454 47.9581C34.8889 49.1016 36.7451 49.1016 37.8891 47.9581C39.0326 46.8141 39.0326 44.9593 37.8891 43.8153C39.0326 44.9588 40.8879 44.9593 42.0314 43.8153C43.1767 42.6704 43.1767 40.8151 42.0314 39.6716C43.1767 40.8151 45.0302 40.8151 46.1755 39.6716C47.319 38.5277 47.319 36.6728 46.1755 35.5289L44.9318 34.2856C45.0952 34.1231 43.613 35.6017 52.9033 26.3333Z" fill="#FFCEBF"/>
<path d="M47.8569 15.1081C48.3142 14.6499 48.3142 13.9078 47.8569 13.451C47.3987 12.9927 46.6571 12.9927 46.1998 13.451C45.7416 13.9078 45.7416 14.6499 46.1998 15.1081C46.6571 15.5649 47.3987 15.5649 47.8569 15.1081Z" fill="black"/>
<path d="M15.2916 17.5346C15.7489 17.0778 15.7489 16.3358 15.2916 15.8775C14.8334 15.4207 14.0918 15.4207 13.6345 15.8775C13.1763 16.3358 13.1763 17.0778 13.6345 17.5346C14.0918 17.9929 14.8334 17.9929 15.2916 17.5346Z" fill="black"/>
<path d="M8.39538 24.2825L11.9028 20.7738C12.3605 20.316 12.3601 19.5744 11.9028 19.1166C11.445 18.6589 10.703 18.6593 10.2452 19.1166L6.73782 22.6254C6.28052 23.0832 6.28052 23.8252 6.73828 24.2825C7.19559 24.7403 7.93762 24.7403 8.39538 24.2825Z" fill="black"/>
<path d="M51.7227 20.8841C52.1805 21.3419 52.9225 21.3419 53.3803 20.8841C53.838 20.4268 53.838 19.6848 53.3803 19.227L51.0425 16.8892C50.5847 16.4315 49.8427 16.4315 49.3849 16.8892C48.9276 17.3465 48.9276 18.0886 49.3849 18.5463L51.7227 20.8841Z" fill="black"/>
<path d="M59.6567 19.5786L46.4003 6.3199C45.9526 5.87175 45.2293 5.86076 44.7684 6.29564C43.7388 7.26564 38.8998 11.8227 38.8298 11.8909C38.8257 11.895 38.8211 11.8987 38.817 11.9028C37.6707 13.049 36.5423 13.5599 35.1581 13.5599C32.3282 13.5599 30.1602 14.3591 28.3598 16.0643C26.8835 14.6663 25.2104 13.9435 22.8753 13.7023L17.0169 7.84334C16.5591 7.38557 15.8171 7.38557 15.3593 7.84334L0.343303 22.8598C-0.102559 23.3052 -0.117207 24.0248 0.31721 24.4885C0.326366 24.4982 0.334148 24.5078 0.343303 24.5169C0.357952 24.532 10.1147 34.2732 10.1285 34.2865L9.71464 34.7003C8.11247 36.3025 8.11155 38.8971 9.7151 40.5007C10.4741 41.2587 11.5169 41.7092 12.6576 41.6977C12.6452 42.8233 13.0801 43.8657 13.8583 44.6439C14.6489 45.4344 15.7054 45.8537 16.8008 45.8423C16.7889 46.967 17.2233 48.0089 18.0015 48.7871C18.7605 49.5452 19.8028 49.9956 20.944 49.9841C20.9317 51.1098 21.3666 52.1521 22.1448 52.9303C23.7437 54.5293 26.3452 54.5293 27.9446 52.9303L28.3594 52.5156L28.7741 52.9303C30.3731 54.5293 32.9745 54.5293 34.574 52.9303C35.3503 52.1539 35.7861 51.1134 35.7751 49.9864C36.8944 49.9979 37.9371 49.5671 38.7176 48.7866C39.5279 47.9764 39.927 46.9084 39.9161 45.8441C41.0522 45.856 42.0904 45.4138 42.8604 44.6439C43.64 43.8648 44.0739 42.8206 44.0611 41.6977C45.1501 41.7087 46.2089 41.2949 47.0041 40.5002C48.6067 38.8976 48.6067 36.3034 47.0041 34.7003L46.5907 34.287C54.7613 26.1255 44.4255 36.4696 59.6567 21.2357C60.1144 20.7779 60.1144 20.0363 59.6567 19.5786ZM2.82942 23.6879L16.1883 10.3295L20.6904 14.8316L7.33427 28.1896L2.82942 23.6879ZM11.3717 38.8431C10.6851 38.1564 10.6851 37.0445 11.3717 36.3574L15.5154 32.2138C16.2012 31.5285 17.3158 31.5289 18.0011 32.2138C18.6891 32.9022 18.6891 34.0123 18.0011 34.7003L13.8588 38.8426C13.173 39.5275 12.057 39.5275 11.3717 38.8431ZM15.5154 42.9868C14.8283 42.2992 14.8274 41.1878 15.5154 40.5002L19.6582 36.3574C20.3462 35.6699 21.4567 35.6694 22.1448 36.3574C22.83 37.0427 22.8328 38.1551 22.1448 38.8426C22.1443 38.8431 22.1443 38.8431 22.1443 38.8436L18.0011 42.9868C17.3158 43.672 16.2007 43.672 15.5154 42.9868ZM19.6582 47.1291C18.9715 46.4429 18.9715 45.3305 19.6582 44.6439L23.8019 40.5002C24.4871 39.8149 25.6018 39.8149 26.288 40.5011C26.9646 41.1763 26.9847 42.2887 26.2875 42.9863C26.2875 42.9863 26.2875 42.9863 26.2871 42.9868L22.1452 47.1286C21.4595 47.8139 20.3435 47.8139 19.6582 47.1291ZM23.8019 51.2732C23.1148 50.5856 23.1138 49.4742 23.8019 48.7866L27.9446 44.6439C28.6317 43.9568 29.7432 43.9559 30.4307 44.6439C31.1224 45.3356 31.1123 46.4484 30.4307 47.1295L26.2875 51.2732C25.6018 51.958 24.4871 51.958 23.8019 51.2732ZM32.9164 51.2732C32.2316 51.9585 31.1165 51.9585 30.4312 51.2732L30.0165 50.8585L32.0883 48.7866C32.2284 48.6466 32.3547 48.4969 32.4719 48.3417L32.9159 48.7862C32.9164 48.7862 32.9164 48.7862 32.9168 48.7866L32.9173 48.7871C33.6044 49.4742 33.6044 50.5852 32.9164 51.2732ZM45.347 38.8426C44.6612 39.5275 43.5457 39.5275 42.8604 38.8426L37.4743 33.457C37.0166 32.9993 36.2745 32.9993 35.8168 33.457C35.3595 33.9144 35.3595 34.6564 35.8168 35.1141L41.2033 40.5007C41.8904 41.1873 41.8909 42.2988 41.2028 42.9868C40.5148 43.6748 39.4029 43.672 38.7176 42.9868L33.3316 37.5993C32.8743 37.142 32.1322 37.142 31.6745 37.5993C31.2167 38.0571 31.2167 38.7991 31.674 39.2569L37.0601 44.6439C37.7453 45.3291 37.7453 46.4443 37.0601 47.1291C36.7287 47.461 36.2869 47.6441 35.8168 47.6441C34.703 47.6441 34.3442 46.767 33.2881 45.8437C33.2776 44.7643 32.8528 43.7512 32.0888 42.9872C31.3115 42.209 30.2705 41.7746 29.1458 41.7856C29.1572 40.659 28.721 39.6181 27.9446 38.8426C27.1344 38.0324 26.0664 37.6337 25.0021 37.6447C25.0255 35.3334 23.1537 33.4758 20.8594 33.4996C20.8708 32.3612 20.4259 31.3243 19.6582 30.5567C18.0592 28.9572 15.4573 28.9572 13.8583 30.5567L11.7856 32.6294L8.99321 29.8453L22.7856 16.0506C24.4935 16.2456 25.6434 16.7368 26.6977 17.7168L23.3867 21.0274C21.5607 22.8548 21.5607 25.8284 23.3871 27.6567C25.215 29.4832 28.1891 29.4837 30.0165 27.6563L33.3316 24.3416C35.4739 26.4844 43.7851 34.796 45.3465 36.3579C46.0318 37.0427 46.0318 38.1578 45.347 38.8426ZM44.9331 32.6294L34.9887 22.6845L35.8172 21.8559C36.275 21.3982 36.275 20.6561 35.8172 20.1984C35.3595 19.7411 34.6179 19.7411 34.1597 20.1984L28.3589 25.9996C27.4457 26.9129 25.9579 26.9129 25.0442 25.9996C24.131 25.0855 24.131 23.5982 25.0438 22.6845C26.2459 21.4829 28.6152 19.1139 29.816 17.9137C31.2057 16.5239 32.8537 15.9036 35.1581 15.9036C36.8156 15.9036 38.2466 15.4056 39.5874 14.3509L51.2562 26.3228C43.6285 33.9308 45.1341 32.4289 44.9331 32.6294ZM52.9138 24.6652L41.3168 12.767L45.5475 8.78129L57.171 20.4071L52.9138 24.6652Z" fill="black"/>
</g>
<defs>
<clipPath id="clip0">
<rect width="60" height="60" fill="white"/>
</clipPath>
</defs>
</svg>
