<svg width="60" height="60" viewBox="0 0 60 60" fill="none" xmlns="http://www.w3.org/2000/svg">
<path d="M2.95596 18.4514H57.0436V57.044H2.95596V18.4514Z" fill="#DFEEF4"/>
<path d="M2.95596 7.42401H57.0436V18.4513H2.95596V7.42401Z" fill="#E64C3C"/>
<path d="M28.2511 2.95593H31.7489V11.8912H28.2511V2.95593Z" fill="#6D7A84"/>
<path d="M42.2119 2.95593H45.7097V11.8912H42.2119V2.95593Z" fill="#6D7A84"/>
<path d="M14.2903 2.95593H17.7881V11.8912H14.2903V2.95593Z" fill="#6D7A84"/>
<path d="M12.9661 29.6863C14.5927 29.6863 15.9113 28.3677 15.9113 26.7412C15.9113 25.1146 14.5927 23.796 12.9661 23.796C11.3396 23.796 10.021 25.1146 10.021 26.7412C10.021 28.3677 11.3396 29.6863 12.9661 29.6863Z" fill="#3EA2E5"/>
<path d="M24.3221 29.6863C25.9486 29.6863 27.2672 28.3677 27.2672 26.7412C27.2672 25.1146 25.9486 23.796 24.3221 23.796C22.6955 23.796 21.3769 25.1146 21.3769 26.7412C21.3769 28.3677 22.6955 29.6863 24.3221 29.6863Z" fill="#3EA2E5"/>
<path d="M35.678 29.6863C37.3046 29.6863 38.6232 28.3677 38.6232 26.7412C38.6232 25.1146 37.3046 23.796 35.678 23.796C34.0514 23.796 32.7328 25.1146 32.7328 26.7412C32.7328 28.3677 34.0514 29.6863 35.678 29.6863Z" fill="#3EA2E5"/>
<path d="M47.034 29.6863C48.6605 29.6863 49.9791 28.3677 49.9791 26.7412C49.9791 25.1146 48.6605 23.796 47.034 23.796C45.4074 23.796 44.0888 25.1146 44.0888 26.7412C44.0888 28.3677 45.4074 29.6863 47.034 29.6863Z" fill="#3EA2E5"/>
<path d="M12.9661 40.6926C14.5927 40.6926 15.9113 39.374 15.9113 37.7474C15.9113 36.1208 14.5927 34.8022 12.9661 34.8022C11.3396 34.8022 10.021 36.1208 10.021 37.7474C10.021 39.374 11.3396 40.6926 12.9661 40.6926Z" fill="#3EA2E5"/>
<path d="M24.3221 40.6926C25.9486 40.6926 27.2672 39.374 27.2672 37.7474C27.2672 36.1208 25.9486 34.8022 24.3221 34.8022C22.6955 34.8022 21.3769 36.1208 21.3769 37.7474C21.3769 39.374 22.6955 40.6926 24.3221 40.6926Z" fill="#3EA2E5"/>
<path d="M35.678 40.6926C37.3046 40.6926 38.6232 39.374 38.6232 37.7474C38.6232 36.1208 37.3046 34.8022 35.678 34.8022C34.0514 34.8022 32.7328 36.1208 32.7328 37.7474C32.7328 39.374 34.0514 40.6926 35.678 40.6926Z" fill="#3EA2E5"/>
<path d="M47.034 40.6926C48.6605 40.6926 49.9791 39.374 49.9791 37.7474C49.9791 36.1208 48.6605 34.8022 47.034 34.8022C45.4074 34.8022 44.0888 36.1208 44.0888 37.7474C44.0888 39.374 45.4074 40.6926 47.034 40.6926Z" fill="#3EA2E5"/>
<path d="M12.9661 51.6993C14.5927 51.6993 15.9113 50.3807 15.9113 48.7541C15.9113 47.1276 14.5927 45.809 12.9661 45.809C11.3396 45.809 10.021 47.1276 10.021 48.7541C10.021 50.3807 11.3396 51.6993 12.9661 51.6993Z" fill="#3EA2E5"/>
<path d="M24.3221 51.6993C25.9486 51.6993 27.2672 50.3807 27.2672 48.7541C27.2672 47.1276 25.9486 45.809 24.3221 45.809C22.6955 45.809 21.3769 47.1276 21.3769 48.7541C21.3769 50.3807 22.6955 51.6993 24.3221 51.6993Z" fill="#3EA2E5"/>
<path d="M35.678 51.6993C37.3046 51.6993 38.6232 50.3807 38.6232 48.7541C38.6232 47.1276 37.3046 45.809 35.678 45.809C34.0514 45.809 32.7328 47.1276 32.7328 48.7541C32.7328 50.3807 34.0514 51.6993 35.678 51.6993Z" fill="#3EA2E5"/>
<path d="M47.034 51.6993C48.6605 51.6993 49.9791 50.3807 49.9791 48.7541C49.9791 47.1276 48.6605 45.809 47.034 45.809C45.4074 45.809 44.0888 47.1276 44.0888 48.7541C44.0888 50.3807 45.4074 51.6993 47.034 51.6993Z" fill="#3EA2E5"/>
<path d="M2.95642 48.0703C3.17398 48.0703 3.38263 47.9838 3.53647 47.83C3.69031 47.6761 3.77673 47.4675 3.77673 47.2499V45.1406C3.77673 44.923 3.69031 44.7144 3.53647 44.5605C3.38263 44.4067 3.17398 44.3203 2.95642 44.3203C2.73886 44.3203 2.53021 44.4067 2.37637 44.5605C2.22253 44.7144 2.13611 44.923 2.13611 45.1406V47.2499C2.13605 47.3577 2.15722 47.4644 2.19843 47.5639C2.23963 47.6635 2.30005 47.7539 2.37624 47.8301C2.45242 47.9063 2.54288 47.9667 2.64243 48.0079C2.74198 48.0491 2.84868 48.0703 2.95642 48.0703Z" fill="black"/>
<path d="M57.0436 11.5687C57.2612 11.5687 57.4698 11.4823 57.6237 11.3284C57.7775 11.1746 57.8639 10.966 57.8639 10.7484V7.42402C57.864 7.31627 57.8428 7.20958 57.8016 7.11002C57.7604 7.01047 57.7 6.92002 57.6238 6.84383C57.5476 6.76764 57.4572 6.70722 57.3576 6.66602C57.258 6.62482 57.1513 6.60364 57.0436 6.6037H46.53V2.95636C46.53 2.7388 46.4436 2.53015 46.2897 2.37631C46.1359 2.22247 45.9273 2.13605 45.7097 2.13605H42.2119C42.1041 2.13599 41.9974 2.15716 41.8979 2.19836C41.7983 2.23957 41.7079 2.29999 41.6317 2.37617C41.5555 2.45236 41.4951 2.54281 41.4539 2.64237C41.4127 2.74192 41.3915 2.84862 41.3916 2.95636V6.6037H32.5692V2.95636C32.5693 2.84862 32.5481 2.74192 32.5069 2.64237C32.4657 2.54281 32.4053 2.45236 32.3291 2.37617C32.2529 2.29999 32.1625 2.23957 32.0629 2.19836C31.9634 2.15716 31.8567 2.13599 31.7489 2.13605H28.2511C28.1434 2.13599 28.0367 2.15716 27.9371 2.19836C27.8376 2.23957 27.7471 2.29999 27.6709 2.37617C27.5947 2.45236 27.5343 2.54281 27.4931 2.64237C27.4519 2.74192 27.4307 2.84862 27.4308 2.95636V6.6037H18.6094V2.95636C18.6095 2.84862 18.5883 2.74192 18.5471 2.64237C18.5059 2.54281 18.4454 2.45236 18.3693 2.37617C18.2931 2.29999 18.2026 2.23957 18.1031 2.19836C18.0035 2.15716 17.8968 2.13599 17.7891 2.13605H14.2903C14.0728 2.13605 13.8641 2.22247 13.7103 2.37631C13.5564 2.53015 13.47 2.7388 13.47 2.95636V6.6037H2.95642C2.84868 6.60364 2.74198 6.62482 2.64243 6.66602C2.54288 6.70722 2.45242 6.76764 2.37624 6.84383C2.30005 6.92002 2.23963 7.01047 2.19843 7.11002C2.15722 7.20958 2.13605 7.31627 2.13611 7.42402V41.0835C2.13611 41.3011 2.22253 41.5098 2.37637 41.6636C2.53021 41.8174 2.73886 41.9039 2.95642 41.9039C3.17398 41.9039 3.38263 41.8174 3.53647 41.6636C3.69031 41.5098 3.77673 41.3011 3.77673 41.0835V19.2717H56.2233V56.2232H3.77673V51.1139C3.77673 50.8963 3.69031 50.6877 3.53647 50.5338C3.38263 50.38 3.17398 50.2935 2.95642 50.2935C2.73886 50.2935 2.53021 50.38 2.37637 50.5338C2.22253 50.6877 2.13611 50.8963 2.13611 51.1139V57.0459C2.13605 57.1536 2.15722 57.2603 2.19843 57.3599C2.23963 57.4594 2.30005 57.5499 2.37624 57.6261C2.45242 57.7023 2.54288 57.7627 2.64243 57.8039C2.74198 57.8451 2.84868 57.8663 2.95642 57.8662H57.0436C57.1513 57.8663 57.258 57.8451 57.3576 57.8039C57.4572 57.7627 57.5476 57.7023 57.6238 57.6261C57.7 57.5499 57.7604 57.4594 57.8016 57.3599C57.8428 57.2603 57.864 57.1536 57.8639 57.0459V14.347C57.8639 14.1294 57.7775 13.9208 57.6237 13.7669C57.4698 13.6131 57.2612 13.5267 57.0436 13.5267C56.826 13.5267 56.6174 13.6131 56.4636 13.7669C56.3097 13.9208 56.2233 14.1294 56.2233 14.347V17.631H3.77673V8.24433H13.47V11.8917C13.47 12.1092 13.5564 12.3179 13.7103 12.4717C13.8641 12.6256 14.0728 12.712 14.2903 12.712H17.7881C17.8959 12.712 18.0026 12.6909 18.1021 12.6497C18.2017 12.6085 18.2921 12.548 18.3683 12.4719C18.4445 12.3957 18.5049 12.3052 18.5461 12.2057C18.5873 12.1061 18.6085 11.9994 18.6085 11.8917V8.24433H27.4308V11.8917C27.4307 11.9994 27.4519 12.1061 27.4931 12.2057C27.5343 12.3052 27.5947 12.3957 27.6709 12.4719C27.7471 12.548 27.8376 12.6085 27.9371 12.6497C28.0367 12.6909 28.1434 12.712 28.2511 12.712H31.7489C31.8567 12.712 31.9634 12.6909 32.0629 12.6497C32.1625 12.6085 32.2529 12.548 32.3291 12.4719C32.4053 12.3957 32.4657 12.3052 32.5069 12.2057C32.5481 12.1061 32.5693 11.9994 32.5692 11.8917V8.24433H41.3906V11.8917C41.3906 11.9994 41.4118 12.1061 41.453 12.2057C41.4942 12.3052 41.5546 12.3957 41.6308 12.4719C41.707 12.548 41.7974 12.6085 41.897 12.6497C41.9965 12.6909 42.1032 12.712 42.211 12.712H45.7088C45.9263 12.712 46.135 12.6256 46.2888 12.4717C46.4426 12.3179 46.5291 12.1092 46.5291 11.8917V8.24433H56.2224V10.7484C56.2224 10.8562 56.2437 10.9629 56.285 11.0625C56.3263 11.162 56.3868 11.2525 56.4631 11.3286C56.5393 11.4048 56.6299 11.4652 56.7295 11.5064C56.8291 11.5476 56.9358 11.5688 57.0436 11.5687ZM16.9688 11.0714H15.1106V3.77667H16.9688V11.0714ZM30.9295 11.0714H29.0714V3.77667H30.9286L30.9295 11.0714ZM44.8903 11.0714H43.0313V3.77667H44.8885L44.8903 11.0714Z" fill="black"/>
<path d="M12.9657 30.5067C13.7104 30.5068 14.4385 30.286 15.0578 29.8723C15.6771 29.4586 16.1598 28.8706 16.4448 28.1825C16.7299 27.4945 16.8045 26.7374 16.6593 26.0069C16.5141 25.2765 16.1555 24.6055 15.6289 24.0788C15.1023 23.5522 14.4313 23.1935 13.7009 23.0482C12.9705 22.9028 12.2133 22.9774 11.5252 23.2624C10.8372 23.5473 10.2491 24.03 9.83528 24.6492C9.42151 25.2684 9.20065 25.9965 9.20065 26.7412C9.20165 27.7395 9.59862 28.6966 10.3045 29.4026C11.0103 30.1085 11.9674 30.5056 12.9657 30.5067ZM12.9657 24.6164C13.3859 24.6163 13.7968 24.7408 14.1463 24.9743C14.4958 25.2077 14.7682 25.5395 14.9291 25.9278C15.09 26.316 15.1321 26.7433 15.0502 27.1555C14.9683 27.5677 14.7659 27.9463 14.4688 28.2436C14.1716 28.5408 13.793 28.7432 13.3808 28.8252C12.9686 28.9072 12.5414 28.8652 12.1531 28.7044C11.7648 28.5436 11.4329 28.2712 11.1994 27.9218C10.9659 27.5723 10.8413 27.1615 10.8413 26.7412C10.8418 26.1779 11.0657 25.6378 11.464 25.2395C11.8623 24.8411 12.4023 24.617 12.9657 24.6164Z" fill="black"/>
<path d="M24.322 30.5066C25.0668 30.5066 25.7948 30.2858 26.414 29.8721C27.0333 29.4583 27.5159 28.8702 27.8009 28.1822C28.0859 27.4941 28.1604 26.737 28.0152 26.0066C27.8699 25.2761 27.5112 24.6052 26.9846 24.0786C26.458 23.552 25.7871 23.1934 25.0567 23.0481C24.3262 22.9028 23.5691 22.9773 22.8811 23.2623C22.193 23.5473 21.6049 24.03 21.1912 24.6492C20.7774 25.2684 20.5566 25.9964 20.5566 26.7412C20.5577 27.7395 20.9548 28.6966 21.6607 29.4025C22.3666 30.1085 23.3237 30.5055 24.322 30.5066ZM24.322 24.6163C24.7423 24.6163 25.1531 24.741 25.5025 24.9744C25.852 25.2079 26.1243 25.5398 26.2851 25.928C26.446 26.3163 26.488 26.7435 26.4061 27.1557C26.3241 27.5679 26.1217 27.9465 25.8245 28.2437C25.5274 28.5408 25.1488 28.7432 24.7366 28.8252C24.3244 28.9072 23.8972 28.8651 23.5089 28.7043C23.1206 28.5435 22.7888 28.2711 22.5553 27.9217C22.3218 27.5722 22.1972 27.1614 22.1972 26.7412C22.1977 26.1778 22.4217 25.6376 22.8201 25.2392C23.2185 24.8409 23.7587 24.6168 24.322 24.6163Z" fill="black"/>
<path d="M35.678 30.5066C36.4227 30.5066 37.1507 30.2858 37.77 29.8721C38.3892 29.4583 38.8718 28.8702 39.1568 28.1822C39.4418 27.4941 39.5164 26.737 39.3711 26.0066C39.2258 25.2761 38.8672 24.6052 38.3406 24.0786C37.8139 23.552 37.143 23.1934 36.4126 23.0481C35.6821 22.9028 34.925 22.9773 34.237 23.2623C33.5489 23.5473 32.9609 24.03 32.5471 24.6492C32.1333 25.2684 31.9125 25.9964 31.9125 26.7412C31.9136 27.7395 32.3107 28.6966 33.0166 29.4025C33.7225 30.1085 34.6797 30.5055 35.678 30.5066ZM35.678 24.6163C36.0982 24.6163 36.509 24.741 36.8585 24.9744C37.2079 25.2079 37.4802 25.5398 37.6411 25.928C37.8019 26.3163 37.844 26.7435 37.762 27.1557C37.68 27.5679 37.4776 27.9465 37.1805 28.2437C36.8833 28.5408 36.5047 28.7432 36.0925 28.8252C35.6803 28.9072 35.2531 28.8651 34.8648 28.7043C34.4766 28.5435 34.1447 28.2711 33.9112 27.9217C33.6777 27.5722 33.5531 27.1614 33.5531 26.7412C33.5538 26.1778 33.7778 25.6377 34.1762 25.2394C34.5745 24.841 35.1146 24.617 35.678 24.6163Z" fill="black"/>
<path d="M47.0344 30.5066C47.7791 30.5066 48.5071 30.2858 49.1264 29.8721C49.7456 29.4583 50.2282 28.8702 50.5132 28.1822C50.7982 27.4941 50.8728 26.737 50.7275 26.0066C50.5822 25.2761 50.2236 24.6052 49.697 24.0786C49.1704 23.552 48.4994 23.1934 47.769 23.0481C47.0386 22.9028 46.2815 22.9773 45.5934 23.2623C44.9054 23.5473 44.3173 24.03 43.9035 24.6492C43.4898 25.2684 43.2689 25.9964 43.2689 26.7412C43.2699 27.7395 43.6669 28.6967 44.3729 29.4027C45.0788 30.1086 46.036 30.5057 47.0344 30.5066ZM47.0344 24.6163C47.4546 24.6163 47.8655 24.741 48.2149 24.9744C48.5643 25.2079 48.8367 25.5398 48.9975 25.928C49.1583 26.3163 49.2004 26.7435 49.1184 27.1557C49.0364 27.5679 48.834 27.9465 48.5369 28.2437C48.2397 28.5408 47.8611 28.7432 47.4489 28.8252C47.0367 28.9072 46.6095 28.8651 46.2212 28.7043C45.833 28.5435 45.5011 28.2711 45.2676 27.9217C45.0342 27.5722 44.9095 27.1614 44.9095 26.7412C44.91 26.1778 45.1341 25.6376 45.5324 25.2392C45.9308 24.8409 46.471 24.6168 47.0344 24.6163Z" fill="black"/>
<path d="M12.9657 41.5134C13.7105 41.5136 14.4387 41.2929 15.0582 40.8792C15.6776 40.4655 16.1604 39.8774 16.4456 39.1893C16.7308 38.5011 16.8055 37.7439 16.6603 37.0133C16.5151 36.2827 16.1565 35.6116 15.6298 35.0849C15.1032 34.5581 14.4322 34.1993 13.7016 34.0539C12.9711 33.9086 12.2138 33.9831 11.5256 34.2681C10.8375 34.5531 10.2492 35.0358 9.83539 35.6551C9.42155 36.2744 9.20065 37.0026 9.20065 37.7474C9.20165 38.7458 9.5986 39.7029 10.3044 40.4089C11.0103 41.1149 11.9673 41.5121 12.9657 41.5134ZM12.9657 35.6249C13.3861 35.6248 13.7971 35.7493 14.1467 35.9827C14.4964 36.2161 14.7689 36.548 14.9299 36.9364C15.0909 37.3248 15.1331 37.7521 15.0511 38.1645C14.9692 38.5768 14.7668 38.9556 14.4696 39.2529C14.1723 39.5502 13.7936 39.7527 13.3813 39.8347C12.9689 39.9168 12.5416 39.8746 12.1532 39.7137C11.7648 39.5528 11.4328 39.2804 11.1993 38.9308C10.9658 38.5812 10.8412 38.1702 10.8413 37.7498C10.8418 37.1865 11.0657 36.6464 11.464 36.248C11.8623 35.8496 12.4023 35.6256 12.9657 35.6249Z" fill="black"/>
<path d="M24.322 41.5133C25.0669 41.5134 25.795 41.2926 26.4144 40.8789C27.0338 40.4651 27.5165 39.877 27.8016 39.1889C28.0868 38.5007 28.1614 37.7435 28.0161 37.013C27.8709 36.2824 27.5123 35.6114 26.9856 35.0846C26.4589 34.5579 25.7879 34.1992 25.0574 34.0538C24.3269 33.9085 23.5696 33.983 22.8815 34.2681C22.1933 34.5531 21.6051 35.0358 21.1913 35.6551C20.7775 36.2744 20.5566 37.0025 20.5566 37.7474C20.5577 38.7457 20.9548 39.7029 21.6607 40.4089C22.3666 41.1149 23.3237 41.5121 24.322 41.5133ZM24.322 35.6225C24.7424 35.6224 25.1534 35.747 25.503 35.9805C25.8526 36.214 26.125 36.5459 26.286 36.9343C26.4469 37.3227 26.489 37.7501 26.407 38.1624C26.325 38.5747 26.1226 38.9534 25.8253 39.2507C25.5281 39.5479 25.1493 39.7504 24.737 39.8324C24.3247 39.9143 23.8973 39.8722 23.509 39.7113C23.1206 39.5504 22.7887 39.2779 22.5552 38.9283C22.3217 38.5787 22.1971 38.1678 22.1972 37.7474C22.1983 37.1844 22.4226 36.6448 22.8209 36.247C23.2192 35.8491 23.7591 35.6254 24.322 35.6249V35.6225Z" fill="black"/>
<path d="M35.678 41.5133C36.4228 41.5134 37.151 41.2926 37.7704 40.8789C38.3897 40.4651 38.8725 39.877 39.1576 39.1889C39.4427 38.5007 39.5173 37.7435 39.3721 37.013C39.2268 36.2824 38.8682 35.6114 38.3415 35.0846C37.8149 34.5579 37.1439 34.1992 36.4133 34.0538C35.6828 33.9085 34.9256 33.983 34.2374 34.2681C33.5492 34.5531 32.961 35.0358 32.5472 35.6551C32.1334 36.2744 31.9125 37.0025 31.9125 37.7474C31.9136 38.7457 32.3107 39.7029 33.0166 40.4089C33.7225 41.1149 34.6796 41.5121 35.678 41.5133ZM35.678 35.6225C36.0984 35.6224 36.5093 35.747 36.8589 35.9805C37.2085 36.214 37.481 36.5459 37.6419 36.9343C37.8028 37.3227 37.8449 37.7501 37.7629 38.1624C37.681 38.5747 37.4785 38.9534 37.1813 39.2507C36.884 39.5479 36.5053 39.7504 36.093 39.8324C35.6806 39.9143 35.2533 39.8722 34.8649 39.7113C34.4765 39.5504 34.1446 39.2779 33.9111 38.9283C33.6776 38.5787 33.553 38.1678 33.5531 37.7474C33.5544 37.1844 33.7787 36.6449 34.177 36.2471C34.5753 35.8492 35.115 35.6255 35.678 35.6249V35.6225Z" fill="black"/>
<path d="M47.0344 41.5133C47.7792 41.5134 48.5074 41.2926 49.1268 40.8789C49.7461 40.4651 50.2289 39.877 50.514 39.1889C50.7991 38.5007 50.8738 37.7435 50.7285 37.013C50.5832 36.2824 50.2246 35.6114 49.6979 35.0846C49.1713 34.5579 48.5003 34.1992 47.7697 34.0538C47.0392 33.9085 46.282 33.983 45.5938 34.2681C44.9056 34.5531 44.3175 35.0358 43.9036 35.6551C43.4898 36.2744 43.2689 37.0025 43.2689 37.7474C43.2699 38.7458 43.6669 39.703 44.3729 40.409C45.0788 41.1151 46.036 41.5122 47.0344 41.5133ZM47.0344 35.6225C47.4548 35.6224 47.8658 35.747 48.2153 35.9805C48.5649 36.214 48.8374 36.5459 48.9983 36.9343C49.1592 37.3227 49.2014 37.7501 49.1194 38.1624C49.0374 38.5747 48.8349 38.9534 48.5377 39.2507C48.2404 39.5479 47.8617 39.7504 47.4494 39.8324C47.0371 39.9143 46.6097 39.8722 46.2213 39.7113C45.833 39.5504 45.501 39.2779 45.2675 38.9283C45.034 38.5787 44.9095 38.1678 44.9095 37.7474C44.9107 37.1844 45.135 36.6448 45.5333 36.247C45.9316 35.8491 46.4714 35.6254 47.0344 35.6249V35.6225Z" fill="black"/>
<path d="M12.9657 52.5196C13.7104 52.5197 14.4385 52.2989 15.0578 51.8852C15.6771 51.4715 16.1598 50.8835 16.4448 50.1954C16.7299 49.5074 16.8045 48.7503 16.6593 48.0198C16.5141 47.2893 16.1555 46.6184 15.6289 46.0917C15.1023 45.565 14.4313 45.2064 13.7009 45.061C12.9705 44.9157 12.2133 44.9902 11.5252 45.2752C10.8372 45.5602 10.2491 46.0428 9.83528 46.6621C9.42151 47.2813 9.20065 48.0094 9.20065 48.7541C9.20177 49.7524 9.59878 50.7094 10.3046 51.4153C11.0104 52.1212 11.9674 52.5184 12.9657 52.5196ZM12.9657 46.6293C13.3859 46.6292 13.7968 46.7537 14.1463 46.9871C14.4958 47.2206 14.7682 47.5524 14.9291 47.9407C15.09 48.3289 15.1321 48.7562 15.0502 49.1684C14.9683 49.5806 14.7659 49.9592 14.4688 50.2564C14.1716 50.5537 13.793 50.7561 13.3808 50.8381C12.9686 50.9201 12.5414 50.8781 12.1531 50.7173C11.7648 50.5565 11.4329 50.2841 11.1994 49.9347C10.9659 49.5852 10.8413 49.1744 10.8413 48.7541C10.8418 48.1908 11.0657 47.6507 11.464 47.2523C11.8623 46.854 12.4023 46.6299 12.9657 46.6293Z" fill="black"/>
<path d="M24.322 52.5196C25.0668 52.5196 25.7948 52.2988 26.414 51.885C27.0333 51.4712 27.5159 50.8832 27.8009 50.1951C28.0859 49.5071 28.1604 48.7499 28.0152 48.0195C27.8699 47.2891 27.5112 46.6181 26.9846 46.0915C26.458 45.5649 25.7871 45.2063 25.0567 45.061C24.3262 44.9157 23.5691 44.9903 22.8811 45.2753C22.193 45.5603 21.6049 46.0429 21.1912 46.6621C20.7774 47.2814 20.5566 48.0094 20.5566 48.7541C20.5578 49.7524 20.9549 50.7094 21.6608 51.4153C22.3667 52.1212 23.3238 52.5184 24.322 52.5196ZM24.322 46.6293C24.7423 46.6293 25.1531 46.7539 25.5025 46.9874C25.852 47.2209 26.1243 47.5527 26.2851 47.941C26.446 48.3292 26.488 48.7565 26.4061 49.1687C26.3241 49.5808 26.1217 49.9594 25.8245 50.2566C25.5274 50.5538 25.1488 50.7562 24.7366 50.8381C24.3244 50.9201 23.8972 50.878 23.5089 50.7172C23.1206 50.5564 22.7888 50.284 22.5553 49.9346C22.3218 49.5852 22.1972 49.1744 22.1972 48.7541C22.1977 48.1907 22.4217 47.6506 22.8201 47.2522C23.2185 46.8538 23.7587 46.6298 24.322 46.6293Z" fill="black"/>
<path d="M35.678 52.5196C36.4227 52.5196 37.1507 52.2988 37.77 51.885C38.3892 51.4712 38.8718 50.8832 39.1568 50.1951C39.4418 49.5071 39.5164 48.7499 39.3711 48.0195C39.2258 47.2891 38.8672 46.6181 38.3406 46.0915C37.8139 45.5649 37.143 45.2063 36.4126 45.061C35.6821 44.9157 34.925 44.9903 34.237 45.2753C33.5489 45.5603 32.9609 46.0429 32.5471 46.6621C32.1333 47.2814 31.9125 48.0094 31.9125 48.7541C31.9137 49.7524 32.3109 50.7094 33.0168 51.4153C33.7226 52.1212 34.6797 52.5184 35.678 52.5196ZM35.678 46.6293C36.0982 46.6293 36.509 46.7539 36.8585 46.9874C37.2079 47.2209 37.4802 47.5527 37.6411 47.941C37.8019 48.3292 37.844 48.7565 37.762 49.1687C37.68 49.5808 37.4776 49.9594 37.1805 50.2566C36.8833 50.5538 36.5047 50.7562 36.0925 50.8381C35.6803 50.9201 35.2531 50.878 34.8648 50.7172C34.4766 50.5564 34.1447 50.284 33.9112 49.9346C33.6777 49.5852 33.5531 49.1744 33.5531 48.7541C33.5538 48.1908 33.7778 47.6507 34.1762 47.2523C34.5745 46.854 35.1146 46.6299 35.678 46.6293Z" fill="black"/>
<path d="M47.0344 52.5196C47.7791 52.5196 48.5071 52.2988 49.1264 51.885C49.7456 51.4712 50.2282 50.8832 50.5132 50.1951C50.7982 49.5071 50.8728 48.7499 50.7275 48.0195C50.5822 47.2891 50.2236 46.6181 49.697 46.0915C49.1704 45.5649 48.4994 45.2063 47.769 45.061C47.0386 44.9157 46.2815 44.9903 45.5934 45.2753C44.9054 45.5603 44.3173 46.0429 43.9035 46.6621C43.4898 47.2814 43.2689 48.0094 43.2689 48.7541C43.27 49.7524 43.6671 50.7096 44.373 51.4155C45.079 52.1214 46.0361 52.5185 47.0344 52.5196ZM47.0344 46.6293C47.4546 46.6293 47.8655 46.7539 48.2149 46.9874C48.5643 47.2209 48.8367 47.5527 48.9975 47.941C49.1583 48.3292 49.2004 48.7565 49.1184 49.1687C49.0364 49.5808 48.834 49.9594 48.5369 50.2566C48.2397 50.5538 47.8611 50.7562 47.4489 50.8381C47.0367 50.9201 46.6095 50.878 46.2212 50.7172C45.833 50.5564 45.5011 50.284 45.2676 49.9346C45.0342 49.5852 44.9095 49.1744 44.9095 48.7541C44.91 48.1907 45.1341 47.6506 45.5324 47.2522C45.9308 46.8538 46.471 46.6298 47.0344 46.6293Z" fill="black"/>
</svg>
