<svg width="60" height="60" viewBox="0 0 60 60" fill="none" xmlns="http://www.w3.org/2000/svg">
<g clip-path="url(#clip0)">
<path d="M40.8997 53.9461C40.538 53.9457 40.2038 53.7533 40.0218 53.4407C39.8399 53.1281 39.8377 52.7424 40.016 52.4278C41.1743 50.3878 43.3343 48.9895 46.438 48.2705C46.8255 48.18 47.2414 48.0905 47.6746 47.9969C51.4983 47.1742 56.2566 46.1481 56.876 41.5586C57.1963 39.1881 56.4621 37.6068 54.6956 36.8613C51.4109 35.4773 45.8624 37.3037 43.9587 39.7322C43.6121 40.1745 42.9727 40.2521 42.5304 39.9056C42.0881 39.559 42.0104 38.9196 42.357 38.4773C44.9919 35.1213 51.6173 33.3579 55.4868 34.9871C57.0122 35.6339 59.4926 37.381 58.8926 41.8312C58.079 47.8312 52.079 49.1298 48.1027 49.9851C47.6807 50.0766 47.277 50.163 46.8977 50.2515C44.3695 50.8363 42.6499 51.9061 41.7844 53.4315C41.6036 53.7498 41.2657 53.9463 40.8997 53.9461Z" fill="#C03A2B"/>
<path d="M48.8034 31.861C48.9864 40.7389 46.7898 60 24.4068 60C2.02371 60 -0.172905 40.7389 0.010146 31.861H48.8034Z" fill="#E64C3C"/>
<path d="M24.4068 40.6779C37.3246 40.6779 47.7966 36.5802 47.7966 31.5254C47.7966 26.4706 37.3246 22.3729 24.4068 22.3729C11.4889 22.3729 1.01697 26.4706 1.01697 31.5254C1.01697 36.5802 11.4889 40.6779 24.4068 40.6779Z" fill="#BDC3C7"/>
<path d="M14.2434 54.9092C14.0902 54.909 13.939 54.8743 13.801 54.8075C12.0807 53.9835 10.5172 52.8657 9.18104 51.5044C6.90647 49.0763 5.26277 46.127 4.39426 42.9153C4.2451 42.38 4.55314 41.8242 5.08605 41.6669C5.61897 41.5096 6.17945 41.8092 6.34477 42.3397C7.12164 45.233 8.59504 47.8921 10.6363 50.0848C11.8082 51.2761 13.1785 52.2544 14.6858 52.9759C15.1123 53.1825 15.3396 53.6562 15.2338 54.1182C15.1281 54.5801 14.7173 54.9077 14.2434 54.9081V54.9092Z" fill="white"/>
<path d="M29.7254 29.7356C38.4102 30.5288 44.9593 33.2136 45.6813 36.4983C41.4915 39.6 33.539 41.6949 24.4068 41.6949C23.2169 41.6949 22.0474 41.6644 20.9085 41.5831C13.2712 41.1254 6.77288 39.1932 3.1322 36.4983C3.8339 33.3356 9.99661 30.6915 18.2644 29.817L29.7254 29.7356Z" fill="#A56A43"/>
<path d="M21.1841 2.86068C15.9305 3.61017 7.11865 5.49153 7.11865 9.66102C7.11865 11.6868 9.21967 13.3983 13.3627 14.7458C14.6985 15.1732 16.0564 15.5283 17.4305 15.8095L14.7254 17.4366C14.4069 17.6203 14.2123 17.9616 14.2165 18.3293C14.2208 18.697 14.4231 19.0337 14.7458 19.21C15.0685 19.3863 15.4612 19.3747 15.7729 19.1797L20.8576 16.1288C21.1259 15.9676 21.3049 15.6918 21.343 15.3812C21.3812 15.0705 21.2741 14.7596 21.0529 14.5383L16.9851 10.4705C16.5861 10.0851 15.9518 10.0906 15.5595 10.4829C15.1672 10.8752 15.1617 11.5094 15.5471 11.9085L17.3512 13.7125C16.137 13.4441 15.0051 13.1471 13.9881 12.8156C10.4207 11.6502 9.15255 10.3881 9.15255 9.66102C9.15255 8.44068 12.4332 6.16373 21.4709 4.87424C22.0248 4.79287 22.4088 4.27901 22.3299 3.72469C22.2509 3.17037 21.7387 2.78415 21.1841 2.86068Z" fill="#E64C3C"/>
<path d="M53.757 4.57626C52.4192 4.14802 51.0593 3.79258 49.6831 3.51151L52.3882 1.8844C52.7235 1.70946 52.934 1.36289 52.9347 0.98469C52.9354 0.606487 52.7262 0.259129 52.3916 0.0829293C52.0569 -0.0932703 51.6521 -0.0692019 51.3407 0.145412L46.2559 3.19626C45.9877 3.35751 45.8087 3.63328 45.7706 3.94391C45.7324 4.25454 45.8394 4.56543 46.0607 4.78677L50.1285 8.85456C50.5275 9.23996 51.1618 9.23445 51.5541 8.84218C51.9463 8.44991 51.9519 7.81563 51.5665 7.4166L49.7644 5.61355C50.9909 5.88406 52.1238 6.18202 53.1254 6.50948C56.698 7.67185 57.9661 8.93389 57.9661 9.66101C57.9661 11.1651 53.1865 13.7593 42.5665 14.823C42.0048 14.8511 41.5723 15.3292 41.6004 15.8908C41.6284 16.4525 42.1065 16.885 42.6682 16.8569C42.7017 16.8569 42.7363 16.8569 42.7698 16.8519C46.8112 16.442 60 14.7285 60 9.66101C60 7.63524 57.899 5.92372 53.757 4.57626Z" fill="#E64C3C"/>
<path d="M24.4068 21.3559C10.9322 21.3559 0 25.9118 0 31.5254C0 37.1389 10.9322 41.6949 24.4068 41.6949C37.8814 41.6949 48.8136 37.1389 48.8136 31.5254C48.8136 25.9118 37.8814 21.3559 24.4068 21.3559ZM24.4068 38.644C12.6102 38.644 3.05085 35.2271 3.05085 31.0169C3.05085 26.8067 12.6102 23.3898 24.4068 23.3898C36.2034 23.3898 45.7627 26.8067 45.7627 31.0169C45.7627 35.2271 36.2034 38.644 24.4068 38.644Z" fill="#ECF0F1"/>
<path d="M41.2779 7.13901L41.1966 7.28138L33.4271 22.0882L29.8068 28.9831C29.6859 29.2145 29.6533 29.482 29.7152 29.7356H29.7254C29.7468 29.8662 29.7953 29.9909 29.8678 30.1017C30.8608 31.9479 30.9175 34.1562 30.0203 36.0509C29.8556 36.3998 29.5009 36.619 29.1152 36.6102H17.9593C17.4115 36.6103 16.9598 36.181 16.9322 35.6339C16.8283 33.8492 17.1708 32.0666 17.9288 30.4475C18.0305 30.2238 18.1525 30.0204 18.2644 29.817C19.1691 28.1227 20.8199 26.9543 22.7186 26.6644C23.1152 26.6114 23.4588 26.3632 23.6339 26.0034L25.6678 21.3763L33.5084 3.56951C34.1461 2.18163 35.4757 1.23934 36.9965 1.0976C38.5172 0.955857 39.9981 1.6362 40.8812 2.88234C41.7643 4.12849 41.9156 5.75112 41.2779 7.13901Z" fill="#95A5A5"/>
</g>
<defs>
<clipPath id="clip0">
<rect width="60" height="60" fill="white"/>
</clipPath>
</defs>
</svg>
